STARTFONT 2.1
COMMENT
COMMENT Converted from OpenType font "MFXuanRen_Noncommercial-Regular.ttf" by "otf2bdf 3.0".
COMMENT
FONT -FreeType-MF XuanRen(Noncommercial)-Medium-R-Normal--22-160-100-100-P-190-ISO10646-1
SIZE 16 100 100
FONTBOUNDINGBOX 22 30 0 -9
STARTPROPERTIES 19
FOUNDRY "FreeType"
FAMILY_NAME "MF XuanRen(Noncommercial)"
WEIGHT_NAME "Medium"
SLANT "R"
SETWIDTH_NAME "Normal"
ADD_STYLE_NAME ""
PIXEL_SIZE 22
POINT_SIZE 160
RESOLUTION_X 100
RESOLUTION_Y 100
SPACING "P"
AVERAGE_WIDTH 190
CHARSET_REGISTRY "ISO10646"
CHARSET_ENCODING "1"
FONT_ASCENT 19
FONT_DESCENT 8
COPYRIGHT "© 2020SN. All rights reserved."
_OTF_FONTFILE "MFXuanRen_Noncommercial-Regular.ttf"
_OTF_PSNAME "MF XuanRen(Noncommercial)-Regular"
ENDPROPERTIES
CHARS 7256
STARTCHAR 0000
ENCODING 0
SWIDTH 270 0
DWIDTH 6 0
BBX 0 0 0 0
BITMAP
ENDCHAR
STARTCHAR 0001
ENCODING 1
SWIDTH 270 0
DWIDTH 6 0
BBX 0 0 0 0
BITMAP
ENDCHAR
STARTCHAR 0002
ENCODING 2
SWIDTH 270 0
DWIDTH 6 0
BBX 0 0 0 0
BITMAP
ENDCHAR
STARTCHAR 0003
ENCODING 3
SWIDTH 270 0
DWIDTH 6 0
BBX 0 0 0 0
BITMAP
ENDCHAR
STARTCHAR 0004
ENCODING 4
SWIDTH 270 0
DWIDTH 6 0
BBX 0 0 0 0
BITMAP
ENDCHAR
STARTCHAR 0005
ENCODING 5
SWIDTH 270 0
DWIDTH 6 0
BBX 0 0 0 0
BITMAP
ENDCHAR
STARTCHAR 0006
ENCODING 6
SWIDTH 270 0
DWIDTH 6 0
BBX 0 0 0 0
BITMAP
ENDCHAR
STARTCHAR 0007
ENCODING 7
SWIDTH 270 0
DWIDTH 6 0
BBX 0 0 0 0
BITMAP
ENDCHAR
STARTCHAR 000A
ENCODING 10
SWIDTH 270 0
DWIDTH 6 0
BBX 0 0 0 0
BITMAP
ENDCHAR
STARTCHAR 000B
ENCODING 11
SWIDTH 270 0
DWIDTH 6 0
BBX 0 0 0 0
BITMAP
ENDCHAR
STARTCHAR 000C
ENCODING 12
SWIDTH 270 0
DWIDTH 6 0
BBX 0 0 0 0
BITMAP
ENDCHAR
STARTCHAR 000E
ENCODING 14
SWIDTH 270 0
DWIDTH 6 0
BBX 0 0 0 0
BITMAP
ENDCHAR
STARTCHAR 000F
ENCODING 15
SWIDTH 270 0
DWIDTH 6 0
BBX 0 0 0 0
BITMAP
ENDCHAR
STARTCHAR 0010
ENCODING 16
SWIDTH 270 0
DWIDTH 6 0
BBX 0 0 0 0
BITMAP
ENDCHAR
STARTCHAR 0011
ENCODING 17
SWIDTH 270 0
DWIDTH 6 0
BBX 0 0 0 0
BITMAP
ENDCHAR
STARTCHAR 0012
ENCODING 18
SWIDTH 270 0
DWIDTH 6 0
BBX 0 0 0 0
BITMAP
ENDCHAR
STARTCHAR 0013
ENCODING 19
SWIDTH 270 0
DWIDTH 6 0
BBX 0 0 0 0
BITMAP
ENDCHAR
STARTCHAR 0014
ENCODING 20
SWIDTH 270 0
DWIDTH 6 0
BBX 0 0 0 0
BITMAP
ENDCHAR
STARTCHAR 0015
ENCODING 21
SWIDTH 270 0
DWIDTH 6 0
BBX 0 0 0 0
BITMAP
ENDCHAR
STARTCHAR 0016
ENCODING 22
SWIDTH 270 0
DWIDTH 6 0
BBX 0 0 0 0
BITMAP
ENDCHAR
STARTCHAR 0017
ENCODING 23
SWIDTH 270 0
DWIDTH 6 0
BBX 0 0 0 0
BITMAP
ENDCHAR
STARTCHAR 0018
ENCODING 24
SWIDTH 270 0
DWIDTH 6 0
BBX 0 0 0 0
BITMAP
ENDCHAR
STARTCHAR 0019
ENCODING 25
SWIDTH 270 0
DWIDTH 6 0
BBX 0 0 0 0
BITMAP
ENDCHAR
STARTCHAR 001A
ENCODING 26
SWIDTH 270 0
DWIDTH 6 0
BBX 0 0 0 0
BITMAP
ENDCHAR
STARTCHAR 001B
ENCODING 27
SWIDTH 270 0
DWIDTH 6 0
BBX 0 0 0 0
BITMAP
ENDCHAR
STARTCHAR 001C
ENCODING 28
SWIDTH 270 0
DWIDTH 6 0
BBX 0 0 0 0
BITMAP
ENDCHAR
STARTCHAR 001D
ENCODING 29
SWIDTH 270 0
DWIDTH 6 0
BBX 0 0 0 0
BITMAP
ENDCHAR
STARTCHAR 001E
ENCODING 30
SWIDTH 270 0
DWIDTH 6 0
BBX 0 0 0 0
BITMAP
ENDCHAR
STARTCHAR 001F
ENCODING 31
SWIDTH 270 0
DWIDTH 6 0
BBX 0 0 0 0
BITMAP
ENDCHAR
STARTCHAR 0020
ENCODING 32
SWIDTH 270 0
DWIDTH 6 0
BBX 0 0 0 0
BITMAP
ENDCHAR
STARTCHAR 0021
ENCODING 33
SWIDTH 225 0
DWIDTH 5 0
BBX 3 20 1 -2
BITMAP
E0
E0
E0
E0
E0
E0
E0
E0
E0
E0
E0
E0
E0
E0
E0
00
E0
E0
E0
E0
ENDCHAR
STARTCHAR 0022
ENCODING 34
SWIDTH 450 0
DWIDTH 10 0
BBX 8 4 1 16
BITMAP
77
76
EE
EE
ENDCHAR
STARTCHAR 0023
ENCODING 35
SWIDTH 855 0
DWIDTH 19 0
BBX 16 20 1 -2
BITMAP
038E
070E
070C
071C
3FFF
7FFF
7FFF
0E18
0E38
0E38
1C38
7FFF
FFFF
FFFE
1870
3870
3860
38E0
38E0
70E0
ENDCHAR
STARTCHAR 0024
ENCODING 36
SWIDTH 765 0
DWIDTH 17 0
BBX 13 21 2 -2
BITMAP
0700
FFF8
FFF8
FFF0
E700
E700
E700
E700
E700
FFF8
FFF8
FFF8
0738
0738
0738
0738
FFF8
FFF8
FFF8
0700
0700
ENDCHAR
STARTCHAR 0025
ENCODING 37
SWIDTH 945 0
DWIDTH 21 0
BBX 18 20 2 -2
BITMAP
FF03C0
FF0380
FF0700
E70E00
E71E00
FF1C00
FF3800
EF7000
00F000
00E000
01C000
038000
07BFC0
073FC0
0E3FC0
1C39C0
1C39C0
383FC0
703FC0
E03BC0
ENDCHAR
STARTCHAR 0026
ENCODING 38
SWIDTH 810 0
DWIDTH 18 0
BBX 16 20 1 -2
BITMAP
7FF8
7FF8
7FF8
7038
7038
7038
7078
78F8
3FE0
1F80
1F86
7FCE
F9FE
E07C
E03C
E01E
E01F
FFFB
FFF9
FFF8
ENDCHAR
STARTCHAR 0027
ENCODING 39
SWIDTH 225 0
DWIDTH 5 0
BBX 3 4 1 16
BITMAP
60
E0
E0
E0
ENDCHAR
STARTCHAR 0028
ENCODING 40
SWIDTH 360 0
DWIDTH 8 0
BBX 5 21 1 -2
BITMAP
38
38
70
70
70
60
E0
E0
E0
E0
E0
E0
E0
E0
E0
60
70
70
70
38
38
ENDCHAR
STARTCHAR 0029
ENCODING 41
SWIDTH 360 0
DWIDTH 8 0
BBX 5 21 2 -2
BITMAP
C0
E0
E0
70
70
70
30
38
38
38
38
38
38
38
38
70
70
70
F0
E0
E0
ENDCHAR
STARTCHAR 002A
ENCODING 42
SWIDTH 450 0
DWIDTH 10 0
BBX 9 8 1 10
BITMAP
1800
9800
FB00
FF80
1C00
3C00
7600
6600
ENDCHAR
STARTCHAR 002B
ENCODING 43
SWIDTH 765 0
DWIDTH 17 0
BBX 15 14 1 0
BITMAP
0380
0380
0380
0380
0380
0380
7FFE
FFFE
FFFC
0380
0380
0380
0380
0380
ENDCHAR
STARTCHAR 002C
ENCODING 44
SWIDTH 270 0
DWIDTH 6 0
BBX 4 4 1 -2
BITMAP
70
E0
E0
E0
ENDCHAR
STARTCHAR 002D
ENCODING 45
SWIDTH 855 0
DWIDTH 19 0
BBX 16 3 2 5
BITMAP
7FFF
FFFE
FFFE
ENDCHAR
STARTCHAR 002E
ENCODING 46
SWIDTH 225 0
DWIDTH 5 0
BBX 3 4 1 -2
BITMAP
E0
E0
E0
E0
ENDCHAR
STARTCHAR 002F
ENCODING 47
SWIDTH 495 0
DWIDTH 11 0
BBX 9 22 1 -2
BITMAP
0380
0380
0780
0700
0700
0700
0E00
0E00
0E00
1C00
1C00
1C00
3800
3800
3800
7800
7000
7000
7000
E000
E000
E000
ENDCHAR
STARTCHAR 0030
ENCODING 48
SWIDTH 810 0
DWIDTH 18 0
BBX 15 20 2 -2
BITMAP
FFFE
FFFE
FFFE
E00E
E00E
E00E
E00E
E00E
E00E
E00E
E00E
E00E
E00E
E00E
E00E
E00E
E00E
FFFE
EFFE
EFFE
ENDCHAR
STARTCHAR 0031
ENCODING 49
SWIDTH 495 0
DWIDTH 11 0
BBX 10 20 0 -2
BITMAP
7E00
7E00
7E00
0E00
0E00
0E00
0E00
0E00
0E00
0E00
0E00
0E00
0E00
0E00
0E00
0E00
0E00
7FC0
7FC0
FFC0
ENDCHAR
STARTCHAR 0032
ENCODING 50
SWIDTH 810 0
DWIDTH 18 0
BBX 14 20 2 -2
BITMAP
FFFC
FFFC
FFFC
001C
001C
001C
001C
001C
FFFC
FFFC
FFFC
E000
E000
E000
E000
E000
E000
FFFC
FFFC
FFFC
ENDCHAR
STARTCHAR 0033
ENCODING 51
SWIDTH 720 0
DWIDTH 16 0
BBX 14 20 1 -2
BITMAP
FFFC
FFFC
FFFC
001C
001C
001C
001C
001C
7FFC
FFFC
FFFC
001C
001C
001C
001C
001C
001C
FFFC
FFFC
FFFC
ENDCHAR
STARTCHAR 0034
ENCODING 52
SWIDTH 765 0
DWIDTH 17 0
BBX 15 20 1 -2
BITMAP
3870
3870
3870
3870
7070
7070
7070
7070
7070
7070
7070
6070
FFFE
FFFE
FFFC
0070
0070
0070
0070
0070
ENDCHAR
STARTCHAR 0035
ENCODING 53
SWIDTH 810 0
DWIDTH 18 0
BBX 14 20 2 -1
BITMAP
FFFC
FFFC
FFFC
E000
E000
E000
E000
E000
E000
FFFC
FFFC
FFFC
001C
001C
001C
001C
001C
FFFC
FFFC
FFFC
ENDCHAR
STARTCHAR 0036
ENCODING 54
SWIDTH 810 0
DWIDTH 18 0
BBX 14 20 2 -2
BITMAP
FFFC
FFFC
FFF8
E000
E000
E000
E000
E000
FFFC
FFFC
FFFC
E01C
E01C
E01C
E01C
E01C
E01C
FFFC
FFFC
FFFC
ENDCHAR
STARTCHAR 0037
ENCODING 55
SWIDTH 765 0
DWIDTH 17 0
BBX 15 20 1 -2
BITMAP
7FFE
FFFC
FFFC
001C
0038
0038
0038
0078
0070
0070
00F0
00E0
00E0
00E0
01C0
01C0
01C0
0380
0380
0380
ENDCHAR
STARTCHAR 0038
ENCODING 56
SWIDTH 810 0
DWIDTH 18 0
BBX 15 20 2 -2
BITMAP
FFFE
FFFE
FFFE
E00E
E00E
E00E
E00E
E00E
E00E
FFFE
FFFE
FFFE
E00E
E00E
E00E
E00E
E00E
FFFE
EFFE
EFFE
ENDCHAR
STARTCHAR 0039
ENCODING 57
SWIDTH 810 0
DWIDTH 18 0
BBX 14 20 2 -2
BITMAP
FFFC
FFFC
FFFC
E01C
E01C
E01C
E01C
E01C
E01C
FFFC
FFFC
FFFC
001C
001C
001C
001C
001C
7FFC
FFFC
FFFC
ENDCHAR
STARTCHAR 003A
ENCODING 58
SWIDTH 180 0
DWIDTH 4 0
BBX 3 14 1 0
BITMAP
E0
E0
E0
E0
00
00
00
00
00
00
E0
E0
E0
E0
ENDCHAR
STARTCHAR 003B
ENCODING 59
SWIDTH 225 0
DWIDTH 5 0
BBX 3 14 1 0
BITMAP
E0
E0
E0
E0
00
00
00
00
00
00
E0
E0
E0
E0
ENDCHAR
STARTCHAR 003C
ENCODING 60
SWIDTH 360 0
DWIDTH 8 0
BBX 6 13 1 0
BITMAP
1C
38
38
70
E0
E0
E0
E0
70
70
38
38
1C
ENDCHAR
STARTCHAR 003D
ENCODING 61
SWIDTH 855 0
DWIDTH 19 0
BBX 15 8 2 3
BITMAP
FFFE
FFFE
FFFE
0000
0000
FFFE
FFFE
FFFE
ENDCHAR
STARTCHAR 003E
ENCODING 62
SWIDTH 360 0
DWIDTH 8 0
BBX 7 13 1 0
BITMAP
E0
70
30
38
1C
1C
0E
1C
18
38
70
70
E0
ENDCHAR
STARTCHAR 003F
ENCODING 63
SWIDTH 720 0
DWIDTH 16 0
BBX 14 20 1 -2
BITMAP
FFFC
FFFC
FFFC
E01C
E01C
E01C
E01C
003C
0078
01F0
03E0
0380
0380
0380
0380
0000
0380
0380
0380
0380
ENDCHAR
STARTCHAR 0040
ENCODING 64
SWIDTH 990 0
DWIDTH 22 0
BBX 18 20 2 -2
BITMAP
FFFF80
FFFF80
FFFF80
E00380
E00380
E7FB80
E7FB80
E7FB80
E73B80
E73B80
E73B80
E73B80
E73B80
E7FF80
E7FF80
E7FF80
E00000
FFFFC0
FFFFC0
FFFF80
ENDCHAR
STARTCHAR 0041
ENCODING 65
SWIDTH 855 0
DWIDTH 19 0
BBX 17 20 1 -2
BITMAP
01C000
03E000
03E000
03E000
077000
077000
073800
0E3800
0E3800
0E1C00
1FFC00
1FFC00
1FEE00
380E00
380E00
780700
700700
700700
E00380
E00380
ENDCHAR
STARTCHAR 0042
ENCODING 66
SWIDTH 810 0
DWIDTH 18 0
BBX 15 20 2 -2
BITMAP
FFFE
FFFE
FFFE
E00E
E00E
E00E
E00E
E00E
FFF8
EFFC
EFFE
E00E
E00E
E00E
E00E
E00E
E00E
FFFE
EFFE
EFFE
ENDCHAR
STARTCHAR 0043
ENCODING 67
SWIDTH 810 0
DWIDTH 18 0
BBX 15 20 2 -2
BITMAP
FFFC
FFFC
FFFC
E000
E000
E000
E000
E000
E000
E000
E000
E000
E000
E000
E000
E000
E000
FFFE
FFFC
FFFC
ENDCHAR
STARTCHAR 0044
ENCODING 68
SWIDTH 810 0
DWIDTH 18 0
BBX 15 20 2 -2
BITMAP
FFE0
FFF8
FFFC
E03E
E01E
E00E
E00E
E00E
E00E
E00E
E00E
E00E
E00E
E00E
E00E
E00E
E00E
FFFE
EFFE
EFFE
ENDCHAR
STARTCHAR 0045
ENCODING 69
SWIDTH 810 0
DWIDTH 18 0
BBX 15 20 2 -2
BITMAP
FFFE
FFFC
FFFC
E000
E000
E000
E000
E000
FFFC
FFFC
FFF8
E000
E000
E000
E000
E000
E000
FFFE
FFFC
FFFC
ENDCHAR
STARTCHAR 0046
ENCODING 70
SWIDTH 765 0
DWIDTH 17 0
BBX 15 20 2 -2
BITMAP
FFFE
FFFC
FFFC
E000
E000
E000
E000
E000
FFFC
FFF8
FFF8
E000
E000
E000
E000
E000
E000
E000
E000
E000
ENDCHAR
STARTCHAR 0047
ENCODING 71
SWIDTH 810 0
DWIDTH 18 0
BBX 14 20 2 -2
BITMAP
FFFC
FFFC
FFF8
E000
E000
E000
E000
E000
E3FC
E7FC
E7FC
E01C
E01C
E01C
E01C
E01C
E01C
FFFC
FFFC
FFFC
ENDCHAR
STARTCHAR 0048
ENCODING 72
SWIDTH 810 0
DWIDTH 18 0
BBX 15 20 2 -2
BITMAP
E00E
E00E
E00E
E00E
E00E
E00E
E00E
E00E
FFFE
FFFE
FFEE
E00E
E00E
E00E
E00E
E00E
E00E
E00E
E00E
E00E
ENDCHAR
STARTCHAR 0049
ENCODING 73
SWIDTH 495 0
DWIDTH 11 0
BBX 9 20 1 -2
BITMAP
FF80
FF80
FF80
1C00
1C00
1C00
1C00
1C00
1C00
1C00
1C00
1C00
1C00
1C00
1C00
1C00
1C00
FF80
FF80
FF80
ENDCHAR
STARTCHAR 004A
ENCODING 74
SWIDTH 540 0
DWIDTH 12 0
BBX 11 20 0 -2
BITMAP
00E0
00E0
00E0
00E0
00E0
00E0
00E0
00E0
00E0
00E0
00E0
00E0
00E0
00E0
00E0
00E0
00E0
FFE0
7FE0
7FE0
ENDCHAR
STARTCHAR 004B
ENCODING 75
SWIDTH 810 0
DWIDTH 18 0
BBX 15 20 2 -2
BITMAP
E01C
E038
E070
E0F0
E1E0
E3C0
E780
EF00
EF00
FF80
FB80
F9C0
F1E0
E0E0
E0F0
E070
E038
E038
E01C
E01E
ENDCHAR
STARTCHAR 004C
ENCODING 76
SWIDTH 720 0
DWIDTH 16 0
BBX 14 20 2 -2
BITMAP
E000
E000
E000
E000
E000
E000
E000
E000
E000
E000
E000
E000
E000
E000
E000
E000
E000
FFFC
FFFC
FFFC
ENDCHAR
STARTCHAR 004D
ENCODING 77
SWIDTH 945 0
DWIDTH 21 0
BBX 17 20 2 -2
BITMAP
F00780
F00780
F80F80
F80F80
F80F80
FC1F80
FC1F80
FC1F80
EE3F80
EE3B80
EE3B80
EE7B80
E77380
E77380
E7F380
E3E380
E3E380
E00380
E00380
E00380
ENDCHAR
STARTCHAR 004E
ENCODING 78
SWIDTH 810 0
DWIDTH 18 0
BBX 15 20 2 -2
BITMAP
F00E
F80E
F80E
FC0E
FC0E
EE0E
EE0E
E70E
E70E
E38E
E38E
E1CE
E1CE
E0EE
E0EE
E07E
E07E
E03E
E03E
E01E
ENDCHAR
STARTCHAR 004F
ENCODING 79
SWIDTH 810 0
DWIDTH 18 0
BBX 15 20 2 -2
BITMAP
FFFE
FFFE
FFFE
E00E
E00E
E00E
E00E
E00E
E00E
E00E
E00E
E00E
E00E
E00E
E00E
E00E
E00E
FFFE
FFFE
EFFE
ENDCHAR
STARTCHAR 0050
ENCODING 80
SWIDTH 810 0
DWIDTH 18 0
BBX 15 20 2 -2
BITMAP
FFFE
FFFE
FFFE
E00E
E00E
E00E
E00E
E00E
E00E
EFFE
EFFE
EFFE
E000
E000
E000
E000
E000
E000
E000
E000
ENDCHAR
STARTCHAR 0051
ENCODING 81
SWIDTH 765 0
DWIDTH 17 0
BBX 15 22 1 -4
BITMAP
FFFE
FFFE
FFFE
E00E
E00E
E00E
E00E
E00E
E00E
E00E
E00E
E00E
E00E
E00E
E00E
E1CE
E0EE
FFFE
EFFE
EFFE
0038
0038
ENDCHAR
STARTCHAR 0052
ENCODING 82
SWIDTH 810 0
DWIDTH 18 0
BBX 14 20 2 -2
BITMAP
FFFC
FFFC
FFFC
E01C
E01C
E01C
E01C
E01C
E7FC
EFFC
EFFC
E0E0
E060
E070
E070
E038
E038
E038
E01C
E01C
ENDCHAR
STARTCHAR 0053
ENCODING 83
SWIDTH 810 0
DWIDTH 18 0
BBX 14 20 2 -2
BITMAP
FFFC
FFFC
FFF8
E000
E000
E000
E000
E000
E000
FFFC
FFFC
FFFC
001C
001C
001C
001C
001C
FFFC
FFFC
FFFC
ENDCHAR
STARTCHAR 0054
ENCODING 84
SWIDTH 765 0
DWIDTH 17 0
BBX 15 20 1 -2
BITMAP
7FFE
FFFC
FFFC
0380
0380
0380
0380
0380
0380
0380
0380
0380
0380
0380
0380
0380
0380
0380
0380
0380
ENDCHAR
STARTCHAR 0055
ENCODING 85
SWIDTH 810 0
DWIDTH 18 0
BBX 15 20 2 -2
BITMAP
E00E
E00E
E00E
E00E
E00E
E00E
E00E
E00E
E00E
E00E
E00E
E00E
E00E
E00E
E00E
E00E
E00E
FFFE
FFFE
FFFE
ENDCHAR
STARTCHAR 0056
ENCODING 86
SWIDTH 810 0
DWIDTH 18 0
BBX 16 20 1 -2
BITMAP
E007
F007
7007
700E
700E
380E
381C
381C
1C1C
1C38
1C38
0E38
0E78
0E70
0770
07F0
07E0
07E0
03E0
03C0
ENDCHAR
STARTCHAR 0057
ENCODING 87
SWIDTH 1035 0
DWIDTH 23 0
BBX 20 20 1 -2
BITMAP
E0F870
60F870
70F870
70F870
71F870
71D8E0
39DCE0
39DCE0
39DCE0
39DCE0
3B9DC0
1F8FC0
1F8FC0
1F8FC0
1F8FC0
1F8F80
1F0F80
0F0780
0F0780
0F0780
ENDCHAR
STARTCHAR 0058
ENCODING 88
SWIDTH 810 0
DWIDTH 18 0
BBX 14 20 2 -2
BITMAP
E01C
F03C
7038
3870
3CF0
1CE0
1FE0
0FC0
0F80
0780
0780
0FC0
0FC0
1FE0
1CE0
3870
7878
7038
F03C
E01C
ENDCHAR
STARTCHAR 0059
ENCODING 89
SWIDTH 810 0
DWIDTH 18 0
BBX 15 20 2 -2
BITMAP
E00E
F01E
703C
3838
3C70
1CF0
0EE0
07C0
07C0
0380
0380
0380
0380
0380
0380
0380
0380
0380
0380
0380
ENDCHAR
STARTCHAR 005A
ENCODING 90
SWIDTH 765 0
DWIDTH 17 0
BBX 15 20 1 -2
BITMAP
7FFC
FFFC
FFFC
0038
0078
00F0
00E0
01E0
03C0
0380
0700
0F00
1E00
1C00
3C00
7800
7000
FFFE
FFFC
FFFC
ENDCHAR
STARTCHAR 005B
ENCODING 91
SWIDTH 360 0
DWIDTH 8 0
BBX 6 23 1 -5
BITMAP
FC
F8
F8
E0
E0
E0
E0
E0
E0
E0
E0
E0
E0
E0
E0
E0
E0
E0
E0
E0
FC
FC
F8
ENDCHAR
STARTCHAR 005C
ENCODING 92
SWIDTH 405 0
DWIDTH 9 0
BBX 7 22 1 -4
BITMAP
C0
E0
E0
E0
E0
70
70
70
70
30
38
38
38
38
1C
1C
1C
1C
0C
0E
0E
0E
ENDCHAR
STARTCHAR 005D
ENCODING 93
SWIDTH 360 0
DWIDTH 8 0
BBX 6 23 1 -5
BITMAP
FC
FC
7C
1C
1C
1C
1C
1C
1C
1C
1C
1C
1C
1C
1C
1C
1C
1C
1C
1C
FC
FC
7C
ENDCHAR
STARTCHAR 005E
ENCODING 94
SWIDTH 585 0
DWIDTH 13 0
BBX 10 8 1 11
BITMAP
1E00
1F00
3F00
3B80
7380
71C0
61C0
E0C0
ENDCHAR
STARTCHAR 005F
ENCODING 95
SWIDTH 945 0
DWIDTH 21 0
BBX 17 3 2 -5
BITMAP
FFFF80
FFFF80
FFFF80
ENDCHAR
STARTCHAR 0060
ENCODING 96
SWIDTH 270 0
DWIDTH 6 0
BBX 4 4 1 16
BITMAP
E0
E0
60
70
ENDCHAR
STARTCHAR 0061
ENCODING 97
SWIDTH 765 0
DWIDTH 17 0
BBX 14 14 2 -2
BITMAP
7FFC
FFFC
FFFC
001C
001C
FFFC
FFFC
FFFC
E01C
E01C
E01C
FFFC
FFFC
FFFC
ENDCHAR
STARTCHAR 0062
ENCODING 98
SWIDTH 765 0
DWIDTH 17 0
BBX 14 20 2 -2
BITMAP
E000
E000
E000
E000
E000
E000
FFFC
FFFC
FFFC
E01C
E01C
E01C
E01C
E01C
E01C
E01C
E01C
FFFC
FFFC
FFFC
ENDCHAR
STARTCHAR 0063
ENCODING 99
SWIDTH 765 0
DWIDTH 17 0
BBX 14 14 2 -2
BITMAP
FFF8
FFF8
FFF8
E000
E000
E000
E000
E000
E000
E000
E000
FFFC
FFF8
FFF8
ENDCHAR
STARTCHAR 0064
ENCODING 100
SWIDTH 720 0
DWIDTH 16 0
BBX 14 20 1 -2
BITMAP
001C
001C
001C
001C
001C
001C
FFFC
FFFC
FFFC
E01C
E01C
E01C
E01C
E01C
E01C
E01C
E01C
FFFC
FFFC
FFFC
ENDCHAR
STARTCHAR 0065
ENCODING 101
SWIDTH 810 0
DWIDTH 18 0
BBX 14 14 2 -2
BITMAP
FFFC
FFFC
FFFC
E01C
E01C
E01C
FFFC
FFFC
FFFC
E000
E000
FFFC
FFFC
FFFC
ENDCHAR
STARTCHAR 0066
ENCODING 102
SWIDTH 675 0
DWIDTH 15 0
BBX 14 20 0 -2
BITMAP
07FC
07FC
07FC
0700
0700
0700
7FFC
7FFC
FFF8
0700
0700
0700
0700
0700
0700
0700
0700
0700
0700
0700
ENDCHAR
STARTCHAR 0067
ENCODING 103
SWIDTH 765 0
DWIDTH 17 0
BBX 14 21 2 -9
BITMAP
FFFC
FFFC
FFFC
E01C
E01C
E01C
E01C
E01C
E01C
E01C
E01C
FF9C
FFDC
FFDC
001C
001C
001C
001C
FFFC
FFFC
FFFC
ENDCHAR
STARTCHAR 0068
ENCODING 104
SWIDTH 765 0
DWIDTH 17 0
BBX 14 20 2 -2
BITMAP
E000
E000
E000
E000
E000
E000
FFFC
FFFC
FFFC
E01C
E01C
E01C
E01C
E01C
E01C
E01C
E01C
E01C
E01C
E01C
ENDCHAR
STARTCHAR 0069
ENCODING 105
SWIDTH 225 0
DWIDTH 5 0
BBX 3 20 1 -2
BITMAP
E0
E0
E0
00
00
00
E0
E0
E0
E0
E0
E0
E0
E0
E0
E0
E0
E0
E0
E0
ENDCHAR
STARTCHAR 006A
ENCODING 106
SWIDTH 405 0
DWIDTH 9 0
BBX 7 27 1 -9
BITMAP
0E
0E
0E
00
00
00
0E
0E
0E
0E
0E
0E
0E
0E
0E
0E
0E
0E
0E
0E
0E
0E
0E
0E
FE
FE
7E
ENDCHAR
STARTCHAR 006B
ENCODING 107
SWIDTH 720 0
DWIDTH 16 0
BBX 13 20 2 -2
BITMAP
E000
E000
E000
E000
E000
E000
E078
E0F0
E3E0
E780
EF00
FF00
FF80
FB80
E1C0
E1E0
E0E0
E070
E078
E038
ENDCHAR
STARTCHAR 006C
ENCODING 108
SWIDTH 225 0
DWIDTH 5 0
BBX 3 20 1 -2
BITMAP
E0
E0
E0
E0
E0
E0
E0
E0
E0
E0
E0
E0
E0
E0
E0
E0
E0
E0
E0
E0
ENDCHAR
STARTCHAR 006D
ENCODING 109
SWIDTH 900 0
DWIDTH 20 0
BBX 17 14 2 -2
BITMAP
FFFF80
FFFF80
FFFF80
E1C380
E1C380
E1C380
E1C380
E1C380
E1C380
E1C380
E1C380
E1C380
E1C380
E1C380
ENDCHAR
STARTCHAR 006E
ENCODING 110
SWIDTH 765 0
DWIDTH 17 0
BBX 14 14 2 -2
BITMAP
FFFC
FFFC
FFFC
E01C
E01C
E01C
E01C
E01C
E01C
E01C
E01C
E01C
E01C
E01C
ENDCHAR
STARTCHAR 006F
ENCODING 111
SWIDTH 765 0
DWIDTH 17 0
BBX 14 14 2 -2
BITMAP
FFFC
FFFC
FFFC
E01C
E01C
E01C
E01C
E01C
E01C
E01C
E01C
FFFC
FFFC
EFFC
ENDCHAR
STARTCHAR 0070
ENCODING 112
SWIDTH 720 0
DWIDTH 16 0
BBX 14 21 1 -9
BITMAP
FFFC
FFFC
FFFC
E01C
E01C
E01C
E01C
E01C
E01C
E01C
E01C
FFFC
FFFC
FFFC
E000
E000
E000
E000
E000
E000
E000
ENDCHAR
STARTCHAR 0071
ENCODING 113
SWIDTH 720 0
DWIDTH 16 0
BBX 14 21 1 -9
BITMAP
FFFC
FFFC
FFFC
E01C
E01C
E01C
E01C
E01C
E01C
E01C
E01C
FFFC
FFFC
FFFC
001C
001C
001C
001C
001C
001C
001C
ENDCHAR
STARTCHAR 0072
ENCODING 114
SWIDTH 585 0
DWIDTH 13 0
BBX 12 14 1 -2
BITMAP
E000
E0F0
EFF0
FFF0
FF00
F000
E000
E000
E000
E000
E000
E000
E000
E000
ENDCHAR
STARTCHAR 0073
ENCODING 115
SWIDTH 765 0
DWIDTH 17 0
BBX 14 14 1 -2
BITMAP
7FFC
7FFC
7FF8
7000
7000
7000
7FFC
7FFC
7FFC
001C
001C
7FFC
7FFC
FFFC
ENDCHAR
STARTCHAR 0074
ENCODING 116
SWIDTH 675 0
DWIDTH 15 0
BBX 14 19 0 -1
BITMAP
0700
0700
0700
0700
0700
7FFC
7FF8
FFF8
0700
0700
0700
0700
0700
0700
0700
0700
07F8
07F8
07F8
ENDCHAR
STARTCHAR 0075
ENCODING 117
SWIDTH 765 0
DWIDTH 17 0
BBX 14 14 2 -2
BITMAP
E01C
E01C
E01C
E01C
E01C
E01C
E01C
E01C
E01C
E01C
E01C
FFFC
FFFC
FFFC
ENDCHAR
STARTCHAR 0076
ENCODING 118
SWIDTH 765 0
DWIDTH 17 0
BBX 15 14 1 -2
BITMAP
E00E
701C
701C
701C
3838
3838
3C78
1C70
1C70
1EE0
0EE0
0EE0
07C0
07C0
ENDCHAR
STARTCHAR 0077
ENCODING 119
SWIDTH 945 0
DWIDTH 21 0
BBX 19 14 1 -2
BITMAP
E0E0E0
70F0E0
70F0E0
70F1C0
71F1C0
39F1C0
39F9C0
39FB80
3BBB80
3FBB80
1F9F80
1F9F80
1F9F00
1F1F00
ENDCHAR
STARTCHAR 0078
ENCODING 120
SWIDTH 765 0
DWIDTH 17 0
BBX 13 14 2 -2
BITMAP
E038
7070
78F0
3DE0
1DC0
0F80
0F80
0F80
1FC0
1DC0
3DE0
78F0
F078
E038
ENDCHAR
STARTCHAR 0079
ENCODING 121
SWIDTH 720 0
DWIDTH 16 0
BBX 14 21 1 -9
BITMAP
F01C
701C
7838
3838
3870
1C70
1CF0
0EE0
0EE0
07C0
07C0
0780
0380
0700
0700
0F00
0E00
1E00
1C00
1C00
3800
ENDCHAR
STARTCHAR 007A
ENCODING 122
SWIDTH 765 0
DWIDTH 17 0
BBX 14 14 2 -2
BITMAP
7FF8
FFF8
FFF8
00F0
01E0
03C0
0780
0F00
1E00
3C00
7800
FFFC
FFF8
FFF8
ENDCHAR
STARTCHAR 007B
ENCODING 123
SWIDTH 450 0
DWIDTH 10 0
BBX 7 22 1 -4
BITMAP
3E
3E
3E
38
38
38
38
38
38
F8
F8
F8
38
38
38
38
38
38
38
3E
3E
3E
ENDCHAR
STARTCHAR 007C
ENCODING 124
SWIDTH 225 0
DWIDTH 5 0
BBX 3 22 1 -2
BITMAP
E0
E0
E0
E0
E0
E0
E0
E0
E0
E0
E0
E0
E0
E0
E0
E0
E0
E0
E0
E0
E0
E0
ENDCHAR
STARTCHAR 007D
ENCODING 125
SWIDTH 450 0
DWIDTH 10 0
BBX 8 22 1 -4
BITMAP
FC
FC
FC
1C
1C
1C
1C
1C
1C
1F
1F
1F
1C
1C
1C
1C
1C
1C
1C
FC
FC
FC
ENDCHAR
STARTCHAR 007E
ENCODING 126
SWIDTH 585 0
DWIDTH 13 0
BBX 11 4 1 5
BITMAP
3820
FFE0
FFE0
C780
ENDCHAR
STARTCHAR 00A0
ENCODING 160
SWIDTH 270 0
DWIDTH 6 0
BBX 0 0 0 0
BITMAP
ENDCHAR
STARTCHAR 00A5
ENCODING 165
SWIDTH 765 0
DWIDTH 17 0
BBX 15 20 1 -2
BITMAP
701C
703C
3838
3C70
1C70
0EE0
0FE0
7FFE
7FFC
FFFC
0380
0380
7FFE
7FFC
FFFC
0380
0380
0380
0380
0380
ENDCHAR
STARTCHAR 00A9
ENCODING 169
SWIDTH 990 0
DWIDTH 22 0
BBX 18 20 2 -2
BITMAP
FFFFC0
FFFFC0
FFFFC0
E001C0
E001C0
EFFDC0
EFF9C0
EFF9C0
EE01C0
EE01C0
EE01C0
EE01C0
EE01C0
EFFDC0
EFF9C0
EFF9C0
E001C0
FFFFC0
EFFFC0
EFFFC0
ENDCHAR
STARTCHAR 00B0
ENCODING 176
SWIDTH 315 0
DWIDTH 7 0
BBX 5 5 1 13
BITMAP
F8
F8
D8
F8
F8
ENDCHAR
STARTCHAR 00B7
ENCODING 183
SWIDTH 1035 0
DWIDTH 23 0
BBX 3 4 10 3
BITMAP
E0
E0
E0
E0
ENDCHAR
STARTCHAR 2014
ENCODING 8212
SWIDTH 990 0
DWIDTH 22 0
BBX 19 3 2 4
BITMAP
7FFFE0
FFFFC0
FFFFC0
ENDCHAR
STARTCHAR 2018
ENCODING 8216
SWIDTH 990 0
DWIDTH 22 0
BBX 3 4 18 16
BITMAP
E0
E0
E0
E0
ENDCHAR
STARTCHAR 2019
ENCODING 8217
SWIDTH 990 0
DWIDTH 22 0
BBX 3 4 1 16
BITMAP
60
E0
E0
E0
ENDCHAR
STARTCHAR 201C
ENCODING 8220
SWIDTH 990 0
DWIDTH 22 0
BBX 7 4 14 16
BITMAP
6E
EE
EE
EE
ENDCHAR
STARTCHAR 201D
ENCODING 8221
SWIDTH 990 0
DWIDTH 22 0
BBX 8 4 1 16
BITMAP
77
66
EE
EE
ENDCHAR
STARTCHAR 2022
ENCODING 8226
SWIDTH 1035 0
DWIDTH 23 0
BBX 3 4 10 3
BITMAP
E0
E0
E0
E0
ENDCHAR
STARTCHAR 2026
ENCODING 8230
SWIDTH 945 0
DWIDTH 21 0
BBX 17 4 2 3
BITMAP
E1C380
E1C380
E1C380
E1C380
ENDCHAR
STARTCHAR 205D
ENCODING 8285
SWIDTH 990 0
DWIDTH 22 0
BBX 4 18 6 0
BITMAP
F0
F0
F0
00
00
00
00
00
F0
F0
F0
00
00
00
00
F0
F0
F0
ENDCHAR
STARTCHAR 20AC
ENCODING 8364
SWIDTH 855 0
DWIDTH 19 0
BBX 17 20 1 -2
BITMAP
1FFF00
1FFF00
1FFF00
1C0000
1C0000
1C0000
7FFF00
FFFE00
FFFE00
1C0000
1C0000
1C0000
7FFF00
FFFE00
FFFE00
1C0000
1C0000
1FFF80
1FFF00
1FFF00
ENDCHAR
STARTCHAR 2122
ENCODING 8482
SWIDTH 1080 0
DWIDTH 24 0
BBX 21 9 1 9
BITMAP
7F7FF8
7F7FF8
FF7FF8
1C73B8
1C73B8
1C73B8
1C73B8
1C73B8
1C73B8
ENDCHAR
STARTCHAR 22EF
ENCODING 8943
SWIDTH 945 0
DWIDTH 21 0
BBX 17 4 2 3
BITMAP
E1C380
E1C380
E1C380
E1C380
ENDCHAR
STARTCHAR 2F00
ENCODING 12032
SWIDTH 990 0
DWIDTH 22 0
BBX 18 3 2 8
BITMAP
7FFFC0
7FFFC0
FFFF80
ENDCHAR
STARTCHAR 2F01
ENCODING 12033
SWIDTH 1035 0
DWIDTH 23 0
BBX 3 21 10 -2
BITMAP
E0
E0
E0
E0
E0
E0
E0
E0
E0
E0
E0
E0
E0
E0
E0
E0
E0
E0
E0
E0
E0
ENDCHAR
STARTCHAR 2F02
ENCODING 12034
SWIDTH 1035 0
DWIDTH 23 0
BBX 3 9 10 6
BITMAP
C0
E0
E0
E0
E0
E0
E0
E0
E0
ENDCHAR
STARTCHAR 2F03
ENCODING 12035
SWIDTH 990 0
DWIDTH 22 0
BBX 5 21 9 -2
BITMAP
38
38
38
38
38
38
38
38
38
38
38
38
30
70
70
70
70
E0
E0
E0
E0
ENDCHAR
STARTCHAR 2F04
ENCODING 12036
SWIDTH 1035 0
DWIDTH 23 0
BBX 19 20 2 -2
BITMAP
7FFF80
7FFF80
7FFF80
000F00
000E00
001E00
003C00
007800
00F000
01E000
03C000
078000
0F0000
1F0000
3E0000
3C0000
780000
FFFFC0
FFFFC0
FFFFE0
ENDCHAR
STARTCHAR 2F06
ENCODING 12038
SWIDTH 990 0
DWIDTH 22 0
BBX 18 17 2 0
BITMAP
3FFF80
3FFF80
7FFF00
000000
000000
000000
000000
000000
000000
000000
000000
000000
000000
000000
7FFFC0
7FFFC0
FFFF80
ENDCHAR
STARTCHAR 2F07
ENCODING 12039
SWIDTH 1035 0
DWIDTH 23 0
BBX 19 6 2 14
BITMAP
008000
00E000
00E000
7FFFE0
FFFFE0
FFFFC0
ENDCHAR
STARTCHAR 2F08
ENCODING 12040
SWIDTH 1035 0
DWIDTH 23 0
BBX 17 21 3 -2
BITMAP
01C000
01C000
01C000
01C000
01C000
01C000
01C000
01C000
01C000
03C000
03E000
077000
077000
0E3800
1E3C00
1C1C00
380E00
380E00
700700
F00780
E00380
ENDCHAR
STARTCHAR 2F09
ENCODING 12041
SWIDTH 990 0
DWIDTH 22 0
BBX 18 20 2 -2
BITMAP
1C1C00
1C1C00
1C1C00
1C1C00
3C1C00
381C00
381C00
381C00
381C00
381C00
381C00
381C00
701C00
701C00
701C00
701C00
701C00
701F80
701FC0
E01FC0
ENDCHAR
STARTCHAR 2F0A
ENCODING 12042
SWIDTH 990 0
DWIDTH 22 0
BBX 18 21 2 -2
BITMAP
038000
01C000
01C000
01E000
00E000
00F000
01F000
03F800
03B800
07B800
071C00
0F1C00
0E0E00
1E0E00
1C0F00
3C0700
380780
780380
700380
F001C0
E001C0
ENDCHAR
STARTCHAR 2F0B
ENCODING 12043
SWIDTH 990 0
DWIDTH 22 0
BBX 18 20 2 -2
BITMAP
0E1C00
0E1C00
0E0E00
1C0E00
1C0E00
1C0E00
1C0E00
1C0700
380700
380700
380700
380700
380380
700380
700380
700380
7001C0
E001C0
E001C0
E001C0
ENDCHAR
STARTCHAR 2F0C
ENCODING 12044
SWIDTH 990 0
DWIDTH 22 0
BBX 18 20 2 -2
BITMAP
FFFFC0
FFFFC0
FFFFC0
E001C0
E001C0
E001C0
E001C0
E001C0
E001C0
E001C0
E001C0
E001C0
E001C0
E001C0
E001C0
E001C0
E001C0
E00FC0
E00FC0
E007C0
ENDCHAR
STARTCHAR 2F0D
ENCODING 12045
SWIDTH 990 0
DWIDTH 22 0
BBX 18 7 2 12
BITMAP
FFFFC0
FFFFC0
FFFFC0
E001C0
E001C0
E001C0
E001C0
ENDCHAR
STARTCHAR 2F0E
ENCODING 12046
SWIDTH 990 0
DWIDTH 22 0
BBX 3 19 1 -1
BITMAP
C0
E0
E0
E0
E0
E0
E0
00
00
00
C0
E0
E0
E0
E0
E0
E0
E0
E0
ENDCHAR
STARTCHAR 2F0F
ENCODING 12047
SWIDTH 1035 0
DWIDTH 23 0
BBX 19 20 2 -2
BITMAP
3FFF00
3FFF00
3FFF00
380700
380700
380700
380700
380700
380700
380700
380700
300700
700700
700700
700700
700700
600700
E007C0
E007C0
E007E0
ENDCHAR
STARTCHAR 2F10
ENCODING 12048
SWIDTH 945 0
DWIDTH 21 0
BBX 17 20 2 -2
BITMAP
E00380
E00380
E00380
E00380
E00380
E00380
E00380
E00380
E00380
E00380
E00380
E00380
E00380
E00380
E00380
E00380
E00380
FFFF80
FFFF80
FFFF80
ENDCHAR
STARTCHAR 2F11
ENCODING 12049
SWIDTH 990 0
DWIDTH 22 0
BBX 17 20 3 -2
BITMAP
7FFF80
FFFF80
FFFF80
0E0380
0E0380
1E0380
1C0380
1C0380
1C0380
3C0380
380380
380380
380380
780380
700380
700380
700380
F03F80
E01F80
E01F80
ENDCHAR
STARTCHAR 2F12
ENCODING 12050
SWIDTH 990 0
DWIDTH 22 0
BBX 17 21 3 -2
BITMAP
078000
070000
070000
070000
7FFF80
FFFF80
FFFF80
0E0380
1E0380
1C0380
1C0380
1C0380
380380
380380
380380
380380
700380
700380
703F80
F01F80
E01F80
ENDCHAR
STARTCHAR 2F13
ENCODING 12051
SWIDTH 945 0
DWIDTH 21 0
BBX 17 20 2 -1
BITMAP
C00000
E00000
FFFF80
FFFF80
FFFF80
E00380
000380
000380
000380
000380
000380
000380
000380
000380
000380
000380
000380
001F80
001F80
000F80
ENDCHAR
STARTCHAR 2F14
ENCODING 12052
SWIDTH 990 0
DWIDTH 22 0
BBX 16 20 3 -2
BITMAP
E000
E000
E000
E006
E03E
E0FE
E7F8
EFC0
EF00
E800
E000
E000
E000
E000
E000
E000
E000
FFFE
FFFF
FFFF
ENDCHAR
STARTCHAR 2F15
ENCODING 12053
SWIDTH 990 0
DWIDTH 22 0
BBX 18 20 2 -2
BITMAP
FFFFC0
FFFFC0
FFFFC0
E00000
E00000
E00000
E00000
E00000
E00000
E00000
E00000
E00000
E00000
E00000
E00000
E00000
E00000
FFFFC0
FFFFC0
FFFFC0
ENDCHAR
STARTCHAR 2F17
ENCODING 12055
SWIDTH 1035 0
DWIDTH 23 0
BBX 19 21 2 -2
BITMAP
00E000
00E000
00E000
00E000
00E000
00E000
00E000
7FFFE0
7FFFC0
FFFF80
00E000
00E000
00E000
00E000
00E000
00E000
00E000
00E000
00E000
00E000
00E000
ENDCHAR
STARTCHAR 2F18
ENCODING 12056
SWIDTH 990 0
DWIDTH 22 0
BBX 11 21 8 -2
BITMAP
E000
E000
E000
E000
E000
E700
E700
E700
E300
E380
E380
E180
E1C0
E1C0
E0C0
E0E0
E000
E000
E000
E000
E000
ENDCHAR
STARTCHAR 2F19
ENCODING 12057
SWIDTH 990 0
DWIDTH 22 0
BBX 8 20 13 -2
BITMAP
FF
FF
FF
E7
E7
E7
E7
E7
E7
E7
E7
E7
E7
EF
EF
EF
E0
E0
E0
E0
ENDCHAR
STARTCHAR 2F1A
ENCODING 12058
SWIDTH 990 0
DWIDTH 22 0
BBX 18 20 2 -2
BITMAP
FFFFC0
FFFF80
FFFF80
E00000
E00000
E00000
E00000
E00000
E00000
E00000
E00000
E00000
E00000
E00000
E00000
E00000
E00000
E00000
E00000
E00000
ENDCHAR
STARTCHAR 2F1B
ENCODING 12059
SWIDTH 1035 0
DWIDTH 23 0
BBX 17 21 3 -2
BITMAP
0E0000
0E0000
0E0000
0E0000
1E0000
1C0000
1C0000
1C0000
1C0000
3C0000
380000
380200
380380
380380
780380
700380
700380
700380
7FFF80
FFFF80
FFFF80
ENDCHAR
STARTCHAR 2F1C
ENCODING 12060
SWIDTH 990 0
DWIDTH 22 0
BBX 16 20 3 -2
BITMAP
7FFE
7FFE
FFFE
000E
700E
700E
700E
700E
700E
781E
3C3C
1EF8
0FF0
07E0
07E0
0FF0
1E78
3C3C
781E
F00F
ENDCHAR
STARTCHAR 2F1D
ENCODING 12061
SWIDTH 990 0
DWIDTH 22 0
BBX 16 18 3 -1
BITMAP
FFFF
FFFF
FFFF
E007
E007
E007
E007
E007
E007
E007
E007
E007
E007
E007
E007
FFFF
EFFF
EFFF
ENDCHAR
STARTCHAR 2F1E
ENCODING 12062
SWIDTH 990 0
DWIDTH 22 0
BBX 18 20 2 -2
BITMAP
FFFFC0
FFFFC0
FFFFC0
E001C0
E001C0
E001C0
E001C0
E001C0
E001C0
E001C0
E001C0
E001C0
E001C0
E001C0
E001C0
E001C0
E001C0
FFFFC0
EFFFC0
EFFFC0
ENDCHAR
STARTCHAR 2F1F
ENCODING 12063
SWIDTH 990 0
DWIDTH 22 0
BBX 18 21 2 -2
BITMAP
01C000
01C000
01C000
01C000
01C000
01C000
01C000
7FFF80
7FFF80
7FFF80
01C000
01C000
01C000
01C000
01C000
01C000
01C000
01C000
7FFFC0
FFFFC0
FFFF80
ENDCHAR
STARTCHAR 2F20
ENCODING 12064
SWIDTH 1035 0
DWIDTH 23 0
BBX 19 21 2 -2
BITMAP
00E000
00E000
00E000
00E000
00E000
00E000
7FFFE0
7FFFC0
FFFFC0
00E000
00E000
00E000
00E000
00E000
00E000
00E000
00E000
00E000
3FFFC0
3FFF80
7FFF80
ENDCHAR
STARTCHAR 2F21
ENCODING 12065
SWIDTH 990 0
DWIDTH 22 0
BBX 16 21 3 -2
BITMAP
7000
7000
7FFE
7FFE
FFFE
E00E
E00E
000E
700E
700E
700E
7C3E
3E7C
1FF8
0FE0
03C0
0FF0
1FF8
3E7C
783E
F00F
ENDCHAR
STARTCHAR 2F23
ENCODING 12067
SWIDTH 1035 0
DWIDTH 23 0
BBX 15 21 4 -1
BITMAP
C000
E000
FFFE
FFFE
FFFE
E00E
E00E
E60E
070E
070E
070E
070E
071E
007C
00F8
01F0
03E0
0F80
1F00
3E00
7C00
ENDCHAR
STARTCHAR 2F24
ENCODING 12068
SWIDTH 1035 0
DWIDTH 23 0
BBX 18 20 3 -2
BITMAP
01C000
01C000
01C000
01C000
7FFFC0
FFFF80
FFFF80
078000
070000
0F7800
0E3800
1E3800
1C1C00
1C1C00
380E00
380E00
700700
700700
E00380
E00380
ENDCHAR
STARTCHAR 2F25
ENCODING 12069
SWIDTH 990 0
DWIDTH 22 0
BBX 18 21 2 -3
BITMAP
1C0000
1C0000
1C0000
7FFFC0
FFFFC0
FFFFC0
1C0700
1C0700
1C0700
1C0700
1C0700
1E0F00
1F3F00
0FFE00
03F800
07FC00
1FBF00
7E0F80
F807C0
E001C0
800040
ENDCHAR
STARTCHAR 2F26
ENCODING 12070
SWIDTH 990 0
DWIDTH 22 0
BBX 19 20 2 -2
BITMAP
1FFF00
1FFF00
3FFE00
001C00
001C00
003800
007000
7FFFE0
7FFFC0
FFFF80
00E000
00E000
00E000
00E000
00E000
00E000
00E000
07E000
07E000
03E000
ENDCHAR
STARTCHAR 2F27
ENCODING 12071
SWIDTH 945 0
DWIDTH 21 0
BBX 17 7 2 13
BITMAP
010000
01C000
FFFF80
FFFF80
FFFF80
E00380
E00380
ENDCHAR
STARTCHAR 2F28
ENCODING 12072
SWIDTH 990 0
DWIDTH 22 0
BBX 17 21 3 -2
BITMAP
003800
003800
003800
7FFF80
FFFF00
FFFF00
003800
003800
103800
1C3800
1C3800
1C3800
1C3800
1C3800
1C3800
003800
003800
003800
03F800
01F800
01F800
ENDCHAR
STARTCHAR 2F29
ENCODING 12073
SWIDTH 1035 0
DWIDTH 23 0
BBX 19 21 2 -2
BITMAP
00E000
00E000
00E000
00E000
38E380
38E380
38E380
30E380
70E180
70E1C0
70E1C0
70E1C0
70E1C0
E0E1C0
E0E0C0
E0E0E0
00E000
00E000
07E000
03E000
03E000
ENDCHAR
STARTCHAR 2F2A
ENCODING 12074
SWIDTH 990 0
DWIDTH 22 0
BBX 19 20 2 -1
BITMAP
038000
038000
038000
030000
7FFFE0
FFFFC0
FFFFC0
0E1C00
0E1C00
0E1C00
1C1C00
1C1C00
1C1C00
381C00
381C00
381C00
381C00
701FC0
701FC0
701FE0
ENDCHAR
STARTCHAR 2F2B
ENCODING 12075
SWIDTH 990 0
DWIDTH 22 0
BBX 17 20 2 -2
BITMAP
FFFF80
FFFF80
FFFF80
E00380
E00380
E00380
FFFF80
EFFF80
EFFF80
E00000
E00000
E00000
E00000
E00000
E00000
E00000
E00000
E00000
E00000
E00000
ENDCHAR
STARTCHAR 2F2C
ENCODING 12076
SWIDTH 990 0
DWIDTH 22 0
BBX 17 21 2 -2
BITMAP
01C000
01C000
01C000
01C000
E1C380
E1C380
E1C380
E1C380
E1C380
E1C380
E1C380
FFFF80
FFFF80
FFFF80
01C000
01C000
01C000
01C000
01C000
01C000
01C000
ENDCHAR
STARTCHAR 2F2D
ENCODING 12077
SWIDTH 1035 0
DWIDTH 23 0
BBX 17 20 3 -2
BITMAP
01C000
01C000
01C000
01C000
01C000
E1C380
E1C380
E1C380
E1C380
E1C380
E1C380
E1C380
E1C380
E1C380
E1C380
E1C380
E1C380
FFFF80
FFFF80
FFFF80
ENDCHAR
STARTCHAR 2F2E
ENCODING 12078
SWIDTH 990 0
DWIDTH 22 0
BBX 18 20 2 -2
BITMAP
1C71C0
38E1C0
38E380
38E380
38E380
71C700
71C700
71C700
E38700
E38E00
E38E00
61C700
71C700
71C700
71C380
38E380
38E380
38E380
1C71C0
1C71C0
ENDCHAR
STARTCHAR 2F2F
ENCODING 12079
SWIDTH 1035 0
DWIDTH 23 0
BBX 19 19 2 -1
BITMAP
3FFFC0
3FFF80
7FFF80
00E000
00E000
00E000
00E000
00E000
00E000
00E000
00E000
00E000
00E000
00E000
00E000
00E000
3FFFE0
7FFFC0
FFFF80
ENDCHAR
STARTCHAR 2F30
ENCODING 12080
SWIDTH 990 0
DWIDTH 22 0
BBX 17 20 2 -2
BITMAP
7FFF00
7FFF00
FFFF00
000700
000700
000700
000700
000700
7FFF00
7FFF00
7FFF00
700000
700000
700000
700000
700000
700000
7FFF00
7FFF80
7FFF80
ENDCHAR
STARTCHAR 2F31
ENCODING 12081
SWIDTH 1035 0
DWIDTH 23 0
BBX 17 21 3 -2
BITMAP
01C000
01C000
01C000
01C000
FFFF80
FFFF80
FFFF80
E1C380
E1C380
E1C380
E1C380
E1C380
E1C380
E1C380
E1C380
E1CF80
E1CF80
E1C780
01C000
01C000
01C000
ENDCHAR
STARTCHAR 2F32
ENCODING 12082
SWIDTH 945 0
DWIDTH 21 0
BBX 19 20 1 -2
BITMAP
3FFF80
3FFF80
3FFF80
00E000
00E000
00E000
00E000
00E000
7FFFE0
7FFFC0
FFFFC0
00E000
00E000
00E000
00E000
00E000
00E000
00E000
00E000
00E000
ENDCHAR
STARTCHAR 2F33
ENCODING 12083
SWIDTH 1035 0
DWIDTH 23 0
BBX 17 21 3 -2
BITMAP
0E0000
0E0000
1E0000
1C0000
1C0000
3C0000
380000
780000
7FFF80
7FFF00
FFFF00
1E0000
1C0000
1C0000
3C0000
380300
380380
780380
7FFF80
7FFF80
FFFF80
ENDCHAR
STARTCHAR 2F34
ENCODING 12084
SWIDTH 990 0
DWIDTH 22 0
BBX 17 21 2 -1
BITMAP
01C000
01C000
FFFF80
FFFF80
FFFF80
E00000
E00000
E00000
E00000
E00000
E00000
E00000
E00000
E00000
E00000
E00000
E00000
E00000
E00000
E00000
E00000
ENDCHAR
STARTCHAR 2F35
ENCODING 12085
SWIDTH 1035 0
DWIDTH 23 0
BBX 20 20 2 -2
BITMAP
7C0000
7C0000
FC0000
1C0000
380000
380000
700000
7E0000
7E0000
7E0000
1E0000
1C0000
DC0000
F80000
F80000
780000
3E0000
7FFFF0
77FFF0
63FFE0
ENDCHAR
STARTCHAR 2F36
ENCODING 12086
SWIDTH 990 0
DWIDTH 22 0
BBX 18 21 2 -2
BITMAP
0E0E00
0E0E00
0E0E00
0C0E00
1C0E00
1C0E00
1C0E00
7FFFC0
FFFFC0
FFFF80
1C0E00
1C0E00
1C0E00
1C0E00
1C0E00
180E00
380E00
380E00
380E00
380E00
380E00
ENDCHAR
STARTCHAR 2F37
ENCODING 12087
SWIDTH 1035 0
DWIDTH 23 0
BBX 19 21 2 -2
BITMAP
038400
038700
03C700
01C700
01C000
01E3E0
00FFE0
3FFFE0
FFF800
FE7000
807000
007800
003800
003800
003C00
001C00
001C00
001E00
000FC0
000FE0
000FE0
ENDCHAR
STARTCHAR 2F38
ENCODING 12088
SWIDTH 1035 0
DWIDTH 23 0
BBX 17 20 3 -2
BITMAP
7FFF00
7FFF00
FFFF00
000700
000700
7FFF00
7FFF00
7FFF00
700000
700000
700000
7FFF80
7FFF80
7FFF80
000380
000380
000380
03FF80
03FF80
01FF80
ENDCHAR
STARTCHAR 2F39
ENCODING 12089
SWIDTH 1035 0
DWIDTH 23 0
BBX 17 20 3 -2
BITMAP
7FFF80
7FFF80
FFFF80
000380
000380
000380
000380
000380
000380
7FFF80
7FFF80
7FFF80
000380
000380
000380
000380
000380
7FFF80
7FFF80
FFFF80
ENDCHAR
STARTCHAR 2F3A
ENCODING 12090
SWIDTH 990 0
DWIDTH 22 0
BBX 14 21 4 -2
BITMAP
0004
007C
07FC
7FF8
FFC0
FC00
C000
0004
007C
07FC
7FF8
FF80
F800
8000
000C
00FC
0FFC
FFF8
FF80
F800
8000
ENDCHAR
STARTCHAR 2F3B
ENCODING 12091
SWIDTH 990 0
DWIDTH 22 0
BBX 6 21 1 -2
BITMAP
1C
38
38
70
70
F0
FC
38
38
70
70
F8
38
38
38
38
38
38
38
38
38
ENDCHAR
STARTCHAR 2F3C
ENCODING 12092
SWIDTH 990 0
DWIDTH 22 0
BBX 18 21 2 -2
BITMAP
002000
003000
073800
073800
073800
873900
C73980
E739C0
E739C0
E739C0
E739C0
E739C0
E739C0
E701C0
E701C0
E701C0
E701C0
E701C0
07FC00
07FE00
07FE00
ENDCHAR
STARTCHAR 2F3D
ENCODING 12093
SWIDTH 990 0
DWIDTH 22 0
BBX 18 21 2 -2
BITMAP
0E1000
0E1C00
0E1C00
0F1C00
070180
077F80
3FFF80
FFF800
FF8000
838000
01C180
01CF80
01FF80
01FE00
07F000
3FE000
FE7000
F87000
C07F80
003F80
003FC0
ENDCHAR
STARTCHAR 2F3F
ENCODING 12095
SWIDTH 990 0
DWIDTH 22 0
BBX 18 20 2 -2
BITMAP
3FFF80
7FFF80
7FFF00
00E000
00E000
3FFF00
3FFF00
3FFF00
00E000
00E000
00E000
FFFFC0
FFFFC0
FFFFC0
00E000
00E000
00E000
0FE000
07E000
07E000
ENDCHAR
STARTCHAR 2F40
ENCODING 12096
SWIDTH 990 0
DWIDTH 22 0
BBX 18 21 2 -2
BITMAP
01C000
01C000
7FFFC0
FFFFC0
FFFF80
01C000
01C000
3FFF00
3FFF00
7FFF00
000700
380700
380700
3E1F00
3FFF00
0FF800
0FFC00
7F7F80
FC0FC0
F003C0
800040
ENDCHAR
STARTCHAR 2F41
ENCODING 12097
SWIDTH 990 0
DWIDTH 22 0
BBX 18 21 2 -3
BITMAP
01C000
01C000
01FFC0
01FFC0
01FF80
01C000
01C000
3FFF00
7FFF00
7FFF00
000700
380700
380700
3C0F00
3F7F00
1FFC00
07F800
3FFF00
FE3FC0
F807C0
C001C0
ENDCHAR
STARTCHAR 2F42
ENCODING 12098
SWIDTH 1035 0
DWIDTH 23 0
BBX 19 21 2 -1
BITMAP
00C000
00E000
7FFFE0
7FFFE0
FFFFC0
1C0700
1C0700
1C0700
1C0700
1C0700
1C0700
1E1F00
0FBE00
07FC00
03F800
0FFE00
3F1F00
7C0FC0
F803E0
E000E0
800020
ENDCHAR
STARTCHAR 2F43
ENCODING 12099
SWIDTH 1035 0
DWIDTH 23 0
BBX 17 21 3 -2
BITMAP
003800
183800
1C3800
1C3800
1C3800
003800
003800
1C3800
1C3800
1C3800
1C3800
003800
003F80
FFFF80
FFFF80
FFF800
003800
003800
003800
003800
003800
ENDCHAR
STARTCHAR 2F44
ENCODING 12100
SWIDTH 990 0
DWIDTH 22 0
BBX 17 20 3 -2
BITMAP
FFFE00
FFFE00
FFFE00
E00000
E00000
E00000
E00000
FFFF80
FFFF00
FFFF00
E07000
E07000
E07000
E07000
E07000
E07000
E07000
E07000
E07000
E07000
ENDCHAR
STARTCHAR 2F45
ENCODING 12101
SWIDTH 1035 0
DWIDTH 23 0
BBX 19 21 2 -1
BITMAP
00C000
00E000
7FFFE0
FFFFC0
FFFFC0
0E0000
0C0000
1C0000
1FFF80
1FFF80
1FFF80
1C0380
1C0380
380380
380380
380380
380380
380380
383F80
301F80
701F80
ENDCHAR
STARTCHAR 2F46
ENCODING 12102
SWIDTH 990 0
DWIDTH 22 0
BBX 18 20 2 -2
BITMAP
3FFF80
7FFF00
7FFF00
01C000
01C000
01C000
01C000
7FFFC0
7FFFC0
FFFF80
038000
073800
0F3800
0E3800
1E3800
1C3800
383800
383F80
703FC0
F03FC0
ENDCHAR
STARTCHAR 2F47
ENCODING 12103
SWIDTH 1035 0
DWIDTH 23 0
BBX 15 20 4 -2
BITMAP
FFFE
FFFE
FFFE
E00E
E00E
E00E
E00E
E00E
E00E
FFFE
FFFE
FFFE
E00E
E00E
E00E
E00E
E00E
FFFE
EFFE
EFFE
ENDCHAR
STARTCHAR 2F48
ENCODING 12104
SWIDTH 990 0
DWIDTH 22 0
BBX 16 20 3 -2
BITMAP
FFFF
FFFF
FFFF
E007
E007
E007
E007
E007
E007
FFF7
FFF7
FFE7
E007
E007
E007
E007
E007
FFFF
EFFF
EFFF
ENDCHAR
STARTCHAR 2F49
ENCODING 12105
SWIDTH 1035 0
DWIDTH 23 0
BBX 15 20 4 -2
BITMAP
FFFE
FFFE
FFFE
E00E
E00E
FFFE
FFFE
FFFE
E00E
E00E
E00E
FFFE
FFFE
FFFE
E00E
E00E
E00E
E1FE
E0FE
E0FE
ENDCHAR
STARTCHAR 2F4A
ENCODING 12106
SWIDTH 1035 0
DWIDTH 23 0
BBX 18 21 2 -2
BITMAP
00E000
00E000
00E000
00E000
7FFFC0
7FFFC0
FFFFC0
00E000
00E000
18E700
38E700
38E300
38E380
38E380
38E380
30E380
70E380
70E180
70E1C0
70E1C0
70E1C0
ENDCHAR
STARTCHAR 2F4B
ENCODING 12107
SWIDTH 990 0
DWIDTH 22 0
BBX 17 21 3 -1
BITMAP
380000
300000
7FFF80
7FFF00
7FFF00
700700
E00700
E1C700
E3C600
038E00
070000
07E000
0EE000
0E7000
1C7000
1C3800
383C00
381C00
700E00
F00E00
E00700
ENDCHAR
STARTCHAR 2F4C
ENCODING 12108
SWIDTH 1035 0
DWIDTH 23 0
BBX 19 21 2 -2
BITMAP
007000
007000
007000
007000
1C7000
1C7000
1C7000
1C7FC0
1C7FC0
1C7F80
1C7000
1C7000
1C7000
1C7000
1C7000
1C7000
1C7000
1C7000
7FFFE0
7FFFC0
FFFFC0
ENDCHAR
STARTCHAR 2F4D
ENCODING 12109
SWIDTH 1035 0
DWIDTH 23 0
BBX 19 20 2 -3
BITMAP
7FFFE0
7FFFC0
FFFFC0
1C0000
1C0000
1FFF80
1FFF80
3FFF80
380380
39C380
71C380
01C380
01C380
01C780
003F80
01FE00
0FF800
3FC000
3E0000
380000
ENDCHAR
STARTCHAR 2F4E
ENCODING 12110
SWIDTH 990 0
DWIDTH 22 0
BBX 18 20 2 -3
BITMAP
3FFE00
3FFE00
3FFE00
380E00
380E00
700F80
700FC0
E00FC0
000000
3FFF00
3FFF00
3FFF00
380700
3E1F00
3FFF00
07F800
3FFF00
FE3FC0
F807C0
C000C0
ENDCHAR
STARTCHAR 2F4F
ENCODING 12111
SWIDTH 945 0
DWIDTH 21 0
BBX 19 20 1 -2
BITMAP
1FFF00
1FFF00
1FFF00
1CE700
1CE700
1CE700
7FFFE0
FFFFC0
FFFFC0
1CE700
1CE700
1CE700
1CE700
1FFFE0
1FFFC0
1FFFC0
038700
07BF00
071F00
0E1F00
ENDCHAR
STARTCHAR 2F50
ENCODING 12112
SWIDTH 990 0
DWIDTH 22 0
BBX 18 20 2 -2
BITMAP
E07000
E07000
E07000
E07000
E07000
E07180
FF7F80
FF7F80
FE7800
E07000
E07000
E07000
E07000
E07000
E07000
E07000
E07000
FE7F80
FF7F80
FF7FC0
ENDCHAR
STARTCHAR 2F51
ENCODING 12113
SWIDTH 990 0
DWIDTH 22 0
BBX 18 20 2 -2
BITMAP
7FFFC0
7FFF80
FFFF80
01C000
01C000
01FF00
3FFF00
3FFF00
3FC000
01C000
01C000
01FFC0
FFFFC0
FFFFC0
FFC000
01C000
01C000
01FF80
01FFC0
01FFC0
ENDCHAR
STARTCHAR 2F52
ENCODING 12114
SWIDTH 1035 0
DWIDTH 23 0
BBX 17 20 3 -2
BITMAP
FFFF80
FFFF00
FFFE00
E0E000
E0E000
E06000
E07000
FFFF00
FFFF00
FFFE00
E07000
E07000
E07000
E07000
E03800
E03800
E03800
FE3F00
FE3F00
FF3F80
ENDCHAR
STARTCHAR 2F53
ENCODING 12115
SWIDTH 990 0
DWIDTH 22 0
BBX 18 21 2 -1
BITMAP
E00000
FFFF80
FFFF00
FFFF00
E00000
EFFE00
EFFE00
EFFE00
000000
7FFE00
FFFE00
FFFE00
000E00
000E00
000E00
000E00
000E00
000E00
000F80
000F80
000FC0
ENDCHAR
STARTCHAR 2F54
ENCODING 12116
SWIDTH 990 0
DWIDTH 22 0
BBX 19 21 2 -1
BITMAP
00E000
00E000
00E000
00F800
7EFC00
7EFFC0
FEFFC0
0CEF80
1CEE00
1CEE00
18E600
38E700
38E700
38E300
70E380
70E380
70E3C0
60E1C0
E7E1C0
E7E1E0
03E000
ENDCHAR
STARTCHAR 2F55
ENCODING 12117
SWIDTH 1035 0
DWIDTH 23 0
BBX 17 21 3 -2
BITMAP
01C000
01C000
01C000
41C600
71C700
71C700
71C700
71C700
71C700
71C700
71C700
71C700
03E000
07F000
0F7800
0E3800
1C1C00
380E00
780700
700780
E00380
ENDCHAR
STARTCHAR 2F56
ENCODING 12118
SWIDTH 990 0
DWIDTH 22 0
BBX 17 20 2 -2
BITMAP
FFFF80
FFFF80
FFFF00
E38E00
E38E00
E38E00
E38E00
E38E00
E38E00
E38E00
E38600
E38700
E38700
E38700
E38700
E38700
E38700
E38700
E38300
E38380
ENDCHAR
STARTCHAR 2F57
ENCODING 12119
SWIDTH 990 0
DWIDTH 22 0
BBX 18 20 2 -2
BITMAP
0E0E00
1C0E00
1C0E00
380700
380700
700380
7E1F80
7F3DC0
07F800
03F000
01E000
01E000
03F000
07F800
073C00
0E1C00
1C0E00
3C0700
780780
F003C0
ENDCHAR
STARTCHAR 2F58
ENCODING 12120
SWIDTH 945 0
DWIDTH 21 0
BBX 17 21 2 -2
BITMAP
200100
380700
3E1F00
1FFE00
07F800
07F800
3F3E00
FC1F80
F00780
C00180
1E1E00
0F3C00
07F800
03F000
01E000
03F000
0FF800
1E1C00
3C0E00
780700
F00380
ENDCHAR
STARTCHAR 2F59
ENCODING 12121
SWIDTH 990 0
DWIDTH 22 0
BBX 15 21 4 -2
BITMAP
000E
700E
700E
700E
700E
7FFE
7FFE
7FFE
000E
000E
FFFE
FFFE
FFFE
380E
380E
700E
700E
700E
700E
600E
E00E
ENDCHAR
STARTCHAR 2F5A
ENCODING 12122
SWIDTH 990 0
DWIDTH 22 0
BBX 18 21 2 -2
BITMAP
003800
383800
383800
383800
383800
383800
3FFFC0
3FFF80
3FFF80
380000
380000
3FFF00
3FFF00
3FFF00
300700
700700
700700
700700
700700
700700
E00700
ENDCHAR
STARTCHAR 2F5B
ENCODING 12123
SWIDTH 990 0
DWIDTH 22 0
BBX 18 20 2 -2
BITMAP
7FFFC0
7FFF80
FFFF80
001C00
701C00
701C00
701C00
701C00
7FFFC0
7FFF80
7FFF80
0E1C00
1C1C00
1C1C00
3C1C00
381C00
381C00
70FC00
70FC00
E07C00
ENDCHAR
STARTCHAR 2F5C
ENCODING 12124
SWIDTH 990 0
DWIDTH 22 0
BBX 19 21 2 -2
BITMAP
00E000
40E000
70E000
70E000
7FFF80
7FFF80
7FFF00
70E000
70E000
00E000
00E000
7FFFE0
FFFFC0
FFFFC0
00E000
00E000
00E000
00E000
00E000
00E000
00E000
ENDCHAR
STARTCHAR 2F5D
ENCODING 12125
SWIDTH 1035 0
DWIDTH 23 0
BBX 19 21 2 -2
BITMAP
00E000
00E300
00E380
00E380
00E380
00E000
7FFFE0
7FFFC0
FFFFC0
03B800
039C00
071C00
070E00
0E0E00
1E0700
1C0700
3C0380
380380
7001C0
7001C0
E000E0
ENDCHAR
STARTCHAR 2F5E
ENCODING 12126
SWIDTH 1035 0
DWIDTH 23 0
BBX 19 20 2 -1
BITMAP
00E000
00E000
7FFFE0
7FFFC0
FFFFC0
0E0000
1E0000
1C0000
1C0000
3FFF80
3FFF00
3FFF00
0E0000
0E0300
1E0380
1C0380
1C0380
3FFF80
3FFF80
7FFF80
ENDCHAR
STARTCHAR 2F5F
ENCODING 12127
SWIDTH 1035 0
DWIDTH 23 0
BBX 17 20 3 -2
BITMAP
7FFF80
7FFF00
FFFF00
01C000
01C000
01C000
01C000
01C000
7FFF00
7FFF00
7FFF00
01C000
01C800
01CE00
01CE00
01CE00
01C000
7FFF80
FFFF80
FFFF00
ENDCHAR
STARTCHAR 2F60
ENCODING 12128
SWIDTH 1035 0
DWIDTH 23 0
BBX 17 20 3 -2
BITMAP
FFFF80
FFFF00
FFFF00
E71C00
E71C00
E70C00
E70E00
E70E00
E70E00
E70E00
E70E00
E70E00
E70E00
E74600
E76700
E77700
E77700
E7F700
E7F700
E7F700
ENDCHAR
STARTCHAR 2F61
ENCODING 12129
SWIDTH 990 0
DWIDTH 22 0
BBX 18 20 2 -2
BITMAP
7FFFC0
FFFF80
FFFF80
380000
380000
380000
3FFE00
3FFE00
3FFE00
380E00
390E00
39CE00
39CE00
39CE00
39CE00
380E00
380E00
3E0F80
3F0FC0
3F8FC0
ENDCHAR
STARTCHAR 2F62
ENCODING 12130
SWIDTH 1035 0
DWIDTH 23 0
BBX 19 21 2 -2
BITMAP
1C0700
1C0700
1C0700
7FFFE0
FFFFE0
FFFFC0
1C0700
1C0700
1C0700
1C0700
1C0700
1FFF00
1FFF00
1FFF00
1C0700
1C0700
1C0700
1C0700
1FFF00
1FFF00
1FFF00
ENDCHAR
STARTCHAR 2F63
ENCODING 12131
SWIDTH 990 0
DWIDTH 22 0
BBX 18 21 2 -2
BITMAP
00E000
40E000
70E000
70E000
7FFF80
7FFF00
7FFF00
70E000
70E000
70E000
00E000
3FFF00
3FFF00
3FFF00
00E000
00E000
00E000
00E000
7FFFC0
FFFFC0
FFFF80
ENDCHAR
STARTCHAR 2F64
ENCODING 12132
SWIDTH 945 0
DWIDTH 21 0
BBX 15 20 3 -2
BITMAP
FFFE
FFFE
FFFE
E38E
E38E
E38E
FFFE
FFFE
FFFE
E38E
E38E
FFFE
FFFE
FFFE
E38E
E38E
E38E
E39E
E39E
E39E
ENDCHAR
STARTCHAR 2F65
ENCODING 12133
SWIDTH 1035 0
DWIDTH 23 0
BBX 17 19 3 -2
BITMAP
FFFF80
FFFF80
FFFF80
E1C380
E1C380
E1C380
E1C380
E1C380
FFFF80
FFFF80
FFFF80
E1C380
E1C380
E1C380
E1C380
E1C380
FFFF80
EFFF80
E7FF80
ENDCHAR
STARTCHAR 2F66
ENCODING 12134
SWIDTH 990 0
DWIDTH 22 0
BBX 19 20 1 -2
BITMAP
3FFFE0
7FFFE0
7FFFE0
0070E0
0070E0
0070E0
007000
387000
387FC0
387FC0
387FC0
307000
787000
787000
7C7000
7E7000
7F7000
67FFE0
E7FFE0
E3FFE0
ENDCHAR
STARTCHAR 2F67
ENCODING 12135
SWIDTH 1035 0
DWIDTH 23 0
BBX 19 21 2 -2
BITMAP
002000
003800
1FFFE0
1FFFE0
1FFFC0
9C0000
DC0000
DC0000
DC0000
DC0000
1C0000
9C0000
DC0000
DC0000
DC0000
DC0000
DC0000
1C0000
1C0000
1C0000
1C0000
ENDCHAR
STARTCHAR 2F69
ENCODING 12137
SWIDTH 990 0
DWIDTH 22 0
BBX 16 21 3 -2
BITMAP
0700
0700
0700
FFFF
FFFF
FFFF
E007
E007
E007
E007
FFFF
FFFF
FFFF
E007
E007
E007
E007
E007
FFFF
EFFF
EFFF
ENDCHAR
STARTCHAR 2F6A
ENCODING 12138
SWIDTH 990 0
DWIDTH 22 0
BBX 17 21 2 -1
BITMAP
00E000
00E000
FFFF80
FFFF80
FFFF80
E0E380
E0E380
E7FF00
EFFF00
EFFF00
E00700
E70700
E70700
E70F00
E7DF00
E1FC00
E0F800
E0F800
E3FE00
E7DF00
EF0780
ENDCHAR
STARTCHAR 2F6B
ENCODING 12139
SWIDTH 990 0
DWIDTH 22 0
BBX 19 20 2 -2
BITMAP
3FFF80
3FFF80
3FFF80
3BBB80
3BBB80
3BBB80
3BBB80
3BBB80
3BBB80
3BBB80
3BBB80
3BBB80
3BBB80
3BBB80
3BBB80
3BBB80
3BBB80
7FFFE0
7FFFC0
FFFFC0
ENDCHAR
STARTCHAR 2F6C
ENCODING 12140
SWIDTH 1035 0
DWIDTH 23 0
BBX 15 20 4 -2
BITMAP
FFFE
FFFE
FFFE
E00E
E00E
E00E
FFFE
FFFE
FFFE
E00E
E00E
FFFE
FFFE
FFFE
E00E
E00E
E00E
FFFE
EFFE
EFFE
ENDCHAR
STARTCHAR 2F6D
ENCODING 12141
SWIDTH 990 0
DWIDTH 22 0
BBX 18 20 2 -2
BITMAP
1FFF80
3FFF80
3FFF00
040700
070600
070E00
070E00
7FFFC0
7FFFC0
FFFFC0
0C71C0
1C71C0
1C71C0
1C71C0
387000
387000
387000
71F000
71F000
70F000
ENDCHAR
STARTCHAR 2F6E
ENCODING 12142
SWIDTH 990 0
DWIDTH 22 0
BBX 18 20 2 -1
BITMAP
700000
700000
7FFF80
7FFF80
7FFF80
70E000
00E000
00E000
00E000
7FFFC0
FFFF80
FFFF80
078000
071C00
0E1C00
1E0E00
1C0700
380700
780380
7001C0
ENDCHAR
STARTCHAR 2F6F
ENCODING 12143
SWIDTH 990 0
DWIDTH 22 0
BBX 18 20 2 -2
BITMAP
3FFFC0
3FFFC0
7FFF80
060000
0E0000
0C0000
1C0000
1FFF80
3FFF80
3FFF80
3E0380
7E0380
7E0380
EE0380
0E0380
0E0380
0E0380
0FFF80
0EFF80
0EFF80
ENDCHAR
STARTCHAR 2F70
ENCODING 12144
SWIDTH 990 0
DWIDTH 22 0
BBX 18 20 2 -2
BITMAP
3FFF80
3FFF80
7FFF00
000000
000000
000000
7FFFC0
7FFFC0
FFFF80
00E000
00E000
38E700
38E300
38E380
38E380
30E380
70E380
73E180
71E1C0
71E1C0
ENDCHAR
STARTCHAR 2F72
ENCODING 12146
SWIDTH 1035 0
DWIDTH 23 0
BBX 19 20 2 -2
BITMAP
3FFF80
3FFF80
3FFF00
00E000
00E000
7FFFE0
7FFFC0
FFFFC0
00E000
00E000
38E380
38E380
38E380
38E380
70E180
70E1C0
70E1C0
70E1C0
70E1C0
E0E0C0
ENDCHAR
STARTCHAR 2F73
ENCODING 12147
SWIDTH 1035 0
DWIDTH 23 0
BBX 17 21 3 -1
BITMAP
01C000
01C000
FFFF80
FFFF80
FFFF80
E00380
E00380
E00380
000000
1C1C00
1C1C00
1C0E00
380E00
380E00
380600
300700
700700
700700
600380
E00380
E00380
ENDCHAR
STARTCHAR 2F74
ENCODING 12148
SWIDTH 1035 0
DWIDTH 23 0
BBX 19 20 2 -1
BITMAP
00E000
00E000
7FFFC0
7FFFC0
7FFFC0
000000
000000
180600
1C0700
1C0700
1C0700
1C0700
1C0700
1C0700
1C0700
000000
000000
FFFFE0
FFFFE0
FFFFC0
ENDCHAR
STARTCHAR 2F75
ENCODING 12149
SWIDTH 990 0
DWIDTH 22 0
BBX 19 21 1 -1
BITMAP
E07000
E07000
FFFFE0
FF7FE0
FF7FE0
EE7380
EE7380
EE7380
EE7380
0E0380
0E0380
0E0380
0E0380
0E0380
0E0380
0E0380
0E0380
0E0380
0E1F80
0E0F80
0E0780
ENDCHAR
STARTCHAR 2F76
ENCODING 12150
SWIDTH 1035 0
DWIDTH 23 0
BBX 19 21 2 -2
BITMAP
00E000
20E200
38E380
38E380
38E380
38E380
38E380
00E000
7FFFE0
7FFFC0
FFFFC0
00E000
18E700
38E300
38E380
38E380
38E380
30E380
70E1C0
70E1C0
70E1C0
ENDCHAR
STARTCHAR 2F77
ENCODING 12151
SWIDTH 990 0
DWIDTH 22 0
BBX 17 21 3 -1
BITMAP
1C0000
1C0000
380000
380000
7FFF00
7FFF00
7FFE00
380000
380000
780600
700700
7FFF00
FFFF00
FFFF00
01C000
71C700
71C700
E1C700
E7C700
E7C380
E3C380
ENDCHAR
STARTCHAR 2F78
ENCODING 12152
SWIDTH 990 0
DWIDTH 22 0
BBX 18 21 2 -1
BITMAP
400000
700000
7FFF80
7FFF80
7FFF00
70E000
70E000
00E000
00E000
7FFFC0
FFFFC0
FFFF80
00E000
00E000
70E380
70E380
70E380
70E380
7FFF80
7FFF80
7FFF80
ENDCHAR
STARTCHAR 2F79
ENCODING 12153
SWIDTH 990 0
DWIDTH 22 0
BBX 18 20 2 -2
BITMAP
FFFFC0
FFFFC0
FFFFC0
E001C0
EDEDC0
EFFDC0
EF3DC0
EF3DC0
E739C0
E739C0
E619C0
E619C0
E739C0
E739C0
EF3DC0
EF3DC0
EFFDC0
EDEDC0
E007C0
E007C0
ENDCHAR
STARTCHAR 2F7A
ENCODING 12154
SWIDTH 945 0
DWIDTH 21 0
BBX 19 21 1 -1
BITMAP
060C00
070E00
3FFFC0
7FFFC0
7FFF80
00E000
00E000
00E000
3FFF80
3FFF80
3FFF80
00E000
00E000
7FFFE0
7FFFC0
FFFFC0
00E000
00E000
00E000
00E000
00E000
ENDCHAR
STARTCHAR 2F7B
ENCODING 12155
SWIDTH 990 0
DWIDTH 22 0
BBX 18 20 2 -2
BITMAP
FFBFC0
FFBFC0
FFBFC0
0381C0
0381C0
FBBFC0
FBBFC0
FBBFC0
0381C0
0381C0
0381C0
3B8FC0
FBBFC0
F3BDC0
83A1C0
0381C0
0381C0
3F8FC0
1F87C0
1F87C0
ENDCHAR
STARTCHAR 2F7C
ENCODING 12156
SWIDTH 990 0
DWIDTH 22 0
BBX 19 21 1 -1
BITMAP
00E000
00E000
3FFFC0
3FFFC0
3FFFC0
00E380
00E380
7FFFE0
7FFFE0
FFFFE0
1F0000
3F0040
3F3FC0
3FFFC0
77FF00
778000
E70000
070000
07FFC0
07FFC0
07FFE0
ENDCHAR
STARTCHAR 2F7D
ENCODING 12157
SWIDTH 1035 0
DWIDTH 23 0
BBX 19 20 2 -2
BITMAP
7FFFE0
7FFFC0
FFFFC0
00C000
00C000
7FFFC0
7FFFC0
7FFFC0
73B9C0
73B9C0
73B9C0
73B9C0
73B9C0
73B9C0
73B9C0
73B9C0
73B9C0
73BBC0
73BBC0
73BBC0
ENDCHAR
STARTCHAR 2F7E
ENCODING 12158
SWIDTH 1035 0
DWIDTH 23 0
BBX 19 21 2 -2
BITMAP
00E000
00E000
3FFFC0
7FFFC0
7FFF80
00E000
3FFF80
3FFF80
3FFF80
00E000
00E000
7FFFE0
7FFFC0
FFFFC0
38E380
38E380
38E380
38E180
70E1C0
70E1C0
70E1C0
ENDCHAR
STARTCHAR 2F7F
ENCODING 12159
SWIDTH 1035 0
DWIDTH 23 0
BBX 19 20 2 -3
BITMAP
7FFFC0
7FFFC0
FFFF80
1C0700
1FFF00
1FFF00
1FFF00
1C0700
1C0700
1FFF00
1FFF00
1FFF00
1C0700
1C0700
7FFFE0
FFFFC0
FFFFC0
000700
000700
000700
ENDCHAR
STARTCHAR 2F80
ENCODING 12160
SWIDTH 990 0
DWIDTH 22 0
BBX 19 21 2 -2
BITMAP
01C000
3FFF00
3FFF00
7FFF00
01C700
FFFFE0
FFFFC0
FFFFC0
01C700
3FFF00
3FFF00
7FFF00
7FFF80
7FFF80
7FFF80
01C000
FFFFE0
FFFFC0
FFFFC0
01C000
01C000
ENDCHAR
STARTCHAR 2F81
ENCODING 12161
SWIDTH 990 0
DWIDTH 22 0
BBX 18 21 2 -1
BITMAP
01C000
01C000
FFFFC0
FFFFC0
FFFFC0
E381C0
E771C0
E739C0
EE39C0
EE1DC0
E381C0
E381C0
E301C0
E771C0
E639C0
EE39C0
EE1DC0
E001C0
E00FC0
E007C0
E007C0
ENDCHAR
STARTCHAR 2F82
ENCODING 12162
SWIDTH 1035 0
DWIDTH 23 0
BBX 17 20 3 -2
BITMAP
FFFF80
FFFF80
FFFF80
E0E000
E0E000
E0E000
FFFF00
FFFF00
FFFF00
E00700
E00700
FFFF00
FFFF00
FFFF00
E0E000
E0E000
E0E000
FFFF80
FFFF80
FFFF80
ENDCHAR
STARTCHAR 2F83
ENCODING 12163
SWIDTH 990 0
DWIDTH 22 0
BBX 16 21 3 -2
BITMAP
0380
0380
FFFF
FFFF
FFFF
E007
E007
FFFF
FFFF
FFFF
E007
E007
E007
FFFF
FFFF
FFFF
E007
E007
FFFF
EFFF
EFFF
ENDCHAR
STARTCHAR 2F84
ENCODING 12164
SWIDTH 1035 0
DWIDTH 23 0
BBX 18 20 3 -2
BITMAP
7FFF80
FFFF80
FFFF00
1C0000
3C0600
380700
3FFF00
7FFF00
7FFF00
000000
01C000
01C000
7FFF00
7FFF00
7FFF00
01C000
01C000
FFFFC0
FFFF80
FFFF80
ENDCHAR
STARTCHAR 2F85
ENCODING 12165
SWIDTH 945 0
DWIDTH 21 0
BBX 17 20 2 -2
BITMAP
FF7F80
FE7F80
FE7F80
E00380
E00380
E00380
E00380
E00380
E00380
FF7F80
FF7F80
FF7F80
E00380
E00380
E00380
E00380
E00380
FFFF80
FFFF80
FFFF80
ENDCHAR
STARTCHAR 2F86
ENCODING 12166
SWIDTH 990 0
DWIDTH 22 0
BBX 18 20 2 -2
BITMAP
7FFF80
7FFF80
7FFF00
01C000
01C000
FFFFC0
FFFFC0
FFFFC0
01C000
01C000
7FFF80
7FFF80
7FFF80
700380
700380
700380
700380
7FFF80
77FF80
77FF80
ENDCHAR
STARTCHAR 2F87
ENCODING 12167
SWIDTH 1035 0
DWIDTH 23 0
BBX 19 21 2 -1
BITMAP
C00700
E00700
FF3FE0
FF7FE0
FF7FE0
E70700
E70700
E77700
077700
C77700
E77700
E77700
E77700
E77FE0
0E7FE0
1E7FC0
1C0700
380700
380700
700700
700700
ENDCHAR
STARTCHAR 2F88
ENCODING 12168
SWIDTH 1035 0
DWIDTH 23 0
BBX 19 21 2 -1
BITMAP
01C000
3FFF80
3FFF80
3FFF80
380380
38C380
38E380
38E380
380380
7FFFE0
FFFFE0
FFFFC0
380380
388380
38E380
38E380
38E380
380380
383F80
381F80
381F80
ENDCHAR
STARTCHAR 2F89
ENCODING 12169
SWIDTH 990 0
DWIDTH 22 0
BBX 17 20 3 -2
BITMAP
FFFF00
FFFF00
FFFF00
E00700
FFFF00
FFFF00
FFFF00
E00700
E00700
FFFF00
FFFF00
EFFF00
E07000
E07F80
E03F00
E03F00
E01C00
FC1E00
FE0E00
FF0F00
ENDCHAR
STARTCHAR 2F8A
ENCODING 12170
SWIDTH 990 0
DWIDTH 22 0
BBX 17 21 3 -2
BITMAP
300000
7FFC00
7FF800
7FF800
E03800
E03800
FFFE00
FFFE00
FFFE00
E38E00
E38E00
E38E00
FFFE00
FFFE00
EFFE00
E00000
E00000
E00000
FFFF00
FFFF00
FFFF80
ENDCHAR
STARTCHAR 2F8C
ENCODING 12172
SWIDTH 990 0
DWIDTH 22 0
BBX 18 21 2 -1
BITMAP
01C000
01FFC0
01FF80
01FF80
01C000
FFFFC0
FFFFC0
FFFFC0
E001C0
E1C1C0
E1C000
E1C000
E1FF80
EFFF80
EFFF80
EFC000
E1C000
E1C000
E1FF80
E1FF80
E1FFC0
ENDCHAR
STARTCHAR 2F8D
ENCODING 12173
SWIDTH 990 0
DWIDTH 22 0
BBX 18 21 2 -2
BITMAP
01C000
01C000
01C000
7FFF80
7FFF80
7FFF80
71C380
71C380
71C380
71C380
71C380
7FFF80
77FF80
77FF80
01C000
01C100
01C1C0
01C1C0
7FFFC0
7FFFC0
FFFFC0
ENDCHAR
STARTCHAR 2F8E
ENCODING 12174
SWIDTH 990 0
DWIDTH 22 0
BBX 19 21 2 -1
BITMAP
01C000
038000
3FFF80
3FFF80
3FFF80
3BBB80
3BBB80
3BBB80
3BBB80
3BBB80
3BBB80
3BBB80
3BBB80
3BBB80
3BBB80
3BBB80
3BBB80
3BBB80
7FFFE0
FFFFC0
FFFFC0
ENDCHAR
STARTCHAR 2F8F
ENCODING 12175
SWIDTH 990 0
DWIDTH 22 0
BBX 19 21 2 -1
BITMAP
3C0000
38FFC0
78FFC0
70FFC0
E00000
FC0000
380000
79FFE0
71FFC0
E3FFC0
F80700
380700
380700
380700
380700
380700
380700
380700
381F00
381F00
381F00
ENDCHAR
STARTCHAR 2F90
ENCODING 12176
SWIDTH 990 0
DWIDTH 22 0
BBX 19 21 2 -1
BITMAP
00C000
00E000
7FFFE0
7FFFC0
FFFFC0
070000
0E0000
1E3800
1C3C00
3C1FC0
3E1FC0
7E0F80
7E0E00
EE0700
EE0700
0E0780
0E0380
0E0380
0FC1C0
0FE1C0
0FE1E0
ENDCHAR
STARTCHAR 2F93
ENCODING 12179
SWIDTH 1035 0
DWIDTH 23 0
BBX 17 21 3 -1
BITMAP
700000
7FFE00
FFFE00
FFFE00
E01C00
FFFF80
FFFF80
FFFF80
E1C380
FFFF80
FFFF80
FFFF80
E1C380
E1C380
FFFF80
FFFF80
FFFF80
E1C380
E1DF80
E1CF80
E1CF80
ENDCHAR
STARTCHAR 2F94
ENCODING 12180
SWIDTH 1035 0
DWIDTH 23 0
BBX 19 20 2 -1
BITMAP
00E000
7FFFE0
FFFFE0
FFFFC0
3FFF80
3FFF80
3FFF80
000000
3FFF80
3FFF80
3FFF80
000000
3FFF80
3FFF80
3FFF80
380380
380380
3FFF80
3BFF80
39FF80
ENDCHAR
STARTCHAR 2F95
ENCODING 12181
SWIDTH 1035 0
DWIDTH 23 0
BBX 19 21 2 -2
BITMAP
1C0700
1C0700
380380
380380
7001C0
1FFF00
3FFF00
3FFF80
380380
7001C0
7001C0
F000E0
3FFF80
3FFF80
3FFF80
380380
380380
380380
3FFF80
3FFF80
3BFF80
ENDCHAR
STARTCHAR 2F96
ENCODING 12182
SWIDTH 1035 0
DWIDTH 23 0
BBX 19 20 2 -2
BITMAP
7FFFE0
7FFFC0
FFFFC0
000000
3FFF80
3FFF80
3FFF80
380380
380380
380380
3FFF80
3FFF80
3BFF80
000000
180C00
1C0E00
1C0E00
7FFFE0
FFFFE0
FFFFC0
ENDCHAR
STARTCHAR 2F97
ENCODING 12183
SWIDTH 990 0
DWIDTH 22 0
BBX 19 20 1 -3
BITMAP
7FFFE0
7FFFE0
FFFFC0
03E000
0FE1C0
3FE3C0
7C6380
70F380
63F380
07F700
1FF700
7E7380
787380
61F380
07F380
1FF1C0
7E71C0
7871C0
6071C0
406000
ENDCHAR
STARTCHAR 2F98
ENCODING 12184
SWIDTH 1035 0
DWIDTH 23 0
BBX 15 21 4 -2
BITMAP
001E
1FFE
FFFE
FFB0
9838
1C3E
1FFE
FFFE
FFF0
8070
1FF0
FFF0
FFF0
8070
1FF0
FFF0
FFF0
8070
0FF0
07F0
03F0
ENDCHAR
STARTCHAR 2F9A
ENCODING 12186
SWIDTH 990 0
DWIDTH 22 0
BBX 20 21 1 -1
BITMAP
00E000
00E000
3FFFC0
3FFFC0
3FFFC0
00E000
00E000
7FFFF0
7FFFE0
7FFFE0
070E00
070E00
370EC0
370EC0
770EE0
760EE0
7E0EE0
6E0E60
EEFE70
0E7E00
0E7E00
ENDCHAR
STARTCHAR 2F9B
ENCODING 12187
SWIDTH 990 0
DWIDTH 22 0
BBX 18 21 2 -1
BITMAP
01C000
01C000
7FFF00
7FFF00
7FFF00
01C000
01C000
FFFF80
FFFF80
FFFF80
000000
01C000
71C000
71FF00
71FF00
61FF00
E1C000
F9C000
FFFFC0
FFFF80
C7FF80
ENDCHAR
STARTCHAR 2F9C
ENCODING 12188
SWIDTH 1035 0
DWIDTH 23 0
BBX 19 20 2 -2
BITMAP
3FFF80
3FFF80
3FFF80
380380
380380
380380
3FFF80
3BFF80
3BFF80
00E000
38E000
38FF80
38FF80
38FF80
70E000
78E000
7CE000
7FFFE0
7FFFC0
E7FFC0
ENDCHAR
STARTCHAR 2F9D
ENCODING 12189
SWIDTH 990 0
DWIDTH 22 0
BBX 19 21 1 -1
BITMAP
00E000
1FFF80
1FFF80
1FFF80
1C0380
1FFF80
1FFF80
1FFF80
1FFF80
1FFF80
1FFF80
1C03E0
7FFFE0
7FFFE0
FFFF80
01FF80
07F380
3F8380
7E1F80
701F80
400F80
ENDCHAR
STARTCHAR 2F9E
ENCODING 12190
SWIDTH 1035 0
DWIDTH 23 0
BBX 19 21 2 -2
BITMAP
00E000
7FFFE0
7FFFC0
7FFFC0
00E000
3FFF80
3FFF80
3FFF80
3FFF80
3FFF80
3FFF80
38E380
3FFF80
3BFF80
3BFF80
00E000
7FFFE0
FFFFE0
FFFFC0
00E000
00E000
ENDCHAR
STARTCHAR 2F9F
ENCODING 12191
SWIDTH 990 0
DWIDTH 22 0
BBX 18 21 2 -1
BITMAP
00C000
00E000
7FFF80
7FFF80
7FFF80
000000
080800
0E0E00
0E0E00
7FFFC0
FFFFC0
FFFF80
00E000
00E000
3FFF80
3FFF80
7FFF00
00E000
00E000
00E000
00E000
ENDCHAR
STARTCHAR 2FA0
ENCODING 12192
SWIDTH 990 0
DWIDTH 22 0
BBX 17 20 2 -2
BITMAP
FFFF80
FFFF80
FFFF00
E00000
EFFF00
EFFF00
EFFF00
E00000
E00000
EFFF80
FFFF80
FFFF00
E71C00
E71F80
E70F80
E70F80
E70F00
E7E700
E7E700
E7F380
ENDCHAR
STARTCHAR 2FA2
ENCODING 12194
SWIDTH 990 0
DWIDTH 22 0
BBX 17 20 2 -2
BITMAP
7FFF00
7FFF00
7FFF00
700700
7FFF00
77FF00
77FF00
000000
FFFF00
FFFF00
FFFF00
E1C700
FFFF00
FFFF00
FFFF00
E00000
E00000
FFFF00
FFFF80
FFFF80
ENDCHAR
STARTCHAR 2FA3
ENCODING 12195
SWIDTH 1035 0
DWIDTH 23 0
BBX 19 20 2 -2
BITMAP
7FFFE0
7FFFC0
FFFFC0
03B800
7FFFC0
7FFFC0
7FFFC0
73B9C0
7739C0
773FC0
773FC0
773FC0
7001C0
7FFFC0
7FFFC0
7FFFC0
7001C0
7FFFC0
77FFC0
77FFC0
ENDCHAR
STARTCHAR 2FA5
ENCODING 12197
SWIDTH 990 0
DWIDTH 22 0
BBX 18 20 2 -2
BITMAP
3FFF80
3FFF80
3FFF80
38E380
3FFF80
3FFF80
3FFF80
38E380
3FFF80
3FFF80
3BFF80
00E000
00E000
7FFF80
7FFF80
7FFF80
00E000
FFFFC0
FFFFC0
FFFFC0
ENDCHAR
STARTCHAR 2FA6
ENCODING 12198
SWIDTH 990 0
DWIDTH 22 0
BBX 18 20 2 -2
BITMAP
3FFF00
3FFF00
3FFF80
780380
700180
77FD80
E7FDC0
E7FDC0
00E000
00E000
7FFF80
7FFF80
7FFF80
00E000
30E600
38E700
38E700
FFFFC0
FFFFC0
FFFFC0
ENDCHAR
STARTCHAR 2FA9
ENCODING 12201
SWIDTH 990 0
DWIDTH 22 0
BBX 18 21 2 -1
BITMAP
01C000
3FFF80
3FFF80
3FFF80
3FFF80
3FFF80
3FFF80
380000
3FFF80
3FFF80
3FFF80
3FFF80
3FFF80
3FFF80
00E000
7FFFC0
7FFFC0
FFFFC0
00E000
00E000
00E000
ENDCHAR
STARTCHAR 2FAA
ENCODING 12202
SWIDTH 990 0
DWIDTH 22 0
BBX 18 21 2 -1
BITMAP
00E000
3FFF80
3FFF80
7FFF80
00E380
7FFFC0
FFFFC0
FFFFC0
00E380
3FFF80
3FFF80
7FFF80
00E000
7CEF80
7CEF80
7CEF80
00E000
7CEF80
7FEF80
7DEF80
01E000
ENDCHAR
STARTCHAR 2FAB
ENCODING 12203
SWIDTH 945 0
DWIDTH 21 0
BBX 18 20 2 -1
BITMAP
383000
303800
77FF80
77FF80
67FF80
E03800
F03800
F7FF80
77FF80
77FF80
703800
703800
77FF80
77FF80
77FF80
703800
703800
77FFC0
77FF80
77FF80
ENDCHAR
STARTCHAR 2FAC
ENCODING 12204
SWIDTH 990 0
DWIDTH 22 0
BBX 20 20 1 -2
BITMAP
7FFFF0
7FFFE0
FFFFE0
00E000
7FFFE0
7FFFE0
7FFFE0
70E0E0
76ECE0
77EEE0
77EEE0
77EEE0
70E0E0
77EEE0
77EEE0
77EEE0
77EEE0
70E7E0
70E3E0
70E3E0
ENDCHAR
STARTCHAR 2FAE
ENCODING 12206
SWIDTH 990 0
DWIDTH 22 0
BBX 18 21 2 -2
BITMAP
073800
073800
073800
7F3FC0
FF3F80
FF3F80
073800
073800
073800
7F3F80
7F3F80
7F3F80
073800
073800
7F3FC0
FF3FC0
FF3F80
073800
073800
073800
073800
ENDCHAR
STARTCHAR 2FAF
ENCODING 12207
SWIDTH 1035 0
DWIDTH 23 0
BBX 19 20 2 -2
BITMAP
7FFFE0
FFFFC0
FFFFC0
01C000
7FFFC0
7FFFC0
7FFFC0
7739C0
7739C0
77F9C0
77F9C0
77F9C0
7739C0
77F9C0
77F9C0
77F9C0
7739C0
7FFFC0
77FFC0
77FFC0
ENDCHAR
STARTCHAR 2FB0
ENCODING 12208
SWIDTH 1035 0
DWIDTH 23 0
BBX 19 21 2 -2
BITMAP
0E0E00
7FFFE0
FFFFC0
FFFFC0
0E0E00
0FFE00
0FFE00
0FFE00
3FFF80
3FFF80
3FFF80
38E380
3FFF80
3BFF80
39FF80
00E000
7FFFE0
7FFFC0
FFFFC0
00E000
00E000
ENDCHAR
STARTCHAR 2FB2
ENCODING 12210
SWIDTH 990 0
DWIDTH 22 0
BBX 18 21 2 -2
BITMAP
073800
073800
073800
7F3FC0
FF3FC0
FF3F80
073800
073800
7F3F80
7F3F80
7F3F80
073800
073800
FF3FC0
FF3FC0
FF3F80
073800
073800
FFFFC0
FFFFC0
FFFFC0
ENDCHAR
STARTCHAR 2FB3
ENCODING 12211
SWIDTH 945 0
DWIDTH 21 0
BBX 19 21 1 -1
BITMAP
00E000
3FFF80
3FFF80
3FFF80
000000
060C00
070E00
7FFFE0
7FFFC0
FFFFC0
000000
1FFF80
1FFF80
1FFF80
1FFF80
1FFF80
1FFF80
1C0380
1FFF80
1DFF80
1DFF80
ENDCHAR
STARTCHAR 2FB5
ENCODING 12213
SWIDTH 990 0
DWIDTH 22 0
BBX 19 20 2 -2
BITMAP
7FFF80
7FFF80
7FFF80
7FFF80
7FFD80
7FFD80
70E180
7FFD80
7FFD80
7FFD80
7EDD80
7FFD80
7FFD80
7FFD80
70E980
6FFF80
EFFF80
EFFFC0
E001C0
E001E0
ENDCHAR
STARTCHAR 2FB6
ENCODING 12214
SWIDTH 990 0
DWIDTH 22 0
BBX 19 20 1 -2
BITMAP
7FFD80
7FFDC0
FFFDC0
7FDDC0
7DDDC0
7DDDC0
39DFC0
39DFE0
39DFE0
39C000
7FFD00
FFFDC0
FFFDC0
39DD00
71DDC0
71DDC0
71DC00
71DFC0
71DFE0
61DFE0
ENDCHAR
STARTCHAR 2FB7
ENCODING 12215
SWIDTH 990 0
DWIDTH 22 0
BBX 17 20 2 -2
BITMAP
3FFE00
3FFE00
3FFE00
718700
7FFF00
FFFF80
FFFF80
380E00
380E00
3FFE00
3FFE00
380E00
3FFE00
3BFE00
3BFE00
383F80
381F00
3F1F00
3F0E00
3F8E00
ENDCHAR
STARTCHAR 2FB8
ENCODING 12216
SWIDTH 990 0
DWIDTH 22 0
BBX 20 21 1 -1
BITMAP
060C00
070E00
7FFFF0
7FFFE0
FFFFE0
00E000
3FFFC0
3FFFC0
3FFFC0
3801C0
3FFFC0
3FFFC0
3FFFC0
3801C0
3FFFC0
3FFFC0
3FFFC0
3801C0
3FFFC0
3BFFC0
3BFFC0
ENDCHAR
STARTCHAR 2FB9
ENCODING 12217
SWIDTH 1035 0
DWIDTH 23 0
BBX 19 20 2 -2
BITMAP
1FFF80
1FFF00
3FFF00
00E000
7FFFE0
7FFFC0
FFFFC0
38E380
30E380
70E1C0
3FFF80
3FFF80
3FFF80
380380
3FFF80
3FFF80
380380
3FFF80
3FFF80
3BFF80
ENDCHAR
STARTCHAR 2FBB
ENCODING 12219
SWIDTH 990 0
DWIDTH 22 0
BBX 18 20 2 -2
BITMAP
3FFF00
3FFF00
3FFF00
3FE700
3FE700
FFFFC0
FFFFC0
FFFFC0
FFFFC0
3FFF00
3FFF00
380700
3FFF00
3FFF00
380700
3FFF00
3FFF00
383F00
381F00
381F00
ENDCHAR
STARTCHAR 2FBC
ENCODING 12220
SWIDTH 990 0
DWIDTH 22 0
BBX 18 21 2 -1
BITMAP
00E000
7FFFC0
FFFFC0
FFFF80
1FFF00
1FFF00
1FFF00
1C0700
1FFF00
1FFF00
1FFF00
7FFF80
7FFF80
7FFF80
77FB80
77FB80
77FB80
773B80
77FF80
77FB80
777B80
ENDCHAR
STARTCHAR 2FBD
ENCODING 12221
SWIDTH 1035 0
DWIDTH 23 0
BBX 19 21 2 -1
BITMAP
7FC020
7FC1E0
7FC7E0
701FC0
7FDF00
7FDC00
7FC000
700020
7FC0E0
7FC3E0
7FDFE0
701F00
FFDC00
FFC000
FFC020
7000E0
7183E0
71CFE0
7FDF80
7FDC00
7FD000
ENDCHAR
STARTCHAR 2FBE
ENCODING 12222
SWIDTH 990 0
DWIDTH 22 0
BBX 18 20 2 -2
BITMAP
EFBFC0
EFBFC0
FFBFC0
EFBFC0
EFBFC0
EFBFC0
EFBFC0
EFBFC0
FFBFC0
E001C0
E001C0
E001C0
E001C0
E001C0
E001C0
E001C0
E001C0
E007C0
E007C0
E007C0
ENDCHAR
STARTCHAR 2FBF
ENCODING 12223
SWIDTH 990 0
DWIDTH 22 0
BBX 18 21 2 -1
BITMAP
09C000
0DD800
EF79C0
E7F9C0
EDEDC0
EFFDC0
EF7DC0
ED9DC0
E9C5C0
FFFFC0
FFFFC0
FFFFC0
000000
EFFF80
EFFF80
EFFF80
E00000
E00000
FFFF80
FFFFC0
FFFFC0
ENDCHAR
STARTCHAR 2FC0
ENCODING 12224
SWIDTH 990 0
DWIDTH 22 0
BBX 19 20 1 -2
BITMAP
7FFFE0
7FFFE0
FFFFE0
1FFF80
1FFF80
1FFF80
1FFF80
1FFF80
1DFF80
000000
7FFFE0
7FFFE0
7FFFE0
7330E0
77FEE0
77FEE0
77FEE0
70E0E0
70E3E0
70E1E0
ENDCHAR
STARTCHAR 2FC1
ENCODING 12225
SWIDTH 990 0
DWIDTH 22 0
BBX 18 21 2 -1
BITMAP
038000
7FFF00
7FFF00
7FFF00
71C700
71C700
7FFF00
7FFF00
7FFF00
71C700
7FFF00
7FFF00
7FFF00
078000
077700
0E7580
1E7F80
3C7F80
387F80
707F80
E07FC0
ENDCHAR
STARTCHAR 2FC5
ENCODING 12229
SWIDTH 990 0
DWIDTH 22 0
BBX 18 21 2 -1
BITMAP
01C000
FFFFC0
FFFF80
FFFF80
E73800
FFFF80
FFFF80
FFFF80
E73B80
E73B80
FFFF80
FFFF80
FFFF80
EE1C00
EFDF80
EFDF80
EFDF80
EE1C00
EE1C00
EFDF80
EFDFC0
ENDCHAR
STARTCHAR 2FC6
ENCODING 12230
SWIDTH 1035 0
DWIDTH 23 0
BBX 19 21 2 -1
BITMAP
00E000
7FFFE0
7FFFC0
FFFFC0
38E700
7CEF80
7EEDC0
00E000
3CE780
78E3C0
F0E1E0
3FFF80
3FFF80
7FFF80
700380
7E0F80
7FFF80
1FFF00
FFFFE0
FC07E0
800020
ENDCHAR
STARTCHAR 2FC7
ENCODING 12231
SWIDTH 990 0
DWIDTH 22 0
BBX 18 21 2 -1
BITMAP
006000
FFFFC0
FFFFC0
FFFFC0
E00000
E38700
E38700
FFFFC0
FFFFC0
FFFFC0
FBFFC0
FBFFC0
FBFFC0
FBFFC0
FBFFC0
FBFFC0
FBFFC0
FBFFC0
FBFFC0
FBFFC0
FBFFC0
ENDCHAR
STARTCHAR 2FC9
ENCODING 12233
SWIDTH 1035 0
DWIDTH 23 0
BBX 19 20 2 -2
BITMAP
1FFF80
3FFF80
3FFF00
7FFFE0
7FFFC0
FFFFC0
38E380
70E1C0
3FFF80
3FFF80
7FFFC0
7001C0
F0E1E0
7CE7C0
7CE7C0
7CE7C0
00E000
7DE7C0
7DE7C0
60E0C0
ENDCHAR
STARTCHAR 2FCA
ENCODING 12234
SWIDTH 990 0
DWIDTH 22 0
BBX 19 20 1 -2
BITMAP
3FFF80
3FFF80
3FFF80
38E380
3BEF80
3BEF80
3FFF80
3FFF80
3BFF80
00E000
7FFFC0
7FFFC0
7FFFC0
7FFFE0
7FFFE0
FFFFC0
000000
739CE0
739CE0
739CE0
ENDCHAR
STARTCHAR 2FCB
ENCODING 12235
SWIDTH 990 0
DWIDTH 22 0
BBX 18 21 2 -1
BITMAP
473B00
773B80
773B80
773B80
7FFFC0
FFFFC0
FFFF80
01C000
31C600
39C700
FFFFC0
FFFFC0
FFFFC0
E1C1C0
EFDDC0
EFDDC0
EFDDC0
EFDDC0
E1C7C0
E1C7C0
E1C3C0
ENDCHAR
STARTCHAR 2FCD
ENCODING 12237
SWIDTH 1035 0
DWIDTH 23 0
BBX 19 21 2 -2
BITMAP
07FE00
07FE00
07FE00
77FEE0
77FEE0
77FEE0
77FEE0
770EE0
77FEE0
77FEE0
777EE0
7F9FE0
7F9FE0
7F9FE0
7F9FE0
7F9FE0
FF9FE0
739CE0
739CE0
739CE0
739CE0
ENDCHAR
STARTCHAR 2FCE
ENCODING 12238
SWIDTH 990 0
DWIDTH 22 0
BBX 19 21 1 -2
BITMAP
0E0700
7FC700
7FDFE0
FF9FE0
0E3FE0
7FC700
7FDFE0
7FDFE0
7F9FE0
7F80E0
7F9CE0
739CE0
7F9CE0
7F9CE0
779FC0
220FC0
3B8780
3B8780
7FCFC0
7FDFC0
7FDCE0
ENDCHAR
STARTCHAR 2FCF
ENCODING 12239
SWIDTH 1035 0
DWIDTH 23 0
BBX 19 20 2 -2
BITMAP
FF7F80
FE7F80
FE7F80
FE7F80
FE7F80
FE7F80
E00380
FFFF80
FFFF80
FFFF80
FFF700
FFF700
FFF700
E38700
FFF700
FFF700
FFF700
FBE7C0
FBF7C0
FFF7E0
ENDCHAR
STARTCHAR 2FD0
ENCODING 12240
SWIDTH 945 0
DWIDTH 21 0
BBX 17 21 2 -2
BITMAP
070000
7FFF00
7FFF00
7FFF00
700700
7FFF00
700700
7FFF00
77FF00
7FFF00
7FFF00
7FFF00
7FFF00
7FFF00
7FFF00
000000
FFFF80
FFFF80
FFFF80
381C00
701C00
ENDCHAR
STARTCHAR 2FD3
ENCODING 12243
SWIDTH 990 0
DWIDTH 22 0
BBX 19 21 1 -2
BITMAP
0C1C00
7FDFE0
7FDFE0
7FDFE0
3B9C00
7FFFE0
7FDFE0
FFDFE0
0000E0
7FDFE0
7FDFE0
7FDFE0
7FDFE0
7FDFE0
7FDFE0
7FDFE0
7FDFE0
7FDFE0
73DFE0
73DFE0
73DFE0
ENDCHAR
STARTCHAR 2FD5
ENCODING 12245
SWIDTH 990 0
DWIDTH 22 0
BBX 18 20 2 -2
BITMAP
7FFF80
7FFF80
7FFFC0
EFFDC0
EFFDC0
FFFFC0
FFFFC0
FFFEC0
FFFFC0
FFFFC0
000000
FFFFC0
FFFFC0
FFFFC0
FFFFC0
FFFFC0
FFFFC0
E73BC0
E73BC0
E73BC0
ENDCHAR
STARTCHAR 3000
ENCODING 12288
SWIDTH 990 0
DWIDTH 22 0
BBX 0 0 0 0
BITMAP
ENDCHAR
STARTCHAR 3001
ENCODING 12289
SWIDTH 990 0
DWIDTH 22 0
BBX 4 4 0 -2
BITMAP
E0
E0
70
70
ENDCHAR
STARTCHAR 3002
ENCODING 12290
SWIDTH 1035 0
DWIDTH 23 0
BBX 4 4 1 -2
BITMAP
F0
F0
F0
F0
ENDCHAR
STARTCHAR 3005
ENCODING 12293
SWIDTH 990 0
DWIDTH 22 0
BBX 17 20 3 -2
BITMAP
0E0000
1E0000
1C0000
3FFF80
3FFF80
3FFF80
700380
700700
E00F00
E00E00
001E00
001C00
003C00
003800
007000
007000
00E000
3FFF80
7FFF00
7FFF00
ENDCHAR
STARTCHAR 3007
ENCODING 12295
SWIDTH 990 0
DWIDTH 22 0
BBX 18 20 2 -2
BITMAP
FFFFC0
FFFFC0
FFFFC0
E001C0
E001C0
E001C0
E001C0
E001C0
E001C0
E001C0
E001C0
E001C0
E001C0
E001C0
E001C0
E001C0
E001C0
FFFFC0
EFFFC0
EFFFC0
ENDCHAR
STARTCHAR 3008
ENCODING 12296
SWIDTH 990 0
DWIDTH 22 0
BBX 7 21 14 -2
BITMAP
0E
0E
1C
1C
38
38
30
70
70
E0
E0
E0
70
70
38
38
38
1C
1C
0E
0E
ENDCHAR
STARTCHAR 3009
ENCODING 12297
SWIDTH 990 0
DWIDTH 22 0
BBX 7 21 1 -2
BITMAP
E0
70
70
30
38
38
1C
1C
0E
0E
0E
0E
1C
1C
1C
38
38
70
70
70
E0
ENDCHAR
STARTCHAR 300A
ENCODING 12298
SWIDTH 990 0
DWIDTH 22 0
BBX 12 21 9 -2
BITMAP
0E70
0E70
0EE0
1CE0
1DC0
39C0
3B80
7380
7780
E700
E700
7700
7380
7380
3BC0
39C0
1DC0
1CE0
0EE0
0E70
0670
ENDCHAR
STARTCHAR 300B
ENCODING 12299
SWIDTH 990 0
DWIDTH 22 0
BBX 12 21 1 -2
BITMAP
E700
7700
7380
3380
39C0
39C0
1DC0
1CE0
0EE0
0E70
0E70
0E70
0EE0
1CE0
1DC0
39C0
3B80
7380
7380
7700
E700
ENDCHAR
STARTCHAR 300C
ENCODING 12300
SWIDTH 990 0
DWIDTH 22 0
BBX 6 18 15 1
BITMAP
FC
FC
FC
E0
E0
E0
E0
E0
E0
E0
E0
E0
E0
E0
E0
E0
E0
E0
ENDCHAR
STARTCHAR 300D
ENCODING 12301
SWIDTH 990 0
DWIDTH 22 0
BBX 6 17 1 -1
BITMAP
1C
1C
1C
1C
1C
1C
1C
1C
1C
1C
1C
1C
1C
1C
FC
FC
FC
ENDCHAR
STARTCHAR 300E
ENCODING 12302
SWIDTH 990 0
DWIDTH 22 0
BBX 8 19 13 0
BITMAP
FF
FF
FF
E3
FF
FF
F8
F8
F8
F8
F8
F8
F8
F8
F8
F8
F8
F8
F8
ENDCHAR
STARTCHAR 300F
ENCODING 12303
SWIDTH 990 0
DWIDTH 22 0
BBX 8 19 1 -2
BITMAP
1F
1F
1B
1B
1B
1B
1B
1B
1B
1B
1B
1B
1B
FB
FB
FB
C3
FF
FF
ENDCHAR
STARTCHAR 3010
ENCODING 12304
SWIDTH 990 0
DWIDTH 22 0
BBX 5 21 16 -2
BITMAP
F8
F8
F0
F0
F0
F0
E0
E0
E0
E0
E0
E0
E0
E0
E0
F0
F0
F0
F0
F8
F8
ENDCHAR
STARTCHAR 3011
ENCODING 12305
SWIDTH 990 0
DWIDTH 22 0
BBX 5 21 1 -2
BITMAP
F8
F8
78
78
78
78
38
38
38
38
38
38
38
38
38
78
78
78
78
F8
F8
ENDCHAR
STARTCHAR 3016
ENCODING 12310
SWIDTH 990 0
DWIDTH 22 0
BBX 7 21 14 -2
BITMAP
FE
FE
FC
CC
DC
DC
D8
D8
D8
D8
D8
D8
D8
D8
D8
D8
DC
CC
FC
FE
FE
ENDCHAR
STARTCHAR 3017
ENCODING 12311
SWIDTH 990 0
DWIDTH 22 0
BBX 7 21 1 -2
BITMAP
FE
FE
7E
66
66
36
36
36
36
36
36
36
36
36
36
76
76
66
7E
FE
FE
ENDCHAR
STARTCHAR 306E
ENCODING 12398
SWIDTH 990 0
DWIDTH 22 0
BBX 18 20 2 -2
BITMAP
FFFFC0
FFFFC0
FFFFC0
E0E1C0
E0E1C0
E0E1C0
E0E1C0
E0E1C0
E0E1C0
E0E1C0
E0E1C0
E0E1C0
E0E1C0
E0E1C0
E0E1C0
E0E1C0
E0E1C0
FFE1C0
FFE1C0
FFE1C0
ENDCHAR
STARTCHAR 30FB
ENCODING 12539
SWIDTH 1035 0
DWIDTH 23 0
BBX 3 4 10 3
BITMAP
E0
E0
E0
E0
ENDCHAR
STARTCHAR 4E00
ENCODING 19968
SWIDTH 990 0
DWIDTH 22 0
BBX 18 3 2 8
BITMAP
7FFFC0
7FFFC0
FFFF80
ENDCHAR
STARTCHAR 4E01
ENCODING 19969
SWIDTH 990 0
DWIDTH 22 0
BBX 18 20 2 -2
BITMAP
7FFFC0
FFFFC0
FFFF80
00E000
00E000
00E000
00E000
00E000
00E000
00E000
00E000
00E000
00E000
00E000
00E000
00E000
00E000
0FE000
07E000
03E000
ENDCHAR
STARTCHAR 4E03
ENCODING 19971
SWIDTH 990 0
DWIDTH 22 0
BBX 18 21 2 -2
BITMAP
038000
038000
038000
038000
038000
0380C0
03FFC0
FFFFC0
FFFC00
FF8000
038000
038000
038000
038000
038000
038000
038000
038000
03FF80
03FF80
03FFC0
ENDCHAR
STARTCHAR 4E07
ENCODING 19975
SWIDTH 990 0
DWIDTH 22 0
BBX 18 20 2 -2
BITMAP
7FFFC0
FFFF80
FFFF80
1C0000
1C0000
1C0000
1FFF00
1FFF00
1FFF00
380700
380700
380700
380700
380700
300700
700700
700700
707F00
703F00
701F00
ENDCHAR
STARTCHAR 4E08
ENCODING 19976
SWIDTH 945 0
DWIDTH 21 0
BBX 18 21 2 -2
BITMAP
001C00
001C00
FFFFC0
FFFF80
FFFF80
001C00
381C00
381C00
381C00
381C00
381C00
3C3C00
3E7C00
0FF800
07E000
03E000
0FF000
1FF800
3E3C00
7C1F00
F00F80
ENDCHAR
STARTCHAR 4E09
ENCODING 19977
SWIDTH 990 0
DWIDTH 22 0
BBX 18 19 2 -2
BITMAP
7FFF80
7FFF80
7FFF00
000000
000000
000000
000000
000000
3FFF00
3FFF00
3FFF00
000000
000000
000000
000000
000000
7FFFC0
FFFFC0
FFFFC0
ENDCHAR
STARTCHAR 4E0A
ENCODING 19978
SWIDTH 990 0
DWIDTH 22 0
BBX 19 20 2 -2
BITMAP
01C000
01C000
01C000
01C000
01C000
01FFC0
01FFC0
01FF80
01C000
01C000
01C000
01C000
01C000
01C000
01C000
01C000
01C000
7FFFE0
7FFFC0
FFFFC0
ENDCHAR
STARTCHAR 4E0B
ENCODING 19979
SWIDTH 990 0
DWIDTH 22 0
BBX 18 20 2 -2
BITMAP
7FFFC0
7FFFC0
FFFF80
01C000
01C000
01C000
01CE00
01C700
01C700
01C700
01C700
01C380
01C380
01C380
01C380
01C000
01C000
01C000
01C000
01C000
ENDCHAR
STARTCHAR 4E0C
ENCODING 19980
SWIDTH 990 0
DWIDTH 22 0
BBX 18 20 2 -2
BITMAP
7FFFC0
FFFFC0
FFFF80
0C0E00
1C0E00
1C0E00
1C0E00
1C0E00
1C0E00
1C0E00
1C0E00
1C0E00
180E00
380E00
380E00
380E00
380E00
380E00
380E00
380E00
ENDCHAR
STARTCHAR 4E0D
ENCODING 19981
SWIDTH 1035 0
DWIDTH 23 0
BBX 18 20 2 -2
BITMAP
3FFFC0
7FFFC0
7FFF80
070000
0F0000
0EE000
0EEE00
1CE700
1CE700
1CE700
38E380
38E380
38E380
70E1C0
70E1C0
F0E1C0
00E000
00E000
00E000
00E000
ENDCHAR
STARTCHAR 4E0E
ENCODING 19982
SWIDTH 990 0
DWIDTH 22 0
BBX 18 21 2 -2
BITMAP
1C0000
1C0000
1FFFC0
1FFFC0
1FFFC0
1C0000
1C0000
1C0000
1FFF80
1FFF80
1FFF80
000380
000380
7FFB80
7FFB80
FFF380
000380
000380
001F80
001F80
000F80
ENDCHAR
STARTCHAR 4E10
ENCODING 19984
SWIDTH 945 0
DWIDTH 21 0
BBX 18 20 1 -2
BITMAP
7FFFC0
7FFFC0
FFFF80
00E000
38FF80
38FF80
38FF00
38E000
38E000
38E000
3FFF80
3FFF80
3FFF80
000380
000380
000380
000380
001F80
001F80
000F80
ENDCHAR
STARTCHAR 4E11
ENCODING 19985
SWIDTH 1035 0
DWIDTH 23 0
BBX 19 20 2 -2
BITMAP
3FFF80
3FFF80
7FFF80
038380
030380
070380
070380
070380
3FFF80
3FFF80
7FFF80
070380
060380
0E0380
0E0380
0E0380
0E0380
7FFFE0
FFFFE0
FFFFE0
ENDCHAR
STARTCHAR 4E13
ENCODING 19987
SWIDTH 945 0
DWIDTH 21 0
BBX 19 21 1 -2
BITMAP
01C000
01C000
3FFFC0
3FFFC0
3FFFC0
078000
078000
7FFFE0
7FFFC0
FFFFC0
0E0000
0E0000
1FFF80
1FFF00
1FFF00
000E00
000E00
001E00
1FFFC0
1FFFC0
3FFF80
ENDCHAR
STARTCHAR 4E14
ENCODING 19988
SWIDTH 990 0
DWIDTH 22 0
BBX 19 20 2 -2
BITMAP
3FFF00
3FFF00
3FFF00
380700
380700
3FFF00
3FFF00
3FFF00
380700
380700
380700
3FFF00
3FFF00
3FFF00
380700
380700
380700
7FFFE0
FFFFC0
FFFFC0
ENDCHAR
STARTCHAR 4E15
ENCODING 19989
SWIDTH 1035 0
DWIDTH 23 0
BBX 19 20 2 -2
BITMAP
7FFFC0
7FFFC0
FFFFC0
0E0000
0E0000
1EE700
1CE700
1CE700
3CE380
38E380
38E380
78E1C0
70E1C0
70E1E0
00E000
00E000
00E000
7FFFE0
7FFFC0
FFFFC0
ENDCHAR
STARTCHAR 4E16
ENCODING 19990
SWIDTH 990 0
DWIDTH 22 0
BBX 19 21 2 -2
BITMAP
01C700
39C700
39C700
39C700
39C700
7FFFE0
FFFFC0
FFFFC0
39C700
39C700
39C700
39C700
39FF00
39FF00
39FF00
380000
380000
380000
3FFFC0
3FFFC0
3FFFC0
ENDCHAR
STARTCHAR 4E18
ENCODING 19992
SWIDTH 990 0
DWIDTH 22 0
BBX 18 20 2 -2
BITMAP
3FFF80
3FFF80
3FFF00
380000
380000
380000
380000
3FFFC0
3FFF80
3FFF80
381C00
381C00
381C00
381C00
381C00
381C00
381C00
FFFFC0
FFFFC0
FFFFC0
ENDCHAR
STARTCHAR 4E19
ENCODING 19993
SWIDTH 1035 0
DWIDTH 23 0
BBX 19 20 2 -2
BITMAP
7FFFE0
7FFFC0
FFFFC0
00E000
00E000
7FFFC0
7FFFC0
7FFFC0
71C1C0
71F1C0
73B9C0
73B9C0
771DC0
771DC0
770FC0
7001C0
7001C0
700FC0
7007C0
7003C0
ENDCHAR
STARTCHAR 4E1A
ENCODING 19994
SWIDTH 1035 0
DWIDTH 23 0
BBX 19 20 2 -1
BITMAP
073800
073800
073800
473900
7739C0
7739C0
7739C0
7739C0
7739C0
7739C0
7739C0
7739C0
7739C0
7739C0
073800
073800
073800
7FFFE0
7FFFC0
FFFFC0
ENDCHAR
STARTCHAR 4E1B
ENCODING 19995
SWIDTH 990 0
DWIDTH 22 0
BBX 20 21 1 -2
BITMAP
070380
070380
060300
0E0700
0E0700
0E0700
0E0700
0F0F80
1F0F80
1F8FC0
1F8FC0
1F8FC0
3B9DC0
399CC0
399CC0
39DCE0
39D8E0
000000
7FFFF0
7FFFE0
FFFFE0
ENDCHAR
STARTCHAR 4E1C
ENCODING 19996
SWIDTH 990 0
DWIDTH 22 0
BBX 18 21 2 -1
BITMAP
070000
0E0000
7FFFC0
FFFFC0
FFFF80
1C0000
1CE000
38E000
38E000
3FFF80
7FFF80
7FFF00
00E000
38E700
38E700
30E380
70E380
70E380
77E180
63E1C0
E1E1C0
ENDCHAR
STARTCHAR 4E1D
ENCODING 19997
SWIDTH 990 0
DWIDTH 22 0
BBX 18 20 2 -1
BITMAP
1C0E00
1C0E00
3C1E00
381C00
381C00
783C00
7FBFC0
7FBFC0
FF7F80
1C1E00
381C00
381C00
783800
7FBFC0
7FBFC0
FF7F80
000000
7FFFC0
FFFFC0
FFFFC0
ENDCHAR
STARTCHAR 4E1E
ENCODING 19998
SWIDTH 990 0
DWIDTH 22 0
BBX 19 20 1 -2
BITMAP
0FFFC0
1FFF80
3FFF00
001E00
007800
3F7FE0
7F7FE0
7E7FC0
0E7E00
0E7700
1C7780
1C7380
3873C0
3871C0
7071E0
006000
000000
7FFFE0
7FFFE0
FFFFE0
ENDCHAR
STARTCHAR 4E22
ENCODING 20002
SWIDTH 1035 0
DWIDTH 23 0
BBX 19 20 2 -2
BITMAP
3FFFC0
7FFFC0
7FFF80
00E000
00E000
3FFF80
3FFF80
3FFF80
00E000
00E000
7FFFE0
7FFFC0
FFFFC0
0E0000
1C0300
1C0380
1C0380
3FFF80
3FFF80
3FFF80
ENDCHAR
STARTCHAR 4E24
ENCODING 20004
SWIDTH 1035 0
DWIDTH 23 0
BBX 19 20 2 -2
BITMAP
7FFFE0
7FFFC0
FFFFC0
071C00
7FFFC0
7FFFC0
7FFFC0
7719C0
7739C0
77BDC0
7FBDC0
7FBFC0
7FB7C0
7DF7C0
7C77C0
7C77C0
7001C0
7007C0
7007C0
7003C0
ENDCHAR
STARTCHAR 4E25
ENCODING 20005
SWIDTH 990 0
DWIDTH 22 0
BBX 17 20 3 -2
BITMAP
FFFF80
FFFF80
FFFF00
077400
777700
777700
777700
077000
FFFF80
FFFF80
FFFF00
E00000
E00000
E00000
E00000
E00000
E00000
E00000
E00000
E00000
ENDCHAR
STARTCHAR 4E27
ENCODING 20007
SWIDTH 990 0
DWIDTH 22 0
BBX 19 21 1 -1
BITMAP
00E000
00E000
3FFFE0
3FFFC0
7FFFC0
10E200
1CE380
1CE380
1CE380
7FFFE0
7FFFE0
FFFFE0
1C0000
1C1C00
1C0FE0
1C0FE0
1C07C0
1C0780
1F8380
1F8380
1FC1C0
ENDCHAR
STARTCHAR 4E28
ENCODING 20008
SWIDTH 1035 0
DWIDTH 23 0
BBX 3 21 10 -2
BITMAP
E0
E0
E0
E0
E0
E0
E0
E0
E0
E0
E0
E0
E0
E0
E0
E0
E0
E0
E0
E0
E0
ENDCHAR
STARTCHAR 4E2A
ENCODING 20010
SWIDTH 1035 0
DWIDTH 23 0
BBX 19 20 2 -2
BITMAP
1FFF00
1FFF00
3FFF00
380380
780380
70E1C0
70E1C0
E0E0E0
00E000
00E000
00E000
00E000
00E000
00E000
00E000
00E000
00E000
00E000
00E000
00E000
ENDCHAR
STARTCHAR 4E2B
ENCODING 20011
SWIDTH 1035 0
DWIDTH 23 0
BBX 17 21 3 -2
BITMAP
E00380
700700
700F00
380E00
1C1C00
1C3C00
0E3800
000000
01C000
01C000
01C000
01C000
01C000
01C000
01C000
01C000
01C000
01C000
01C000
01C000
01C000
ENDCHAR
STARTCHAR 4E2C
ENCODING 20012
SWIDTH 990 0
DWIDTH 22 0
BBX 8 21 7 -2
BITMAP
07
07
87
E7
E7
E7
E7
E7
07
07
87
E7
E7
E7
E7
E7
E7
E7
07
07
07
ENDCHAR
STARTCHAR 4E2D
ENCODING 20013
SWIDTH 990 0
DWIDTH 22 0
BBX 17 21 2 -2
BITMAP
01C000
01C000
01C000
01C000
FFFF80
FFFF80
FFFF80
E1C380
E1C380
E1C380
E1C380
E1C380
FFFF80
EFFF80
EFFF80
01C000
01C000
01C000
01C000
01C000
01C000
ENDCHAR
STARTCHAR 4E30
ENCODING 20016
SWIDTH 945 0
DWIDTH 21 0
BBX 19 21 1 -2
BITMAP
00E000
00E000
00E000
7FFFC0
7FFFC0
7FFF80
00E000
00E000
3FFF80
3FFF80
3FFF80
00E000
00E000
00E000
7FFFE0
7FFFC0
FFFFC0
00E000
00E000
00E000
00E000
ENDCHAR
STARTCHAR 4E32
ENCODING 20018
SWIDTH 945 0
DWIDTH 21 0
BBX 17 21 2 -2
BITMAP
01C000
01C000
FFFF80
FFFF80
FFFF80
E1C380
FFFF80
EFFF80
EFFF80
01C000
FFFF80
FFFF80
FFFF80
E1C380
E1C380
FFFF80
FFFF80
EFFF80
01C000
01C000
01C000
ENDCHAR
STARTCHAR 4E34
ENCODING 20020
SWIDTH 990 0
DWIDTH 22 0
BBX 18 21 2 -1
BITMAP
1D8000
1DC000
FDFFC0
FDFFC0
FDFFC0
FDC600
FDC700
FDC700
FDC700
FC0000
FDFFC0
FDFFC0
FDFFC0
FDDDC0
FDDDC0
FDDDC0
FDDDC0
FDDDC0
FDFFC0
1DFFC0
1DDFC0
ENDCHAR
STARTCHAR 4E36
ENCODING 20022
SWIDTH 1035 0
DWIDTH 23 0
BBX 3 9 10 6
BITMAP
C0
E0
E0
E0
E0
E0
E0
E0
E0
ENDCHAR
STARTCHAR 4E38
ENCODING 20024
SWIDTH 990 0
DWIDTH 22 0
BBX 18 21 2 -2
BITMAP
070000
0E0000
0E0000
7FFE00
FFFE00
FFFE00
1C0E00
1C0E00
1C0E00
1C0E00
980E00
F80E00
FF0E00
3F8E00
3F8E00
700E00
700E00
700E00
700F80
600F80
E00FC0
ENDCHAR
STARTCHAR 4E39
ENCODING 20025
SWIDTH 1035 0
DWIDTH 23 0
BBX 19 20 2 -2
BITMAP
3FFF80
3FFF80
3FFF80
380380
38C380
38E380
38E380
38E380
380380
FFFFE0
FFFFE0
FFFFE0
380380
380380
380380
380380
380380
381F80
381F80
380F80
ENDCHAR
STARTCHAR 4E3A
ENCODING 20026
SWIDTH 1035 0
DWIDTH 23 0
BBX 17 21 3 -1
BITMAP
318000
3B8000
3B8000
3B0000
7FFF80
FFFF80
FFFF80
060380
060380
0E8380
0EC380
0CE380
1CE380
1CE380
1CE380
38E380
380380
380380
383F80
703F80
701F80
ENDCHAR
STARTCHAR 4E3B
ENCODING 20027
SWIDTH 1035 0
DWIDTH 23 0
BBX 19 20 2 -1
BITMAP
01C000
00C000
3FFFC0
7FFFC0
7FFFC0
00E000
00E000
00E000
00E000
3FFF80
3FFF80
3FFF80
00E000
00E000
00E000
00E000
00E000
7FFFE0
FFFFE0
FFFFC0
ENDCHAR
STARTCHAR 4E3D
ENCODING 20029
SWIDTH 990 0
DWIDTH 22 0
BBX 19 20 1 -2
BITMAP
7FFFE0
7FFFE0
FFFFE0
000000
7FBFE0
7FBFE0
7FBFE0
73B8E0
7BBCE0
7FBEE0
7FBEE0
7FBEE0
7FBEE0
7FBEE0
7FBEE0
73B8E0
73B8E0
77BBE0
73B9E0
73B9E0
ENDCHAR
STARTCHAR 4E3E
ENCODING 20030
SWIDTH 990 0
DWIDTH 22 0
BBX 18 20 2 -1
BITMAP
38E700
38E700
38E700
7FFFC0
7FFFC0
FFFF80
1C0E00
38E700
38E700
7FFF80
7FFF80
EFFDC0
00E000
00E000
7FFFC0
FFFFC0
FFFF80
00E000
00E000
00E000
ENDCHAR
STARTCHAR 4E3F
ENCODING 20031
SWIDTH 990 0
DWIDTH 22 0
BBX 5 21 9 -2
BITMAP
38
38
38
38
38
38
38
38
38
38
38
38
30
70
70
70
70
E0
E0
E0
E0
ENDCHAR
STARTCHAR 4E43
ENCODING 20035
SWIDTH 990 0
DWIDTH 22 0
BBX 18 20 2 -2
BITMAP
7FFF00
7FFF00
FFFF00
1C0F00
1C0E00
1C1C00
1C1C00
1C1FC0
381FC0
381FC0
3801C0
3801C0
3801C0
3001C0
7001C0
7001C0
7001C0
701FC0
600FC0
E00FC0
ENDCHAR
STARTCHAR 4E45
ENCODING 20037
SWIDTH 990 0
DWIDTH 22 0
BBX 18 21 2 -1
BITMAP
400000
700000
7FFE00
7FFE00
7FFE00
700E00
700E00
700E00
000E00
001E00
003C00
007800
00F000
01F000
03F800
07BC00
0F1C00
1E1E00
3C0F00
780780
F003C0
ENDCHAR
STARTCHAR 4E47
ENCODING 20039
SWIDTH 990 0
DWIDTH 22 0
BBX 18 20 2 -2
BITMAP
7FFF80
7FFF80
7FFF80
01C000
01C000
01C000
01C000
01C000
FFFFC0
FFFFC0
FFFFC0
01C000
01C000
01C000
01C000
01C000
01C000
01FF80
01FFC0
01FFC0
ENDCHAR
STARTCHAR 4E48
ENCODING 20040
SWIDTH 990 0
DWIDTH 22 0
BBX 18 21 2 -2
BITMAP
070000
070000
0E0000
0E3800
0E7800
1C7000
1C7000
38E000
38E000
39E000
71C000
71C000
E38100
E38180
0781C0
0701C0
0F01C0
0E01C0
0FFFC0
1FFFC0
1FFFC0
ENDCHAR
STARTCHAR 4E49
ENCODING 20041
SWIDTH 1035 0
DWIDTH 23 0
BBX 18 21 2 -1
BITMAP
00C000
00E000
38E380
38E380
38E380
38E380
38E380
380380
380380
3C0780
3E0F00
0F1E00
07BC00
03F800
01F000
03F800
07BC00
0F1E00
1E0F00
3C0780
F803C0
ENDCHAR
STARTCHAR 4E4B
ENCODING 20043
SWIDTH 945 0
DWIDTH 21 0
BBX 18 21 2 -2
BITMAP
010000
01C000
01C000
FFFF00
FFFF00
FFFF00
000F00
001E00
003C00
007800
00F000
01E000
01E000
03C000
078000
0F0000
1E0000
3C0000
7FFFC0
7FFF80
F7FF00
ENDCHAR
STARTCHAR 4E4C
ENCODING 20044
SWIDTH 1035 0
DWIDTH 23 0
BBX 18 21 3 -1
BITMAP
018000
3FFF00
3FFF00
3FFF00
380700
380700
380700
38FF00
387F00
387F00
3FFFC0
3FFFC0
3FFFC0
0001C0
FFF9C0
FFF9C0
FFF1C0
0001C0
007FC0
007FC0
003FC0
ENDCHAR
STARTCHAR 4E4D
ENCODING 20045
SWIDTH 990 0
DWIDTH 22 0
BBX 18 21 2 -1
BITMAP
C00000
E00000
FFFFC0
FFFF80
FFFF80
E70000
E70000
E70000
07FF00
07FF00
07FE00
070000
070000
07FF80
07FF00
07FF00
070000
070000
070000
070000
070000
ENDCHAR
STARTCHAR 4E4E
ENCODING 20046
SWIDTH 990 0
DWIDTH 22 0
BBX 18 20 2 -2
BITMAP
7FFF80
7FFF80
FFFF00
01C000
31C600
39C700
39C700
39C700
39C700
FFFFC0
FFFFC0
FFFFC0
01C000
01C000
01C000
01C000
01C000
07C000
07C000
03C000
ENDCHAR
STARTCHAR 4E4F
ENCODING 20047
SWIDTH 990 0
DWIDTH 22 0
BBX 18 20 2 -2
BITMAP
7FFFC0
7FFF80
FFFF00
000000
00E000
00E000
7FFF00
7FFF00
7FFF00
001E00
003C00
007800
00F000
01E000
03C000
078000
0F0000
1FFFC0
3FFF80
FBFF80
ENDCHAR
STARTCHAR 4E50
ENCODING 20048
SWIDTH 990 0
DWIDTH 22 0
BBX 18 20 2 -2
BITMAP
7FFF80
7FFF00
7FFF00
700000
70E000
70E000
70E000
70E000
7FFFC0
7FFF80
7FFF80
00E000
38E300
70E380
70E380
70E380
70E380
67E180
E3E1C0
E3E1C0
ENDCHAR
STARTCHAR 4E52
ENCODING 20050
SWIDTH 1035 0
DWIDTH 23 0
BBX 19 20 2 -2
BITMAP
3FFFC0
3FFF80
3FFF80
380000
380000
3FFFE0
3FFFC0
3FFFC0
380E00
380E00
380E00
380E00
7FFFE0
FFFFE0
FFFFC0
000000
1C0000
380000
700000
700000
ENDCHAR
STARTCHAR 4E53
ENCODING 20051
SWIDTH 1035 0
DWIDTH 23 0
BBX 19 20 2 -2
BITMAP
3FFFC0
3FFF80
3FFF80
380000
380000
3FFFE0
3FFFC0
3FFFC0
380E00
380E00
380E00
380E00
7FFFE0
FFFFE0
FFFFE0
000000
000700
000380
0003C0
0001C0
ENDCHAR
STARTCHAR 4E54
ENCODING 20052
SWIDTH 990 0
DWIDTH 22 0
BBX 18 20 2 -2
BITMAP
3FFF80
3FFF80
7FFF00
070000
0F0000
7FFFC0
FFFFC0
FFFFC0
380700
380780
700380
7003C0
000000
1C0E00
1C0E00
1C0E00
180E00
380E00
380E00
380E00
ENDCHAR
STARTCHAR 4E56
ENCODING 20054
SWIDTH 990 0
DWIDTH 22 0
BBX 20 20 1 -2
BITMAP
3FFFE0
3FFFC0
7FFFC0
00E000
7FFFE0
7FFFE0
FFFFC0
00E000
0EE700
7EE760
7EE7E0
7EE7E0
0EE700
7EE700
7EE700
FEE7E0
0EE7E0
0EE7F0
00E000
00E000
ENDCHAR
STARTCHAR 4E58
ENCODING 20056
SWIDTH 1035 0
DWIDTH 23 0
BBX 19 20 2 -2
BITMAP
3FFFC0
3FFF80
7FFF80
7FFFE0
7FFFC0
FFFFC0
00E000
7EEFC0
7EEFC0
7EEFC0
0EEE00
7EEFC0
7EEFC0
FEEFE0
0EE000
1CE700
38E380
38E380
70E1C0
70E1C0
ENDCHAR
STARTCHAR 4E59
ENCODING 20057
SWIDTH 1035 0
DWIDTH 23 0
BBX 19 20 2 -2
BITMAP
7FFF80
7FFF80
7FFF80
000F00
000E00
001E00
003C00
007800
00F000
01E000
03C000
078000
0F0000
1F0000
3E0000
3C0000
780000
FFFFC0
FFFFC0
FFFFE0
ENDCHAR
STARTCHAR 4E5C
ENCODING 20060
SWIDTH 990 0
DWIDTH 22 0
BBX 19 20 2 -2
BITMAP
1C0000
1C0000
1C0380
1CFF80
1FFF80
FFF380
FC0380
1C0380
1C0380
1C0380
1C0380
1C0380
1C1F80
1C1F80
1C0F80
1C0000
1C0000
1FFFC0
1FFFC0
1FFFE0
ENDCHAR
STARTCHAR 4E5D
ENCODING 20061
SWIDTH 990 0
DWIDTH 22 0
BBX 19 21 1 -2
BITMAP
070000
070000
070000
070000
7FFF00
7FFF00
FFFF00
0E0700
0E0700
1C0700
1C0700
1C0700
1C0700
3C0700
380700
380700
380700
380700
7007C0
7007C0
7007E0
ENDCHAR
STARTCHAR 4E5E
ENCODING 20062
SWIDTH 990 0
DWIDTH 22 0
BBX 17 21 2 -1
BITMAP
C00000
E00000
FFFF80
FFFF00
FFFF00
E00000
000000
7FFE00
7FFE00
7FFE00
003C00
00F800
01F000
03E000
078000
1F0000
3E0000
7C0000
FFFF00
FFFF00
FFFF80
ENDCHAR
STARTCHAR 4E5F
ENCODING 20063
SWIDTH 990 0
DWIDTH 22 0
BBX 19 21 2 -2
BITMAP
00E000
38E000
38E000
38E780
39FF80
3FFF80
FFF380
FCE380
B8E380
38E380
38E380
38E380
38E380
38EF80
38E780
38E780
38E000
380000
3FFFC0
3FFFC0
3FFFE0
ENDCHAR
STARTCHAR 4E60
ENCODING 20064
SWIDTH 990 0
DWIDTH 22 0
BBX 16 20 3 -2
BITMAP
7FFF
FFFF
FFFF
0007
0007
0007
7FC7
7FC7
7FC7
0007
0007
0027
01E7
0FE7
7F87
FC07
E007
007F
007F
003F
ENDCHAR
STARTCHAR 4E61
ENCODING 20065
SWIDTH 990 0
DWIDTH 22 0
BBX 17 20 2 -1
BITMAP
0F0000
0E0000
1E0000
1C0000
3FFF80
3FFF80
7FFF00
0E0000
1C0380
3C0380
3FFF80
7FFF80
7FFF80
000380
000F80
007F80
07FF00
7FF000
FF0000
F00000
ENDCHAR
STARTCHAR 4E66
ENCODING 20070
SWIDTH 1035 0
DWIDTH 23 0
BBX 19 21 2 -2
BITMAP
01C180
01C1C0
01C1C0
1FFF80
3FFF80
3FFF80
01C380
01C380
01C380
01C380
7FFFE0
7FFFE0
FFFFE0
01C0E0
01C0E0
01C0E0
01C0E0
01C7E0
01C3E0
01C3E0
01C000
ENDCHAR
STARTCHAR 4E69
ENCODING 20073
SWIDTH 990 0
DWIDTH 22 0
BBX 19 21 1 -2
BITMAP
0E1C00
0E1C00
0E1C00
0FFC00
0FDC00
0FDC00
0E1C00
0E1C00
0E1C00
0E1C00
FFDC00
FFDC00
FFDC00
E1DC00
E1DC00
E1DC00
E1DC00
E1DC00
EFDFC0
EFDFC0
E7DFE0
ENDCHAR
STARTCHAR 4E70
ENCODING 20080
SWIDTH 990 0
DWIDTH 22 0
BBX 18 20 2 -2
BITMAP
3FFFC0
7FFFC0
7FFFC0
3E71C0
7E71C0
7E71C0
0071C0
3E71C0
7E71C0
7C7000
007000
7FFFC0
FFFFC0
FFFFC0
0F3C00
0E1E00
1C0F00
3C0780
780380
F001C0
ENDCHAR
STARTCHAR 4E71
ENCODING 20081
SWIDTH 1035 0
DWIDTH 23 0
BBX 19 20 2 -2
BITMAP
7FDC00
FFDC00
FF9C00
1C1C00
1C1C00
FFDC00
FFDC00
FFDC00
1C1C00
1C1C00
FFDC00
FFDC00
FFDC00
E1DC00
E1DC00
E1DC00
E1DC00
FFDFC0
FFDFC0
EFDFE0
ENDCHAR
STARTCHAR 4E73
ENCODING 20083
SWIDTH 990 0
DWIDTH 22 0
BBX 19 21 1 -3
BITMAP
001C00
7FFC00
7FFC00
FFFC00
489C00
7EFC00
7EFC00
7EFC00
3FDC00
7FDC00
7F9C00
071C00
7FFC00
7FFC00
FFDC00
0E1C00
0E1C00
0E1C00
0E1FC0
0E1FC0
0C1FE0
ENDCHAR
STARTCHAR 4E7E
ENCODING 20094
SWIDTH 990 0
DWIDTH 22 0
BBX 19 21 2 -1
BITMAP
1C6000
FFF000
FFFFE0
FF7FC0
1C7FC0
FFF000
FFF000
FFBFC0
E3BFC0
FFBFC0
FF83C0
E38780
EF8F00
EF8F00
001E00
FF9E00
FFBC00
FFB800
1C7FC0
1C7FC0
1C7FE0
ENDCHAR
STARTCHAR 4E86
ENCODING 20102
SWIDTH 990 0
DWIDTH 22 0
BBX 17 20 2 -2
BITMAP
7FFF80
7FFF00
FFFF00
001E00
001C00
003800
007800
00F000
00E000
00E000
00E000
00E000
00E000
00E000
00E000
00E000
00E000
0FE000
07E000
07E000
ENDCHAR
STARTCHAR 4E88
ENCODING 20104
SWIDTH 990 0
DWIDTH 22 0
BBX 18 20 2 -2
BITMAP
3FFF80
7FFF00
7FFF00
080700
0E0E00
0E0E00
0E1C00
FFFFC0
FFFFC0
FFFFC0
00E1C0
00E1C0
00E1C0
00E1C0
00E000
00E000
00E000
07E000
03E000
03E000
ENDCHAR
STARTCHAR 4E89
ENCODING 20105
SWIDTH 990 0
DWIDTH 22 0
BBX 20 21 1 -2
BITMAP
0C0000
1FFF80
1FFF00
1FFF00
380F00
1FFFC0
1FFFC0
3FFFC0
00E1C0
7FFFF0
7FFFF0
FFFFE0
00E1C0
00E1C0
1FFFC0
3FFFC0
3FFFC0
00E000
07E000
03E000
01E000
ENDCHAR
STARTCHAR 4E8B
ENCODING 20107
SWIDTH 1035 0
DWIDTH 23 0
BBX 19 21 2 -2
BITMAP
00E000
7FFFE0
7FFFC0
7FFFC0
3FFF80
3FFF80
38E380
3FFF80
3BFF80
00E000
3FFFC0
3FFFC0
00E1C0
FFFFE0
FFFFE0
FFFFE0
3FFFC0
3FFFC0
00E000
03E000
03E000
ENDCHAR
STARTCHAR 4E8C
ENCODING 20108
SWIDTH 990 0
DWIDTH 22 0
BBX 18 17 2 0
BITMAP
3FFF80
3FFF80
7FFF00
000000
000000
000000
000000
000000
000000
000000
000000
000000
000000
000000
7FFFC0
7FFFC0
FFFF80
ENDCHAR
STARTCHAR 4E8D
ENCODING 20109
SWIDTH 990 0
DWIDTH 22 0
BBX 19 20 2 -2
BITMAP
3FFF80
7FFF80
7FFF00
000000
000000
000000
7FFFE0
FFFFC0
FFFFC0
00E000
00E000
00E000
00E000
00E000
00E000
00E000
00E000
07E000
07E000
03E000
ENDCHAR
STARTCHAR 4E8E
ENCODING 20110
SWIDTH 990 0
DWIDTH 22 0
BBX 19 20 2 -2
BITMAP
3FFF80
3FFF80
7FFF00
00E000
00E000
00E000
00E000
7FFFE0
7FFFC0
FFFFC0
00E000
00E000
00E000
00E000
00E000
00E000
00E000
07E000
07E000
03E000
ENDCHAR
STARTCHAR 4E8F
ENCODING 20111
SWIDTH 1035 0
DWIDTH 23 0
BBX 19 20 2 -2
BITMAP
3FFFC0
3FFF80
7FFF00
000000
000000
7FFFE0
FFFFC0
FFFFC0
1C0000
1C0000
1FFF80
1FFF80
1FFF80
000380
000380
000380
000380
003F80
003F80
001F80
ENDCHAR
STARTCHAR 4E91
ENCODING 20113
SWIDTH 990 0
DWIDTH 22 0
BBX 19 20 2 -2
BITMAP
3FFF80
3FFF80
7FFF00
000000
000000
000000
000000
7FFFE0
FFFFC0
FFFFC0
0E0000
0E0000
1C0200
1C0380
1C0380
3C0380
380380
3FFF80
7FFF80
7FFF80
ENDCHAR
STARTCHAR 4E92
ENCODING 20114
SWIDTH 990 0
DWIDTH 22 0
BBX 19 20 2 -2
BITMAP
7FFFC0
FFFFC0
FFFF80
1C0000
1C0000
1C0000
1FFF00
1FFF00
3FFF00
380700
380700
3FFE00
3FFE00
7FFE00
000E00
000E00
000E00
FFFFE0
FFFFC0
FFFFC0
ENDCHAR
STARTCHAR 4E93
ENCODING 20115
SWIDTH 990 0
DWIDTH 22 0
BBX 18 20 2 -2
BITMAP
3FFF80
7FFF80
7FFF80
000000
000000
000000
000000
7FFFC0
FFFFC0
FFFFC0
1C0E00
1C0E00
1C0E00
380E00
380E00
380E00
380E00
300E00
700E00
700E00
ENDCHAR
STARTCHAR 4E94
ENCODING 20116
SWIDTH 990 0
DWIDTH 22 0
BBX 19 20 2 -2
BITMAP
7FFFC0
7FFF80
FFFF80
038000
038000
070000
070000
3FFF00
7FFF00
7FFF00
0E0700
0E0700
0E0700
0E0700
0E0700
0C0700
1C0700
FFFFE0
FFFFC0
FFFFC0
ENDCHAR
STARTCHAR 4E95
ENCODING 20117
SWIDTH 1035 0
DWIDTH 23 0
BBX 19 21 2 -2
BITMAP
070E00
070E00
070E00
070E00
3FFFC0
7FFFC0
7FFFC0
0E0E00
0E0E00
0E0E00
0E0E00
7FFFE0
FFFFE0
FFFFC0
0E0E00
0E0E00
0C0E00
1C0E00
1C0E00
1C0E00
1C0E00
ENDCHAR
STARTCHAR 4E98
ENCODING 20120
SWIDTH 990 0
DWIDTH 22 0
BBX 18 20 2 -2
BITMAP
7FFFC0
FFFFC0
FFFF80
000000
3FFF00
3FFF00
3FFF00
380700
3FFF00
3FFF00
3FFF00
380700
380700
3FFF00
3BFF00
3BFF00
000000
FFFFC0
FFFFC0
FFFFC0
ENDCHAR
STARTCHAR 4E9A
ENCODING 20122
SWIDTH 990 0
DWIDTH 22 0
BBX 18 20 2 -2
BITMAP
7FFFC0
FFFF80
FFFF80
073800
073800
473A00
773B80
773B80
773B80
773B80
773B80
773B80
773B80
773B80
773B80
073800
073800
FFFFC0
FFFFC0
FFFFC0
ENDCHAR
STARTCHAR 4E9B
ENCODING 20123
SWIDTH 990 0
DWIDTH 22 0
BBX 19 20 1 -2
BITMAP
039C00
039C00
3B9C00
3BFFC0
3BDFC0
3BDF80
3B9C00
3B9C00
3B9C00
7FFFC0
7FDFC0
FFDFE0
000000
3FFFC0
3FFF80
3FFF80
000000
7FFFE0
7FFFE0
FFFFC0
ENDCHAR
STARTCHAR 4E9F
ENCODING 20127
SWIDTH 990 0
DWIDTH 22 0
BBX 20 20 1 -2
BITMAP
1FFF80
3FFF80
3FFF80
001F00
007C00
7F7FE0
7F7FE0
7F7FE0
777EE0
777EE0
777EE0
777FC0
777780
7F7780
7F77C0
7F7EE0
004000
7FFFF0
7FFFE0
FFFFE0
ENDCHAR
STARTCHAR 4EA0
ENCODING 20128
SWIDTH 1035 0
DWIDTH 23 0
BBX 19 6 2 14
BITMAP
008000
00E000
00E000
7FFFE0
FFFFE0
FFFFC0
ENDCHAR
STARTCHAR 4EA1
ENCODING 20129
SWIDTH 990 0
DWIDTH 22 0
BBX 19 21 1 -2
BITMAP
008000
00E000
00E000
7FFFE0
7FFFE0
FFFFC0
1C0000
1C0000
1C0000
1C0000
1C0000
1C0000
1C0000
1C0000
1C0000
1C0000
1C0000
1C0000
1FFFC0
1FFF80
1FFF80
ENDCHAR
STARTCHAR 4EA2
ENCODING 20130
SWIDTH 990 0
DWIDTH 22 0
BBX 19 21 2 -1
BITMAP
018000
01C000
7FFFC0
FFFFC0
FFFF80
000000
000000
1FFE00
1FFE00
1FFE00
1C0E00
1C0E00
1C0E00
1C0E00
1C0E00
1C0E00
380E00
380E00
700FC0
700FC0
600FE0
ENDCHAR
STARTCHAR 4EA4
ENCODING 20132
SWIDTH 990 0
DWIDTH 22 0
BBX 18 21 2 -3
BITMAP
010000
01C000
7FFFC0
7FFF80
FFFF80
3C0F00
380700
780780
700380
000000
380700
380700
380700
3C0F00
3F7F00
0FFC00
07F800
1FFE00
7E1F80
F807C0
C001C0
ENDCHAR
STARTCHAR 4EA5
ENCODING 20133
SWIDTH 1035 0
DWIDTH 23 0
BBX 19 21 2 -1
BITMAP
00C000
00E000
7FFFE0
7FFFC0
FFFFC0
0F0000
0E0000
1CF780
1CE700
39EE00
3FCE00
7F9C00
7F9800
073E00
0F7E00
0E7700
1CE700
3CC380
39C380
7B83C0
7381C0
ENDCHAR
STARTCHAR 4EA6
ENCODING 20134
SWIDTH 1035 0
DWIDTH 23 0
BBX 19 21 2 -1
BITMAP
00C000
00E000
7FFFE0
7FFFE0
FFFFC0
071C00
071C00
071C00
771DC0
771DC0
771DC0
771DC0
771CC0
771CE0
661CE0
EE1CE0
EE1CE0
0E1C00
0EFC00
0E7C00
0E3C00
ENDCHAR
STARTCHAR 4EA7
ENCODING 20135
SWIDTH 1035 0
DWIDTH 23 0
BBX 18 21 2 -2
BITMAP
008000
00E000
7FFFC0
7FFFC0
FFFF80
080800
0E0E00
0E0E00
7FFFC0
7FFFC0
7FFFC0
700000
700000
700000
700000
700000
700000
700000
700000
700000
700000
ENDCHAR
STARTCHAR 4EA8
ENCODING 20136
SWIDTH 1035 0
DWIDTH 23 0
BBX 19 21 2 -2
BITMAP
00E000
7FFFE0
FFFFE0
FFFFC0
000000
3FFF00
3FFF00
3FFF00
3FFF00
3BFF00
3BFF00
3FFF80
7FFF80
7FFF80
001F00
007C00
00F800
00E000
00E000
00E000
00E000
ENDCHAR
STARTCHAR 4EA9
ENCODING 20137
SWIDTH 945 0
DWIDTH 21 0
BBX 19 20 1 -1
BITMAP
00E000
00E000
7FFFE0
7FFFC0
FFFFC0
000000
3FFF80
3FFF80
3FFF80
38E380
38E380
38E380
3FFF80
3FFF80
3FFF80
38E380
38E380
3FFF80
3BFF80
3BFF80
ENDCHAR
STARTCHAR 4EAB
ENCODING 20139
SWIDTH 1035 0
DWIDTH 23 0
BBX 19 21 2 -1
BITMAP
00E000
7FFFE0
7FFFC0
FFFFC0
3FFF80
3FFF80
3FFF80
380380
3FFF80
3BFF80
3BFF80
3FFF80
7FFF80
7FFF80
000F00
7FFFE0
FFFFE0
FFFFC0
007000
007000
004000
ENDCHAR
STARTCHAR 4EAC
ENCODING 20140
SWIDTH 990 0
DWIDTH 22 0
BBX 18 21 2 -1
BITMAP
00E000
00E000
7FFFC0
FFFFC0
FFFF80
000000
3FFF00
3FFF00
3FFF00
380700
380700
3FFF00
3BFF00
3BFF00
00E000
38E700
38E700
70E380
73E380
63E180
E1E1C0
ENDCHAR
STARTCHAR 4EAD
ENCODING 20141
SWIDTH 1035 0
DWIDTH 23 0
BBX 19 21 2 -1
BITMAP
00E000
7FFFE0
FFFFC0
FFFFC0
3FFF00
3FFF00
380700
3BFF00
3BFF00
000000
FFFFE0
FFFFE0
FFFFE0
000000
7FFFC0
7FFFC0
FFFFC0
00E000
03E000
01E000
01E000
ENDCHAR
STARTCHAR 4EAE
ENCODING 20142
SWIDTH 1035 0
DWIDTH 23 0
BBX 19 21 2 -2
BITMAP
00E000
7FFFE0
7FFFC0
FFFFC0
1FFF00
1FFF00
1FFF00
1FFF00
1DFF00
1DFF00
FFFFE0
FFFFE0
FFFFE0
E000E0
0FFF00
0FFF00
0FFF00
1C0700
1C07C0
3807C0
3807E0
ENDCHAR
STARTCHAR 4EB2
ENCODING 20146
SWIDTH 1035 0
DWIDTH 23 0
BBX 18 21 2 -2
BITMAP
008000
00E000
3FFFC0
7FFF80
7FFF80
0C0C00
0E0E00
7FFFC0
7FFFC0
FFFFC0
00E000
00E000
3FFFC0
7FFF80
7FFF80
00E000
38E380
38E380
73E180
71E1C0
71E1C0
ENDCHAR
STARTCHAR 4EB3
ENCODING 20147
SWIDTH 1035 0
DWIDTH 23 0
BBX 19 21 2 -2
BITMAP
00E000
7FFFC0
FFFFC0
FFFF80
1FFF00
1FFF00
1C0700
1FFF00
1FFF00
FFFFE0
FFFFE0
FFFFE0
3FFF80
3FFF80
3FFF00
FFFFC0
FFFFC0
FFFFC0
01FFC0
01FFC0
01FFE0
ENDCHAR
STARTCHAR 4EB5
ENCODING 20149
SWIDTH 990 0
DWIDTH 22 0
BBX 19 21 1 -1
BITMAP
00E000
7FFFE0
7FFFE0
FFFFE0
1C1C00
7F7FC0
7F7FC0
1CFFC0
7F7DC0
7F7DC0
1CFDE0
7C71E0
3C71E0
000000
1E1FE0
1C0FE0
3E0FC0
7E0780
EFC3C0
0FE1C0
0FF1E0
ENDCHAR
STARTCHAR 4EBA
ENCODING 20154
SWIDTH 1035 0
DWIDTH 23 0
BBX 17 21 3 -2
BITMAP
01C000
01C000
01C000
01C000
01C000
01C000
01C000
01C000
01C000
03C000
03E000
077000
077000
0E3800
1E3C00
1C1C00
380E00
380E00
700700
F00780
E00380
ENDCHAR
STARTCHAR 4EBB
ENCODING 20155
SWIDTH 1035 0
DWIDTH 23 0
BBX 6 21 1 -1
BITMAP
1C
38
38
38
70
70
70
F8
F8
38
38
38
38
38
38
38
38
38
38
38
38
ENDCHAR
STARTCHAR 4EBF
ENCODING 20159
SWIDTH 1035 0
DWIDTH 23 0
BBX 19 21 2 -2
BITMAP
1C0000
39FFC0
39FFC0
39FFC0
7003C0
700380
E00700
F80F00
F80E00
381E00
381C00
383C00
387800
387000
38F000
38E000
39E000
3BC000
3BFFC0
3BFFE0
3BFFE0
ENDCHAR
STARTCHAR 4EC0
ENCODING 20160
SWIDTH 990 0
DWIDTH 22 0
BBX 19 21 2 -2
BITMAP
1C1C00
381C00
381C00
381C00
701C00
701C00
E01C00
F9FFE0
FBFFE0
3BFFC0
381C00
381C00
381C00
381C00
381C00
381C00
381C00
381C00
381C00
381C00
381C00
ENDCHAR
STARTCHAR 4EC1
ENCODING 20161
SWIDTH 990 0
DWIDTH 22 0
BBX 19 21 2 -1
BITMAP
380000
39FFC0
39FFC0
71FFC0
700000
700000
E00000
F80000
F80000
380000
380000
380000
380000
380000
380000
380000
380000
39FFE0
39FFC0
3BFFC0
380000
ENDCHAR
STARTCHAR 4EC2
ENCODING 20162
SWIDTH 1035 0
DWIDTH 23 0
BBX 19 21 2 -2
BITMAP
1C3800
383800
383800
383800
71FFE0
73FFE0
73FFE0
F870E0
F870E0
3870E0
38E0E0
38E0E0
38E0E0
38E0E0
38E0E0
39C0E0
39C0E0
39C0E0
39C7E0
39C7E0
3B83E0
ENDCHAR
STARTCHAR 4EC3
ENCODING 20163
SWIDTH 1035 0
DWIDTH 23 0
BBX 19 21 2 -2
BITMAP
1C0000
3BFFE0
3BFFE0
3BFFE0
700700
700700
700700
F80700
F80700
380700
380700
380700
380700
380700
380700
380700
380700
380700
383F00
383F00
381F00
ENDCHAR
STARTCHAR 4EC4
ENCODING 20164
SWIDTH 990 0
DWIDTH 22 0
BBX 18 20 2 -2
BITMAP
FFFF80
FFFF80
FFFF80
E07000
E07000
E07000
E07000
E07000
E07000
E07000
E07000
E0F800
E1FC00
E1DC00
E3DE00
E38E00
E78700
E70700
EF0380
EE03C0
ENDCHAR
STARTCHAR 4EC5
ENCODING 20165
SWIDTH 1035 0
DWIDTH 23 0
BBX 19 21 2 -1
BITMAP
380000
39FFC0
39FFC0
31FFC0
71C1C0
71C1C0
71C1C0
F9C1C0
F9C1C0
39C1C0
39C1C0
38E380
387700
387F00
383E00
383E00
387F00
387700
38E380
39E1C0
3BC0E0
ENDCHAR
STARTCHAR 4EC6
ENCODING 20166
SWIDTH 990 0
DWIDTH 22 0
BBX 18 21 2 -2
BITMAP
1CE000
38E000
38E000
38E000
70E000
70E700
60E700
F8E700
F8E700
38E300
38E380
38E380
38E380
38E380
38E180
38E1C0
38E000
38E000
38E000
38E000
38E000
ENDCHAR
STARTCHAR 4EC7
ENCODING 20167
SWIDTH 990 0
DWIDTH 22 0
BBX 19 21 1 -2
BITMAP
1C7000
387000
387000
3BFF80
73FF80
73FF80
70E380
F8E380
F8E380
38C380
39C380
39C380
39C380
39C380
39C380
398380
3B8380
3B8380
3B83E0
3B83E0
3B83E0
ENDCHAR
STARTCHAR 4EC9
ENCODING 20169
SWIDTH 1035 0
DWIDTH 23 0
BBX 19 21 2 -1
BITMAP
380000
3BFF80
3BFF80
33FF80
738380
738380
638380
FB8380
FB8380
3B8380
3B8380
3B8380
3B8380
3B8380
3B8380
3B8380
3B8380
3B8380
3B83E0
3B83E0
3B83E0
ENDCHAR
STARTCHAR 4ECA
ENCODING 20170
SWIDTH 1035 0
DWIDTH 23 0
BBX 17 20 3 -2
BITMAP
3FFC00
3FFE00
3FFE00
700700
718700
61C700
E1C380
E1C380
000000
7FFF00
7FFF00
FFFE00
000E00
001C00
001C00
003800
007800
007000
00F000
00E000
ENDCHAR
STARTCHAR 4ECB
ENCODING 20171
SWIDTH 990 0
DWIDTH 22 0
BBX 18 20 2 -2
BITMAP
1FFE00
3FFF00
3FFF00
700700
700380
700380
E001C0
E001C0
1C0E00
1C0E00
1C0E00
180E00
380E00
380E00
380E00
380E00
380E00
380E00
300E00
700E00
ENDCHAR
STARTCHAR 4ECD
ENCODING 20173
SWIDTH 990 0
DWIDTH 22 0
BBX 19 21 1 -2
BITMAP
1C0000
39FFC0
39FFC0
3BFFC0
30E3C0
70E380
70E700
78E700
F8EFE0
38CFE0
38CFE0
39C0E0
39C0E0
39C0E0
39C0E0
39C0E0
3980E0
3980E0
3B83E0
3B83E0
3B81E0
ENDCHAR
STARTCHAR 4ECE
ENCODING 20174
SWIDTH 990 0
DWIDTH 22 0
BBX 18 21 2 -2
BITMAP
1C0E00
1C0E00
1C0E00
1C0E00
180C00
381C00
381C00
3E1F00
3E1F00
3F1F00
371B80
773B80
733B80
733B80
73B980
73B980
63B9C0
E071C0
E071C0
E071C0
E070C0
ENDCHAR
STARTCHAR 4ED1
ENCODING 20177
SWIDTH 990 0
DWIDTH 22 0
BBX 18 20 2 -2
BITMAP
1FFE00
3FFF00
3FFF00
700780
700380
700380
E001C0
000000
380000
380780
38FF80
3BFF00
3BF000
3A0000
380000
380000
380000
3FFF80
3FFF80
3FFFC0
ENDCHAR
STARTCHAR 4ED3
ENCODING 20179
SWIDTH 945 0
DWIDTH 21 0
BBX 19 20 1 -2
BITMAP
1FFF00
1FFF00
3FFF80
380380
7001C0
7001C0
FFFFE0
1FFF00
1FFF00
1C0700
1C0700
1C0700
1C3F00
1C3F00
1C1F00
1C0000
1C0000
1FFFC0
1FFFC0
1FFFC0
ENDCHAR
STARTCHAR 4ED4
ENCODING 20180
SWIDTH 1035 0
DWIDTH 23 0
BBX 19 21 2 -2
BITMAP
380000
38FFC0
38FFC0
71FF80
700380
700380
600700
F80700
FBFFE0
3BFFE0
3BFFE0
380E00
380E00
380E00
380E00
380E00
380E00
380E00
380E00
380E00
380800
ENDCHAR
STARTCHAR 4ED5
ENCODING 20181
SWIDTH 990 0
DWIDTH 22 0
BBX 19 21 2 -2
BITMAP
181C00
381C00
381C00
301C00
701C00
701C00
63FFE0
FBFFE0
FBFFE0
381C00
381C00
381C00
381C00
381C00
381C00
381C00
381C00
381C00
39FFE0
39FFC0
3BFFC0
ENDCHAR
STARTCHAR 4ED6
ENCODING 20182
SWIDTH 990 0
DWIDTH 22 0
BBX 19 21 1 -2
BITMAP
1C1C00
1DDC00
39DC00
39DC60
31DFE0
73FFE0
73FFE0
7BDCE0
F9DCE0
39DCE0
39DCE0
39DCE0
39DCE0
39DDE0
39DDE0
39DDE0
39DC00
39C000
39FFE0
39FFE0
39FFE0
ENDCHAR
STARTCHAR 4ED7
ENCODING 20183
SWIDTH 1035 0
DWIDTH 23 0
BBX 19 21 2 -2
BITMAP
1C0380
1C0380
380380
3BFFE0
3BFFE0
73FFC0
700380
F9C380
F9C380
39C380
39C380
39E380
38E700
387E00
383E00
383C00
383E00
387F00
38E780
39E380
3BC1C0
ENDCHAR
STARTCHAR 4ED8
ENCODING 20184
SWIDTH 990 0
DWIDTH 22 0
BBX 19 21 2 -2
BITMAP
1C0700
180700
380700
380700
73FFE0
73FFC0
63FFC0
F80700
F80700
380700
38C700
38E700
38E700
38E700
38E700
38E700
380700
380700
383F00
381F00
381F00
ENDCHAR
STARTCHAR 4ED9
ENCODING 20185
SWIDTH 945 0
DWIDTH 21 0
BBX 19 21 1 -2
BITMAP
1C1C00
181C00
381C00
381C00
301C00
739CE0
739CE0
7B9CE0
FB9CE0
3B9CE0
3B9CE0
3B9CE0
3B9CE0
3B9CE0
3B9CE0
3B9CE0
3B9CE0
3B9CE0
3BFFE0
3BFFE0
3BFFE0
ENDCHAR
STARTCHAR 4EDD
ENCODING 20189
SWIDTH 1035 0
DWIDTH 23 0
BBX 19 20 2 -2
BITMAP
1FFF00
1FFF00
3FFF80
380380
780380
7001C0
7001C0
000000
1FFF80
3FFF80
3FFF00
00E000
00E000
00E000
00E000
00E000
00E000
7FFFE0
7FFFC0
FFFFC0
ENDCHAR
STARTCHAR 4EDE
ENCODING 20190
SWIDTH 1035 0
DWIDTH 23 0
BBX 19 21 2 -1
BITMAP
180000
39FFE0
39FFE0
33FFE0
701CE0
71DCE0
79DCE0
F9D8E0
39B8E0
39B8E0
3BB8E0
3BB8E0
3BB8E0
3B70E0
3B70E0
3870E0
3870E0
3870E0
3877E0
38E3E0
38E3E0
ENDCHAR
STARTCHAR 4EDF
ENCODING 20191
SWIDTH 990 0
DWIDTH 22 0
BBX 19 21 2 -2
BITMAP
1C0000
1DFFC0
39FFC0
39FFC0
381C00
701C00
701C00
F81C00
F81C00
39FFE0
3BFFC0
3BFFC0
381C00
381C00
381C00
381C00
381C00
381C00
381C00
381C00
381C00
ENDCHAR
STARTCHAR 4EE1
ENCODING 20193
SWIDTH 990 0
DWIDTH 22 0
BBX 19 21 1 -2
BITMAP
1A0000
1B8000
3BFFE0
3BFFE0
33FFC0
738000
700000
79FFC0
F9FFC0
39FFC0
380780
380F00
381E00
383E00
387C00
387800
38F000
39E000
3BFFC0
3BFFE0
3BFFE0
ENDCHAR
STARTCHAR 4EE3
ENCODING 20195
SWIDTH 1035 0
DWIDTH 23 0
BBX 19 21 2 -2
BITMAP
1C7000
1C7300
387380
387380
703380
703800
603FE0
FBFFE0
FBFF80
3BF800
383800
381C00
381C00
381C00
381C00
381C00
380E00
380E00
380FC0
380FE0
380FE0
ENDCHAR
STARTCHAR 4EE4
ENCODING 20196
SWIDTH 1035 0
DWIDTH 23 0
BBX 18 20 2 -2
BITMAP
1FFF00
1FFF00
3FFF00
380380
38C380
70E1C0
70E1C0
E0E1C0
000000
3FFFC0
3FFF80
7FFF00
000700
000E00
001E00
001C00
003800
3FFF80
3FFF80
3FFF80
ENDCHAR
STARTCHAR 4EE5
ENCODING 20197
SWIDTH 990 0
DWIDTH 22 0
BBX 18 20 2 -2
BITMAP
E00E00
E40E00
E71C00
E71C00
E71C00
E71800
E73800
E73E00
E73E00
E73E00
E07700
E07700
E07700
E06700
E0E700
E0E380
E0E380
FCC380
FDC380
FDC1C0
ENDCHAR
STARTCHAR 4EE8
ENCODING 20200
SWIDTH 1035 0
DWIDTH 23 0
BBX 19 20 2 -1
BITMAP
19FFE0
39FFC0
3BFFC0
700000
700000
F00000
E00000
F80000
39FFC0
39FFC0
39FFC0
380000
380000
380000
380000
380000
380000
39FFE0
3BFFE0
3BFFC0
ENDCHAR
STARTCHAR 4EEA
ENCODING 20202
SWIDTH 1035 0
DWIDTH 23 0
BBX 19 20 2 -1
BITMAP
181C00
381C00
3B9DC0
339DC0
739DC0
639DC0
FB81C0
FB81C0
3BC1C0
39C380
38E700
387F00
383E00
381C00
383E00
387F00
38F700
38E380
39C1C0
3B80E0
ENDCHAR
STARTCHAR 4EEB
ENCODING 20203
SWIDTH 990 0
DWIDTH 22 0
BBX 20 21 1 -2
BITMAP
1C1800
1C3800
383800
387000
307000
707700
70E700
78E700
F8EE00
39CE00
39DE00
39DC00
3B9C00
3BB860
3B3870
383870
387070
387070
387FF0
38FFF0
38FFF0
ENDCHAR
STARTCHAR 4EEC
ENCODING 20204
SWIDTH 990 0
DWIDTH 22 0
BBX 20 20 1 -1
BITMAP
1B1FF0
3B9FF0
3BBFF0
700070
738070
738070
FB8070
3B8070
3B8070
3B8070
3B8070
3B8070
3B8070
3B8070
3B8070
3B8070
3B8070
3B83F0
3B81F0
3B81F0
ENDCHAR
STARTCHAR 4EEE
ENCODING 20206
SWIDTH 990 0
DWIDTH 22 0
BBX 20 21 1 -1
BITMAP
1C0000
1BFFF0
3BFFE0
3BFFE0
338000
738000
73FFE0
7BFFE0
FBFFE0
3B9CE0
3B9CE0
3B9CE0
3B9CE0
3B9FE0
3B8FC0
3B8780
3B8780
3B8780
3B8FC0
3B9EE0
3B9CF0
ENDCHAR
STARTCHAR 4EF0
ENCODING 20208
SWIDTH 990 0
DWIDTH 22 0
BBX 20 21 1 -2
BITMAP
180000
3BF7F0
3BF7F0
3BE7F0
738770
738770
738770
FB8770
3B8770
3B8770
3B8770
3B8770
3B8770
3B8770
3B8770
3BE7F0
3BE7F0
3BF770
380700
380700
380700
ENDCHAR
STARTCHAR 4EF2
ENCODING 20210
SWIDTH 990 0
DWIDTH 22 0
BBX 19 21 1 -2
BITMAP
1C1C00
181C00
381C00
381C00
73FFE0
73FFE0
73FFE0
FB9CE0
3B9CE0
3B9CE0
3B9CE0
3B9CE0
3BFFE0
3BFFE0
3BBFE0
381C00
381C00
381C00
381C00
381C00
381C00
ENDCHAR
STARTCHAR 4EF3
ENCODING 20211
SWIDTH 990 0
DWIDTH 22 0
BBX 19 21 1 -1
BITMAP
1DC700
39C700
39C700
39C700
31C700
71C720
71F7E0
79F7E0
F9F7C0
39C700
39C700
39C700
39C700
39C700
39C700
39C700
39C700
39C700
39F7C0
39F7E0
39F7E0
ENDCHAR
STARTCHAR 4EF5
ENCODING 20213
SWIDTH 990 0
DWIDTH 22 0
BBX 19 20 1 -1
BITMAP
1B8000
3BFFC0
3BFFC0
33FFC0
739C00
739C00
781C00
F81C00
381C00
3BFFE0
3BFFE0
3BFFC0
381C00
381C00
381C00
381C00
381C00
381C00
381C00
381C00
ENDCHAR
STARTCHAR 4EF6
ENCODING 20214
SWIDTH 990 0
DWIDTH 22 0
BBX 20 21 1 -2
BITMAP
180E00
3B0E00
3B8E00
33FFE0
73FFE0
73FFE0
738E00
FB8E00
F80E00
380E00
380E00
3BFFF0
3BFFE0
3BFFE0
380E00
380E00
380E00
380E00
380E00
380E00
380E00
ENDCHAR
STARTCHAR 4EF7
ENCODING 20215
SWIDTH 990 0
DWIDTH 22 0
BBX 19 21 1 -2
BITMAP
1CFF80
38FFC0
38FFC0
39C1C0
71C1C0
71C0E0
7380E0
FB80E0
380000
38C1C0
39C1C0
39C1C0
39C1C0
39C1C0
39C1C0
39C1C0
39C1C0
3981C0
3B81C0
3B81C0
3B81C0
ENDCHAR
STARTCHAR 4EFB
ENCODING 20219
SWIDTH 1035 0
DWIDTH 23 0
BBX 19 21 2 -2
BITMAP
1C0000
19FFE0
39FFE0
39FFE0
701C00
701C00
701C00
F81C00
F81C00
3BFFE0
3BFFE0
3BFFE0
381C00
381C00
381C00
381C00
381C00
381C00
39FFE0
39FFE0
39FFC0
ENDCHAR
STARTCHAR 4EFD
ENCODING 20221
SWIDTH 990 0
DWIDTH 22 0
BBX 19 20 2 -2
BITMAP
18E700
38E380
39C380
31C1C0
71C1C0
7381C0
7B80E0
F80000
3BFFC0
3BFFC0
3BFFC0
38E1C0
38E1C0
39C1C0
39C1C0
39C1C0
39C1C0
398FC0
3B8FC0
3B87C0
ENDCHAR
STARTCHAR 4EFF
ENCODING 20223
SWIDTH 990 0
DWIDTH 22 0
BBX 19 21 1 -2
BITMAP
1C1000
181C00
3BFFE0
3BFFE0
3BFFE0
70E000
70E000
70E000
F8FFC0
38FFC0
38FFC0
38C1C0
39C1C0
39C1C0
39C1C0
39C1C0
39C1C0
39C1C0
3987C0
3B87C0
3B87C0
ENDCHAR
STARTCHAR 4F01
ENCODING 20225
SWIDTH 990 0
DWIDTH 22 0
BBX 19 20 1 -2
BITMAP
1FFF00
1FFF80
3FFF80
380380
3801C0
7071C0
7070C0
6070E0
007000
1C7FC0
1C7FC0
1C7FC0
1C7000
1C7000
1C7000
1C7000
1C7000
7FFFE0
7FFFE0
FFFFC0
ENDCHAR
STARTCHAR 4F09
ENCODING 20233
SWIDTH 990 0
DWIDTH 22 0
BBX 19 20 1 -1
BITMAP
1FFFE0
1BFFC0
3BFFC0
380000
700000
71FF80
79FF80
F9FF80
39C380
39C380
39C380
39C380
39C380
39C380
39C380
39C380
39C380
39C3E0
39C3E0
39C3E0
ENDCHAR
STARTCHAR 4F0A
ENCODING 20234
SWIDTH 990 0
DWIDTH 22 0
BBX 20 21 1 -1
BITMAP
1C0000
39FFC0
39FFC0
3BFFC0
3039C0
7039C0
73FFF0
7BFFF0
FBFFF0
3839C0
3839C0
39FFC0
39FFC0
3BFFC0
387000
387000
386000
38E000
38E000
39C000
39C000
ENDCHAR
STARTCHAR 4F0D
ENCODING 20237
SWIDTH 990 0
DWIDTH 22 0
BBX 19 21 1 -2
BITMAP
1C0000
39FFE0
3BFFE0
3BFFE0
707000
707000
707000
79FFC0
F9FFC0
3BFFC0
3871C0
3861C0
38E1C0
38E1C0
38E1C0
38E1C0
38E1C0
38E1C0
3BFFE0
3BFFE0
3FFFE0
ENDCHAR
STARTCHAR 4F0E
ENCODING 20238
SWIDTH 1035 0
DWIDTH 23 0
BBX 19 21 2 -1
BITMAP
1C1C00
381C00
39FFE0
3BFFE0
73FFC0
701C00
71FFC0
F9FFC0
F9FFC0
3801C0
39C1C0
39C1C0
39C1C0
39E3C0
38F780
387F00
383E00
387F00
38F780
39E3C0
3BC1E0
ENDCHAR
STARTCHAR 4F0F
ENCODING 20239
SWIDTH 990 0
DWIDTH 22 0
BBX 19 21 2 -2
BITMAP
1C3800
383980
3839C0
3039C0
703800
703800
E3FFE0
FBFFC0
FBFFC0
387000
387E00
387E00
38EF00
38E700
38E700
39C380
39C380
39C3C0
3981C0
3B81C0
3B80E0
ENDCHAR
STARTCHAR 4F10
ENCODING 20240
SWIDTH 990 0
DWIDTH 22 0
BBX 19 21 2 -2
BITMAP
1C7200
387380
387380
387380
703000
73FFC0
73FFC0
FBFFC0
F83800
381800
381C00
381DC0
387FC0
3BFFC0
3BFE00
3B0E00
380E00
380E00
380FC0
3807C0
3807E0
ENDCHAR
STARTCHAR 4F11
ENCODING 20241
SWIDTH 1035 0
DWIDTH 23 0
BBX 19 21 2 -2
BITMAP
1C1C00
381C00
381C00
39FFE0
73FFC0
73FFC0
701C00
F81C00
39DDC0
39DDC0
39DDC0
39DDC0
39DDC0
39DDC0
399DC0
3B9CC0
3B9CE0
3B9CE0
3B9CE0
3B9CE0
3B9CE0
ENDCHAR
STARTCHAR 4F17
ENCODING 20247
SWIDTH 990 0
DWIDTH 22 0
BBX 18 20 2 -2
BITMAP
1FFF00
3FFF00
3FFF80
700380
700380
F001C0
E001C0
1C0E00
1C0E00
1C0C00
381C00
381C00
3E1F00
3E1F00
763B80
773B80
773B80
E731C0
E371C0
E3F0C0
ENDCHAR
STARTCHAR 4F18
ENCODING 20248
SWIDTH 1035 0
DWIDTH 23 0
BBX 20 21 1 -2
BITMAP
1C3900
3839C0
3839C0
3839C0
703800
71FFF0
73FFE0
FBFFE0
387700
387700
387700
387700
38E700
38E700
38E700
39E700
39C700
39C700
39C7E0
3BC7E0
3B87F0
ENDCHAR
STARTCHAR 4F19
ENCODING 20249
SWIDTH 1035 0
DWIDTH 23 0
BBX 19 21 2 -2
BITMAP
181C00
381C00
381C00
331CC0
739CE0
739CE0
739CE0
FB9CE0
FB9CE0
3B9CE0
381C00
383C00
383E00
387F00
387700
38F380
38E380
39E1C0
39C1C0
3BC0E0
3B80E0
ENDCHAR
STARTCHAR 4F1A
ENCODING 20250
SWIDTH 990 0
DWIDTH 22 0
BBX 18 20 2 -2
BITMAP
1FFF00
1FFF00
3FFF00
380380
780380
77FD80
77FDC0
E7FDC0
000000
000000
7FFFC0
7FFFC0
FFFFC0
0E0000
0E0400
1C0700
1C0700
1FFF00
3FFF00
3FFF00
ENDCHAR
STARTCHAR 4F1B
ENCODING 20251
SWIDTH 990 0
DWIDTH 22 0
BBX 20 20 1 -2
BITMAP
1DFFF0
39FFF0
39FFF0
39DCE0
71DDC0
71CFC0
79CF80
F9C780
39C700
39C700
39C780
39CF80
39CFC0
39CDC0
39DCE0
39DCE0
39C000
39FFF0
39FFF0
39FFF0
ENDCHAR
STARTCHAR 4F1E
ENCODING 20254
SWIDTH 945 0
DWIDTH 21 0
BBX 19 20 1 -2
BITMAP
1FFF00
1FFF00
3FFF80
380380
38E3C0
70E1C0
70E1C0
18E600
1CE700
1CE700
1CE700
1CE700
7FFFE0
7FFFC0
FFFFC0
00E000
00E000
00E000
00E000
00E000
ENDCHAR
STARTCHAR 4F1F
ENCODING 20255
SWIDTH 1035 0
DWIDTH 23 0
BBX 19 21 2 -2
BITMAP
183800
183800
3BFFE0
3BFFC0
33FFC0
703800
73FFC0
7BFFC0
FBFFC0
383800
383800
3BFFE0
3BFFE0
3BFFE0
3838E0
3838E0
3838E0
3838E0
383BE0
3839E0
3839E0
ENDCHAR
STARTCHAR 4F20
ENCODING 20256
SWIDTH 990 0
DWIDTH 22 0
BBX 20 21 1 -2
BITMAP
1C1C00
1C3800
39FFE0
39FFE0
39FFE0
707000
707000
79FFF0
FBFFF0
3BFFE0
39E000
39C000
39FFC0
39FFC0
39FFC0
3803C0
380780
380700
38FFE0
39FFE0
39FFC0
ENDCHAR
STARTCHAR 4F22
ENCODING 20258
SWIDTH 990 0
DWIDTH 22 0
BBX 19 21 1 -2
BITMAP
1C0000
19FFE0
39FFE0
3BFFE0
31C380
71C380
71C380
79C380
F9FFE0
39FFE0
39FFE0
380380
38E380
38E380
38E380
38C380
39C380
39C380
39CF80
398F80
3B8F80
ENDCHAR
STARTCHAR 4F24
ENCODING 20260
SWIDTH 990 0
DWIDTH 22 0
BBX 19 21 1 -2
BITMAP
1A0000
3B8000
3BFFE0
33FFE0
73FFE0
738000
707000
F87000
F9FFE0
3BFFE0
3BFFE0
38E0E0
38E0E0
38E0E0
38C0E0
39C0E0
39C0E0
39C0E0
39C7E0
3B87E0
3B83E0
ENDCHAR
STARTCHAR 4F25
ENCODING 20261
SWIDTH 1035 0
DWIDTH 23 0
BBX 19 21 2 -2
BITMAP
1CE000
1CE060
38E1E0
38EFE0
70EF80
70EC00
70E000
F8E000
F9FFE0
3BFFE0
3BFFC0
38E000
38E380
38E380
38E380
38E1C0
38E1C0
38E1C0
38F8C0
38F8E0
38FCE0
ENDCHAR
STARTCHAR 4F26
ENCODING 20262
SWIDTH 1035 0
DWIDTH 23 0
BBX 19 20 2 -2
BITMAP
1CFF80
39FFC0
39FFC0
31C1C0
71C1C0
73C0C0
FB80E0
F9C000
39C000
39C0C0
39C7C0
39DFC0
39DE00
39D000
39C000
39C000
39C000
39FFC0
39FFE0
39FFE0
ENDCHAR
STARTCHAR 4F27
ENCODING 20263
SWIDTH 990 0
DWIDTH 22 0
BBX 19 21 1 -2
BITMAP
1CFF80
1DFFC0
39FFC0
39C1C0
31C1C0
73C0E0
7380E0
780000
F9FFC0
39FFC0
39FFC0
39C1C0
39C1C0
39DFC0
39CFC0
39CFC0
39C000
39C000
39FFC0
39FFE0
39FFE0
ENDCHAR
STARTCHAR 4F2A
ENCODING 20266
SWIDTH 1035 0
DWIDTH 23 0
BBX 19 21 2 -2
BITMAP
1D1C00
39D800
39D800
39F800
703800
71FFE0
73FFE0
FBFFE0
F870E0
3870E0
3860E0
386CE0
38EEE0
38EEE0
38EEE0
38C0E0
39C0E0
39C0E0
39CFE0
39CFE0
3B87E0
ENDCHAR
STARTCHAR 4F2B
ENCODING 20267
SWIDTH 1035 0
DWIDTH 23 0
BBX 19 20 2 -1
BITMAP
1C1C00
3BFFE0
3BFFE0
33FFE0
7380E0
7380E0
FB80E0
FB80E0
380000
380000
380000
380000
380000
380000
380000
380000
380000
3BFFE0
3BFFE0
3BFFE0
ENDCHAR
STARTCHAR 4F2F
ENCODING 20271
SWIDTH 1035 0
DWIDTH 23 0
BBX 19 21 2 -1
BITMAP
1C1C00
381C00
39FFE0
39FFE0
31FFE0
71C0E0
71C0E0
79C0E0
F9C0E0
39C0E0
39FFE0
39FFE0
39FFE0
39C0E0
39C0E0
39C0E0
39C0E0
39C0E0
39FFE0
39DFE0
39DFE0
ENDCHAR
STARTCHAR 4F30
ENCODING 20272
SWIDTH 990 0
DWIDTH 22 0
BBX 20 21 1 -2
BITMAP
1C1C00
381C00
381C00
39FFF0
33FFF0
73FFE0
701C00
781C00
F81C00
381C00
39FFE0
39FFE0
39FFE0
39C0E0
39C0E0
39C0E0
39C0E0
39C0E0
39FFE0
39DFE0
39DFE0
ENDCHAR
STARTCHAR 4F32
ENCODING 20274
SWIDTH 990 0
DWIDTH 22 0
BBX 19 21 1 -1
BITMAP
180000
3BFFE0
3BFFE0
33FFE0
7380E0
7380E0
73BFE0
FBBFE0
FB9FE0
3B9C00
3B9C00
3B9C20
3B9FE0
3B9FE0
3B9F80
3B9C00
3B9C00
3B9C00
3B9FE0
3B9FE0
3B9FE0
ENDCHAR
STARTCHAR 4F34
ENCODING 20276
SWIDTH 945 0
DWIDTH 21 0
BBX 19 21 1 -2
BITMAP
191D00
39DDC0
39DDC0
39DDC0
71DDC0
701C00
73FFC0
FBFFC0
FBFFC0
381C00
381C00
381C00
3BFFE0
3BFFE0
3BFFC0
381C00
381C00
381C00
381C00
381C00
381C00
ENDCHAR
STARTCHAR 4F36
ENCODING 20278
SWIDTH 990 0
DWIDTH 22 0
BBX 19 20 2 -1
BITMAP
1DFF80
39FF80
39FFC0
39C1C0
7381C0
739DC0
FB9CE0
FB9CE0
381C00
38FF80
39FF80
39FF80
380380
380380
380700
380700
380E00
39FFC0
39FFC0
3BFF80
ENDCHAR
STARTCHAR 4F38
ENCODING 20280
SWIDTH 1035 0
DWIDTH 23 0
BBX 19 21 2 -2
BITMAP
1C1C00
381C00
381C00
3BFFE0
73FFE0
73FFE0
739CE0
FB9CE0
FBFFE0
3BFFE0
3BFFE0
3B9CE0
3B9CE0
3B9CE0
3BFFE0
3BFFE0
3BBFE0
381C00
381C00
381C00
381C00
ENDCHAR
STARTCHAR 4F3A
ENCODING 20282
SWIDTH 990 0
DWIDTH 22 0
BBX 19 21 1 -2
BITMAP
1C0000
39FFE0
39FFE0
3BFFE0
71FFE0
71FEE0
73FEE0
7800E0
F9FEE0
39FEE0
39FEE0
39CEE0
39CEE0
39CEE0
39FEE0
39FEE0
39FEE0
3800E0
3807E0
3807E0
3803E0
ENDCHAR
STARTCHAR 4F3C
ENCODING 20284
SWIDTH 990 0
DWIDTH 22 0
BBX 19 21 2 -1
BITMAP
370380
770380
770380
776380
677300
E77300
E77700
F77700
F77780
7777C0
7777C0
7777C0
7707C0
770FC0
770EC0
770EC0
770EC0
770EC0
77CEE0
77CCE0
77ECE0
ENDCHAR
STARTCHAR 4F3D
ENCODING 20285
SWIDTH 1035 0
DWIDTH 23 0
BBX 19 21 2 -2
BITMAP
3F0000
770000
770FE0
77FFE0
77FFE0
67FEE0
E77EE0
F77EE0
F77EE0
777EE0
777EE0
777EE0
777EE0
777EE0
777EE0
777EE0
777EE0
777EE0
77FFE0
77FFE0
77FEE0
ENDCHAR
STARTCHAR 4F43
ENCODING 20291
SWIDTH 990 0
DWIDTH 22 0
BBX 19 21 1 -2
BITMAP
180000
3BFFE0
3BFFE0
3BFFE0
339CE0
739CE0
739CE0
7B9CE0
FB9CE0
3BFFE0
3BFFE0
3BFFE0
3B9CE0
3B9CE0
3B9CE0
3B9CE0
3B9CE0
3B9CE0
3BFFE0
3BBFE0
3B9FE0
ENDCHAR
STARTCHAR 4F46
ENCODING 20294
SWIDTH 990 0
DWIDTH 22 0
BBX 19 21 2 -2
BITMAP
1C0000
1DFFC0
39FFC0
39FFC0
71C1C0
71C1C0
71C1C0
F9FFC0
F9FFC0
39FFC0
39C1C0
39C1C0
39C1C0
39FFC0
39DFC0
39DFC0
380000
380000
39FFE0
3BFFE0
3BFFE0
ENDCHAR
STARTCHAR 4F4D
ENCODING 20301
SWIDTH 990 0
DWIDTH 22 0
BBX 18 21 2 -1
BITMAP
1C1800
381C00
381C00
3BFFC0
73FFC0
73FFC0
700000
F88200
F8E380
38E380
38E380
38E380
38E380
38E380
38E380
38E380
380000
380000
3BFFC0
3BFFC0
3BFFC0
ENDCHAR
STARTCHAR 4F4E
ENCODING 20302
SWIDTH 990 0
DWIDTH 22 0
BBX 19 21 1 -2
BITMAP
180000
3BFFE0
3BFFC0
3BFFC0
738E00
738600
738700
FBFFE0
FBFFE0
3BFFE0
3B8700
3B8700
3B8700
3B8700
3B8700
3BF300
3BF380
3BFB80
3BFBC0
3BF3E0
3BF3E0
ENDCHAR
STARTCHAR 4F4F
ENCODING 20303
SWIDTH 990 0
DWIDTH 22 0
BBX 19 21 2 -2
BITMAP
0E1800
1C1C00
1C1C00
39FFE0
39FFC0
79FFC0
701C00
F81C00
F81C00
381C00
39FFC0
39FFC0
39FFC0
381C00
381C00
381C00
381C00
381C00
39FFE0
39FFE0
3BFFC0
ENDCHAR
STARTCHAR 4F50
ENCODING 20304
SWIDTH 1035 0
DWIDTH 23 0
BBX 20 21 2 -2
BITMAP
0E3800
1C7000
1C7000
39FFE0
3BFFE0
73FFE0
70E000
78E000
F9C000
39FFE0
39FFC0
39FFC0
3B8E00
3B8E00
3B8E00
380E00
380E00
380E00
39FFF0
3BFFE0
3BFFE0
ENDCHAR
STARTCHAR 4F51
ENCODING 20305
SWIDTH 990 0
DWIDTH 22 0
BBX 19 21 2 -1
BITMAP
38E000
38E000
7FFFE0
77FFC0
77FFC0
F3C000
E38000
F38000
73FFC0
77FFC0
77FFC0
7781C0
7F81C0
7381C0
7381C0
7381C0
7381C0
7381C0
73FFC0
73FFC0
73BFC0
ENDCHAR
STARTCHAR 4F53
ENCODING 20307
SWIDTH 990 0
DWIDTH 22 0
BBX 20 21 1 -2
BITMAP
1C1C00
1C1C00
181C00
3BFFF0
3BFFE0
73FFE0
701C00
7B9CE0
FB9CE0
3B9CE0
3B9CE0
3B9CE0
3B9CE0
3B9CE0
3BBFE0
3BBFE0
3BBFE0
3B9CE0
3B9CE0
3B9CE0
3B9CE0
ENDCHAR
STARTCHAR 4F55
ENCODING 20309
SWIDTH 990 0
DWIDTH 22 0
BBX 20 21 1 -1
BITMAP
1C0000
39FFF0
3BFFE0
3BFFE0
7001C0
7001C0
73FDC0
7BFDC0
FBFDC0
3B9DC0
3B9DC0
3B9DC0
3B9DC0
3BFDC0
3BFDC0
3BFDC0
3801C0
3801C0
3807C0
3807C0
3803C0
ENDCHAR
STARTCHAR 4F57
ENCODING 20311
SWIDTH 1035 0
DWIDTH 23 0
BBX 19 21 2 -1
BITMAP
381800
381C00
3BFFE0
73FFE0
73FFE0
7380E0
6380E0
F80000
F9C000
39C000
39C040
39DFC0
39FFC0
39FE00
39C000
39C000
39C000
39C000
39FFC0
39FFE0
39FFE0
ENDCHAR
STARTCHAR 4F58
ENCODING 20312
SWIDTH 1035 0
DWIDTH 23 0
BBX 19 20 2 -2
BITMAP
1FFF00
1FFF00
3FFF80
380380
7001C0
77FDC0
77FDC0
E7FCE0
000000
7FFFE0
FFFFE0
FFFFC0
00E000
38E380
38E380
30E180
70E1C0
73E1C0
71E1C0
61E0C0
ENDCHAR
STARTCHAR 4F59
ENCODING 20313
SWIDTH 1035 0
DWIDTH 23 0
BBX 19 20 2 -2
BITMAP
1FFF00
1FFF80
3FFF80
380380
77FDC0
77FDC0
E7FCE0
00E000
00E000
7FFFE0
7FFFC0
FFFFC0
00E000
18E380
38E380
38E380
38E380
33E1C0
71E1C0
71E1C0
ENDCHAR
STARTCHAR 4F5A
ENCODING 20314
SWIDTH 1035 0
DWIDTH 23 0
BBX 20 21 1 -2
BITMAP
1C0E00
398E00
39CE00
39FFE0
31FFE0
71FFC0
71CE00
79CE00
F80E00
39FFF0
39FFE0
3BFFE0
381C00
383F00
383B80
387380
3871C0
38E1C0
38E0E0
39C0E0
3BC070
ENDCHAR
STARTCHAR 4F5B
ENCODING 20315
SWIDTH 990 0
DWIDTH 22 0
BBX 19 21 2 -2
BITMAP
38EE00
38EE00
3BFFC0
77FFC0
77FFC0
70EFC0
E0EFC0
F7FFC0
F7FFC0
77FFC0
77EE00
77EE00
77FFE0
77FFE0
77FFE0
70EEE0
70CEE0
71CFE0
71CFE0
718FE0
718EE0
ENDCHAR
STARTCHAR 4F5C
ENCODING 20316
SWIDTH 990 0
DWIDTH 22 0
BBX 19 21 1 -1
BITMAP
1B0000
3B8000
3BFFE0
33FFE0
73FFE0
739C00
739C00
FB9C00
F81FE0
381FC0
381FC0
381C00
381C00
381FE0
381FE0
381FC0
381C00
381C00
381C00
381C00
381C00
ENDCHAR
STARTCHAR 4F5D
ENCODING 20317
SWIDTH 1035 0
DWIDTH 23 0
BBX 19 20 2 -1
BITMAP
3B8000
3BFFE0
3BFFE0
73FFE0
7380E0
7000E0
F9FCE0
F9FCE0
39FCE0
39DCE0
39DCE0
39DCE0
39DCE0
39FCE0
39FCE0
39FCE0
3800E0
380FE0
380FE0
3807E0
ENDCHAR
STARTCHAR 4F5E
ENCODING 20318
SWIDTH 990 0
DWIDTH 22 0
BBX 19 21 1 -1
BITMAP
180000
39FFC0
39FFC0
39FFC0
700000
71FFE0
73FFE0
7BFFC0
F8E000
38E000
3BFFE0
3BFFE0
3BFFC0
38E380
38E380
38F780
387F00
383E00
383F00
38F780
39E3E0
ENDCHAR
STARTCHAR 4F5F
ENCODING 20319
SWIDTH 1035 0
DWIDTH 23 0
BBX 19 21 2 -2
BITMAP
1CC000
39FFC0
39FFC0
39FFC0
7001C0
71C1C0
71F7C0
F9FFC0
F9FFC0
3BFFE0
3BC1E0
3B0020
38F800
38FFC0
38FFC0
3803C0
398000
39FE00
39FFE0
383FE0
3800E0
ENDCHAR
STARTCHAR 4F60
ENCODING 20320
SWIDTH 990 0
DWIDTH 22 0
BBX 19 21 1 -1
BITMAP
1CE000
18FFE0
39FFE0
39FFE0
39C0E0
71C1C0
7381C0
781C00
F81C00
381C00
39DDC0
39DDC0
39DDC0
39DDC0
39DCC0
399CE0
399CE0
399CE0
3BBCE0
3BBCE0
3B9CE0
ENDCHAR
STARTCHAR 4F63
ENCODING 20323
SWIDTH 1035 0
DWIDTH 23 0
BBX 19 20 2 -2
BITMAP
1BFFE0
3BFFE0
3BFFE0
339CE0
739CE0
73FFE0
7BFFE0
FBFFE0
3B9CE0
3B9CE0
3B9CE0
3BFFE0
3BFFE0
3BFFE0
3B9CE0
3B9CE0
3B9CE0
3B9DE0
3B9DE0
3B9DE0
ENDCHAR
STARTCHAR 4F64
ENCODING 20324
SWIDTH 990 0
DWIDTH 22 0
BBX 20 21 1 -2
BITMAP
1C0000
3BFFF0
3BFFE0
3BFFE0
71C000
71C000
71FFC0
79FFC0
F9FFC0
39C1C0
39D1C0
39DDC0
39DDC0
39DDC0
39DDC0
39DDC0
39C1C0
39C1C0
39F1E0
39F9F0
39F9F0
ENDCHAR
STARTCHAR 4F65
ENCODING 20325
SWIDTH 1035 0
DWIDTH 23 0
BBX 19 20 2 -2
BITMAP
1FFF00
3FFF80
3FFF80
380380
7001C0
77FDC0
67FDC0
E7FCE0
000000
30C300
38E380
38E380
38E380
38E380
38E380
38E380
000000
7FFFE0
FFFFE0
FFFFC0
ENDCHAR
STARTCHAR 4F67
ENCODING 20327
SWIDTH 1035 0
DWIDTH 23 0
BBX 19 21 2 -1
BITMAP
1C3800
383800
383FE0
383FC0
703FC0
703800
703800
FBFFE0
FBFFE0
3FFFC0
380000
383800
383B80
383980
3839C0
3839C0
3839C0
3838E0
3838E0
383800
383800
ENDCHAR
STARTCHAR 4F69
ENCODING 20329
SWIDTH 1035 0
DWIDTH 23 0
BBX 19 20 2 -2
BITMAP
77FFC0
77FFC0
77FFC0
777FC0
E7FFC0
E7FDC0
F719C0
77FFC0
77FFC0
77FFC0
77DFC0
77DFC0
77DFC0
77DFC0
77DFC0
77DFC0
77DFC0
77DFE0
7719E0
7719E0
ENDCHAR
STARTCHAR 4F6C
ENCODING 20332
SWIDTH 1035 0
DWIDTH 23 0
BBX 19 21 2 -1
BITMAP
1C1C00
1C1C00
39FFC0
39FFC0
31FFC0
701DC0
701DC0
F9FFE0
FBFFE0
3BFFC0
38C000
39C000
39F0C0
3BFFC0
3BFFC0
3BFC00
387000
387000
387FC0
387FC0
387FE0
ENDCHAR
STARTCHAR 4F6F
ENCODING 20335
SWIDTH 990 0
DWIDTH 22 0
BBX 20 20 1 -1
BITMAP
1CE380
1DFFF0
39FFE0
3BFFE0
381C00
701C00
701C00
F9FFE0
39FFE0
39FFE0
381C00
381C00
381C00
39FFF0
3BFFE0
3BFFE0
381C00
381C00
381C00
381C00
ENDCHAR
STARTCHAR 4F70
ENCODING 20336
SWIDTH 990 0
DWIDTH 22 0
BBX 19 21 1 -1
BITMAP
380000
39FFE0
3BFFE0
3BFFC0
701C00
71FFC0
71FFC0
F9FFC0
F9C1C0
39C1C0
39C1C0
39C1C0
39FFC0
39FFC0
39FFC0
39C1C0
39C1C0
39C1C0
39FFC0
39DFC0
39DFC0
ENDCHAR
STARTCHAR 4F73
ENCODING 20339
SWIDTH 990 0
DWIDTH 22 0
BBX 19 21 2 -1
BITMAP
181C00
381C00
39FFC0
31FFC0
71FFC0
701C00
701C00
FBFFE0
FBFFC0
3BFFC0
380000
381C00
381C00
3BFFC0
3BFFC0
3BFFC0
381C00
381C00
3BFFE0
3BFFC0
3BFFC0
ENDCHAR
STARTCHAR 4F74
ENCODING 20340
SWIDTH 990 0
DWIDTH 22 0
BBX 19 21 1 -2
BITMAP
1C0000
1BFFE0
3BFFE0
3BFFE0
30E1C0
70FFC0
70FFC0
78FFC0
F8E1C0
38E1C0
38FFC0
38FFC0
38FFC0
38E1C0
38E1C0
39FFE0
3BFFE0
3BFFE0
3801C0
3801C0
3801C0
ENDCHAR
STARTCHAR 4F76
ENCODING 20342
SWIDTH 990 0
DWIDTH 22 0
BBX 20 21 1 -2
BITMAP
1C1C00
381C00
39FFF0
39FFF0
33FFE0
701C00
701C00
781C00
F9FFE0
39FFE0
39FFE0
380000
39FFC0
39FFC0
39FFC0
39C1C0
39C1C0
39C1C0
39FFC0
39FFC0
39DFC0
ENDCHAR
STARTCHAR 4F7B
ENCODING 20347
SWIDTH 990 0
DWIDTH 22 0
BBX 19 21 1 -1
BITMAP
1C7700
387700
3B7760
3BF7E0
33F7E0
73F7E0
73F7E0
7BF7E0
F87700
3BF7E0
3BF7E0
3BF7E0
3BF7E0
3BF7E0
3BF7E0
3AE720
38E700
38E700
39C7E0
39C7E0
39C7E0
ENDCHAR
STARTCHAR 4F7C
ENCODING 20348
SWIDTH 1035 0
DWIDTH 23 0
BBX 19 21 2 -1
BITMAP
1C1C00
1BFFE0
3BFFE0
3BFFE0
300000
71C1C0
71C1C0
F981C0
FB80E0
380000
39C1C0
39C1C0
39C1C0
39E3C0
38F780
387F00
383E00
383E00
387F80
38E3C0
39C1E0
ENDCHAR
STARTCHAR 4F7E
ENCODING 20350
SWIDTH 1035 0
DWIDTH 23 0
BBX 19 21 2 -2
BITMAP
1CE380
18E380
39C1C0
39C1C0
3180C0
73FFE0
73FFE0
7BFFE0
F9C1C0
39C1C0
39FFC0
39FFC0
39FFC0
39C1C0
39FFC0
39FFC0
39FFC0
39C1C0
39C7C0
39C3C0
39C3C0
ENDCHAR
STARTCHAR 4F7F
ENCODING 20351
SWIDTH 1035 0
DWIDTH 23 0
BBX 19 21 2 -1
BITMAP
1C1C00
1BFFE0
3BFFE0
3BFFC0
301C00
701C00
73FFC0
7BFFC0
FBFFC0
3B9DC0
3B9DC0
3BFFC0
3BFFC0
3BFFC0
383800
3BF000
3BF000
3BFC00
39FFE0
39DFE0
3B83C0
ENDCHAR
STARTCHAR 4F83
ENCODING 20355
SWIDTH 990 0
DWIDTH 22 0
BBX 19 21 1 -2
BITMAP
1BFFC0
3BFFC0
3BFFC0
3B81C0
3381C0
7381C0
7381C0
7BFFC0
FBFFC0
3BBFC0
380000
39DDC0
39DDC0
3B9DC0
3B9DC0
3B9DC0
3B9DC0
3B9DC0
3B9DC0
3B9DE0
3B9DE0
ENDCHAR
STARTCHAR 4F84
ENCODING 20356
SWIDTH 990 0
DWIDTH 22 0
BBX 19 20 2 -2
BITMAP
1DFFE0
3BFFC0
3BFFC0
30E000
70E1C0
70E1C0
F9FFC0
F9FFC0
39FFC0
381C00
381C00
381C00
39FFC0
39FFC0
39FFC0
381C00
381C00
3BFFE0
3BFFE0
3BFFE0
ENDCHAR
STARTCHAR 4F88
ENCODING 20360
SWIDTH 990 0
DWIDTH 22 0
BBX 18 21 2 -1
BITMAP
1B8000
3BFFC0
3BFFC0
33FFC0
7381C0
7001C0
60E380
F8E380
F8E700
38EF00
3B0E00
3BFFC0
3BFFC0
3BFFC0
3B81C0
3B81C0
3801C0
388380
38E780
38E700
38EE00
ENDCHAR
STARTCHAR 4F89
ENCODING 20361
SWIDTH 990 0
DWIDTH 22 0
BBX 19 21 1 -1
BITMAP
1C3800
39FFE0
3BFFE0
3BFFE0
30E1C0
71C1E0
73FFE0
78FFC0
F8FFC0
39FFE0
3BFFE0
3BFFE0
38E000
38E000
38FFC0
38FFC0
38FFC0
3801C0
380FC0
380FC0
3807C0
ENDCHAR
STARTCHAR 4F8B
ENCODING 20363
SWIDTH 990 0
DWIDTH 22 0
BBX 19 20 2 -2
BITMAP
37F8E0
77F8E0
77F0E0
7386E0
E3F7E0
E3F7E0
F7F7E0
7777E0
7777E0
7777E0
7677E0
77F7E0
77F7E0
77E7E0
70E7E0
70E7E0
71C0E0
71C3E0
7181E0
7380E0
ENDCHAR
STARTCHAR 4F8D
ENCODING 20365
SWIDTH 990 0
DWIDTH 22 0
BBX 20 21 1 -2
BITMAP
1C1C00
1C1C00
39FFE0
39FFE0
71FFE0
701C00
701C00
F9FFF0
F9FFE0
3BFFE0
380380
380380
39FFF0
39FFE0
3BFFE0
380380
38C380
38E380
38EF80
38EF80
38E780
ENDCHAR
STARTCHAR 4F8F
ENCODING 20367
SWIDTH 990 0
DWIDTH 22 0
BBX 19 21 1 -2
BITMAP
1C1C00
1D9C00
39DC00
39FFC0
39FFC0
71FFC0
71DC00
781C00
F81C00
39FFE0
39FFE0
3BFFE0
381C00
39DDC0
39DCC0
39DCE0
39DCE0
39DCE0
399CE0
3B9CE0
3B9CE0
ENDCHAR
STARTCHAR 4F91
ENCODING 20369
SWIDTH 990 0
DWIDTH 22 0
BBX 19 21 1 -1
BITMAP
18E000
3BFFE0
3BFFE0
3BFFE0
71C000
71C000
71FFC0
79FFC0
FBFFC0
3BC1C0
3BFFC0
3BFFC0
39FFC0
39C1C0
39FFC0
39FFC0
39FFC0
39C1C0
39C7C0
39C7C0
39C3C0
ENDCHAR
STARTCHAR 4F94
ENCODING 20372
SWIDTH 990 0
DWIDTH 22 0
BBX 19 21 1 -1
BITMAP
19C000
39C0C0
39C0E0
39FFE0
73FFE0
73FFE0
700000
781C00
FB1C00
3BFFE0
3BFFE0
3BFFC0
3B9C00
381C00
3BFFE0
3BFFE0
3BFFE0
381C00
381C00
381C00
381C00
ENDCHAR
STARTCHAR 4F97
ENCODING 20375
SWIDTH 990 0
DWIDTH 22 0
BBX 19 21 2 -2
BITMAP
380000
37FFE0
77FFE0
77FFE0
777EE0
E77EE0
E77EE0
F700E0
F77EE0
777EE0
777EE0
777EE0
777EE0
777EE0
777EE0
777EE0
777EE0
7700E0
7703E0
7703E0
7701E0
ENDCHAR
STARTCHAR 4F9B
ENCODING 20379
SWIDTH 990 0
DWIDTH 22 0
BBX 20 21 1 -2
BITMAP
1CE380
1CE380
3CE380
38E380
39FFE0
71FFE0
71FFE0
78E380
F8E380
38E380
38E380
38E380
39FFF0
3BFFE0
3BFFE0
38E1C0
39C1C0
39C1C0
39C1E0
3980E0
3B80E0
ENDCHAR
STARTCHAR 4F9D
ENCODING 20381
SWIDTH 990 0
DWIDTH 22 0
BBX 19 20 1 -1
BITMAP
1C1C00
1DFFE0
3BFFE0
3BFFE0
30E000
70E000
78E700
F9C700
39C3E0
39C3E0
3BE3E0
3BE380
3BE1C0
38E1C0
38E1C0
38E1C0
38E0C0
38F8E0
38FCE0
38FCE0
ENDCHAR
STARTCHAR 4FA0
ENCODING 20384
SWIDTH 990 0
DWIDTH 22 0
BBX 20 21 1 -2
BITMAP
1C1C00
1C1C00
39FFE0
39FFE0
39FFE0
701D00
71DDC0
79DDC0
F9DDC0
381C00
3BFFF0
3BFFF0
3BFFE0
383C00
383E00
387700
387380
38E380
38E1C0
39C1E0
39C0E0
ENDCHAR
STARTCHAR 4FA3
ENCODING 20387
SWIDTH 1035 0
DWIDTH 23 0
BBX 19 21 2 -1
BITMAP
180000
19FFE0
39FFE0
39FFE0
31C0E0
71C0E0
71C0E0
79DFE0
F9DFE0
39CFE0
380000
3BFFE0
3BFFE0
3BFFE0
3B80E0
3B80E0
3B80E0
3B80E0
3BBFE0
3BBFE0
3B9FE0
ENDCHAR
STARTCHAR 4FA5
ENCODING 20389
SWIDTH 990 0
DWIDTH 22 0
BBX 19 21 1 -1
BITMAP
1873E0
1BFFE0
3BFFE0
3BFC00
301DE0
701FE0
70FFC0
7BFE00
FBFFC0
3B07E0
3807E0
380000
3BFFE0
3BFFE0
3BFFE0
39E380
39C380
39C380
3BC3E0
3B83E0
3B83E0
ENDCHAR
STARTCHAR 4FA6
ENCODING 20390
SWIDTH 990 0
DWIDTH 22 0
BBX 19 21 1 -1
BITMAP
1C1C00
381FE0
381FE0
381FC0
701C00
71FFC0
71FFC0
F9FFC0
F9C1C0
39DDC0
39DDC0
39DDC0
39DDC0
39DDC0
39DDC0
383C00
387E00
387700
38E380
39E1C0
3BC1E0
ENDCHAR
STARTCHAR 4FA7
ENCODING 20391
SWIDTH 990 0
DWIDTH 22 0
BBX 19 21 2 -1
BITMAP
3000E0
77F8E0
77F8E0
77FBE0
661BE0
E7DBE0
E7DBE0
F7DBE0
F7DBE0
77DBE0
77DBE0
77DBE0
77DBE0
77DBE0
71C3E0
71F3E0
73F0E0
73F0E0
7739E0
7739E0
7638E0
ENDCHAR
STARTCHAR 4FA8
ENCODING 20392
SWIDTH 990 0
DWIDTH 22 0
BBX 19 21 1 -1
BITMAP
1C0000
18FFC0
39FFC0
39FF80
307000
71FFE0
73FFE0
7BFFE0
F8E1C0
39C1C0
39C1C0
3B80E0
38E380
38C380
39C380
39C380
39C380
39C380
398380
3B8380
3B8380
ENDCHAR
STARTCHAR 4FA9
ENCODING 20393
SWIDTH 1035 0
DWIDTH 23 0
BBX 19 21 2 -2
BITMAP
39FFC0
39FFC0
39FFC0
71C1C0
7380E0
7380E0
700000
F9FFC0
F9FFC0
39FFC0
380000
380000
39FFE0
3BFFC0
3BFFC0
38E000
39C180
39C1C0
39FFC0
39FFC0
39FFC0
ENDCHAR
STARTCHAR 4FAA
ENCODING 20394
SWIDTH 990 0
DWIDTH 22 0
BBX 19 20 1 -1
BITMAP
1DFFE0
39FFE0
3BFFE0
30E380
70E380
70E380
78F780
F87F00
381C00
387F00
38F780
3BE3C0
380000
38E380
38E380
38E380
38C380
39C380
39C380
39C380
ENDCHAR
STARTCHAR 4FAC
ENCODING 20396
SWIDTH 990 0
DWIDTH 22 0
BBX 19 21 1 -2
BITMAP
1C1C00
381C00
3BFFE0
3BFFE0
33FFE0
73B8E0
73B8E0
787000
F87700
38E700
38E300
38F3E0
39F3E0
39F3E0
3BF180
3871C0
3871C0
3871C0
387CE0
387CE0
387CE0
ENDCHAR
STARTCHAR 4FAE
ENCODING 20398
SWIDTH 990 0
DWIDTH 22 0
BBX 19 21 1 -2
BITMAP
1E0000
3BFFE0
3BFFE0
3BFFC0
338000
71FFC0
71FFC0
79FFC0
F9DDC0
39DDC0
3BFFE0
3BFFE0
3BFFE0
39D9C0
39DDC0
39FFE0
39FFE0
39FFE0
3807C0
3803C0
3803C0
ENDCHAR
STARTCHAR 4FAF
ENCODING 20399
SWIDTH 990 0
DWIDTH 22 0
BBX 20 21 1 -2
BITMAP
1DFFC0
1DFFC0
39FFC0
3801C0
3BFFF0
73FFE0
73FFE0
7A0000
FB8000
3BFFE0
3BFFE0
3BFFC0
3B9C00
3BFFE0
3BFFE0
3BFFE0
387F00
387780
38E3C0
39C1C0
3BC0E0
ENDCHAR
STARTCHAR 4FB5
ENCODING 20405
SWIDTH 990 0
DWIDTH 22 0
BBX 19 21 1 -1
BITMAP
1C0000
39FFE0
39FFE0
39FFE0
30FFE0
7000E0
71FFE0
79FFE0
F9FFE0
3BFFE0
3BFFE0
3BFFE0
39FFE0
39FFE0
39FFE0
39C0E0
39FFE0
38FF80
3BFFE0
3BE1E0
3B0020
ENDCHAR
STARTCHAR 4FBF
ENCODING 20415
SWIDTH 990 0
DWIDTH 22 0
BBX 20 21 1 -2
BITMAP
1C0000
19FFF0
3BFFF0
3BFFE0
381C00
71FFE0
71FFE0
71FFE0
F9DCE0
39FFE0
39FFE0
39DCE0
39FFE0
39FFE0
39FFE0
3B3800
3BF000
3BFC00
38FFF0
39DFF0
3BC3E0
ENDCHAR
STARTCHAR 4FC3
ENCODING 20419
SWIDTH 1035 0
DWIDTH 23 0
BBX 19 21 2 -2
BITMAP
1C0000
1DFFC0
39FFC0
39FFC0
79C1C0
71C1C0
71C1C0
F9FFC0
F9FFC0
39FFC0
381C00
38DC00
39DFC0
39DFC0
39DFC0
39DC00
39DC00
3BFC00
3BFFE0
3BFFE0
3BBFC0
ENDCHAR
STARTCHAR 4FC4
ENCODING 20420
SWIDTH 990 0
DWIDTH 22 0
BBX 19 20 2 -2
BITMAP
3BFE80
33FEC0
77FEC0
71CE00
67FFE0
E7FFC0
F7FFC0
F1C700
71C700
71C700
71F740
73F7C0
77F7C0
77CFC0
71CF80
71CF80
71C380
77C3C0
77C3C0
73C3C0
ENDCHAR
STARTCHAR 4FC5
ENCODING 20421
SWIDTH 990 0
DWIDTH 22 0
BBX 20 21 1 -1
BITMAP
1C1D00
381DC0
381DC0
39FFF0
39FFE0
73FFE0
701C00
791C20
F9DCE0
39DCE0
39DCE0
39DCE0
381C00
39DCE0
39DCE0
39DCE0
39DCE0
39DCE0
393C20
383C00
381C00
ENDCHAR
STARTCHAR 4FCA
ENCODING 20426
SWIDTH 990 0
DWIDTH 22 0
BBX 19 21 1 -1
BITMAP
1CE100
39C1C0
39FFC0
39FFC0
3BFFC0
700000
71C1C0
79C1C0
FB80E0
38E000
39FFC0
39FFC0
3BFFC0
3B81C0
39C1C0
39E3C0
38FF80
387F00
387F00
38FF80
39E3C0
ENDCHAR
STARTCHAR 4FCE
ENCODING 20430
SWIDTH 990 0
DWIDTH 22 0
BBX 19 20 1 -2
BITMAP
387FC0
387FC0
3C71C0
7C71C0
7C71C0
7E7FC0
6E7FC0
EE7FC0
E671C0
3871C0
3871C0
387FC0
387FC0
7C7FC0
7C71C0
7C71C0
7E71C0
EEFFE0
EEFFE0
E6FFE0
ENDCHAR
STARTCHAR 4FCF
ENCODING 20431
SWIDTH 1035 0
DWIDTH 23 0
BBX 19 21 2 -2
BITMAP
1C1C00
399CC0
39DCE0
39DCE0
39DCE0
701C00
71FFE0
79FFE0
F9FFE0
39C0E0
39FFE0
39FFE0
39FFE0
39C0E0
39FFE0
39FFE0
39FFE0
39C0E0
39C7E0
39C3E0
39C3E0
ENDCHAR
STARTCHAR 4FD0
ENCODING 20432
SWIDTH 990 0
DWIDTH 22 0
BBX 19 21 2 -1
BITMAP
7800E0
73F8E0
77F8E0
77F4E0
71C7E0
E7FFE0
E7FFE0
F7FFE0
F1C7E0
77DFE0
77DFE0
77DFE0
77DFE0
77DFE0
77DFE0
77D8E0
77D8E0
77D8E0
77DBE0
77D9E0
77D9E0
ENDCHAR
STARTCHAR 4FD1
ENCODING 20433
SWIDTH 990 0
DWIDTH 22 0
BBX 18 20 2 -2
BITMAP
3BFFC0
33FF80
77FF00
70E700
67FFC0
E7FFC0
F7FFC0
F7FFC0
7739C0
77FFC0
77FFC0
77FFC0
7739C0
77FFC0
77FFC0
77FFC0
7739C0
773BC0
773BC0
7739C0
ENDCHAR
STARTCHAR 4FD7
ENCODING 20439
SWIDTH 1035 0
DWIDTH 23 0
BBX 19 21 2 -2
BITMAP
1CE380
38E380
39C1C0
39C1C0
33C0E0
700000
70FF80
78FF80
F9FFC0
39C1C0
39C1C0
3B80E0
39FFC0
39FFC0
39FFC0
39C1C0
39C1C0
39C1C0
39FFC0
39DFC0
39DFC0
ENDCHAR
STARTCHAR 4FD8
ENCODING 20440
SWIDTH 990 0
DWIDTH 22 0
BBX 19 21 1 -3
BITMAP
1DFFE0
39FFE0
3BFFC0
380000
319980
71DDC0
71DDC0
78FFC0
F8FF80
39FF80
380700
380E00
39FFE0
3BFFE0
3BFFC0
381C00
381C00
381C00
381C00
381C00
381000
ENDCHAR
STARTCHAR 4FDA
ENCODING 20442
SWIDTH 990 0
DWIDTH 22 0
BBX 20 20 1 -2
BITMAP
1DFFE0
39FFE0
39FFE0
39DCE0
71FFE0
71FFE0
71FFE0
F9DCE0
39FFE0
39FFE0
39FFE0
381C00
39FFE0
39FFE0
39FFE0
381C00
381C00
39FFF0
3BFFE0
3BFFE0
ENDCHAR
STARTCHAR 4FDC
ENCODING 20444
SWIDTH 990 0
DWIDTH 22 0
BBX 20 21 1 -1
BITMAP
181C00
3BFFE0
3BFFE0
3BFFE0
73FFE0
73FFE0
739CE0
FBFFE0
FBFFE0
3BFFE0
3BFFF0
3BFFE0
3FFFE0
39C000
39FFC0
39FFC0
39FFC0
3801C0
380FC0
3807C0
3807C0
ENDCHAR
STARTCHAR 4FDD
ENCODING 20445
SWIDTH 990 0
DWIDTH 22 0
BBX 19 21 2 -1
BITMAP
1C0000
1DFFC0
39FFC0
39FFC0
79C1C0
71C1C0
71FFC0
F9FFC0
F9FFC0
381C00
39FFE0
3BFFE0
3BFFC0
381C00
39DDC0
39DDC0
39DDC0
39DDC0
399CC0
3B9CE0
3B9CE0
ENDCHAR
STARTCHAR 4FDE
ENCODING 20446
SWIDTH 1035 0
DWIDTH 23 0
BBX 19 20 2 -2
BITMAP
1FFF00
3FFF00
3FFF80
780380
77FDC0
77FDC0
E7FCE0
7FC1C0
7FD9C0
7FDDC0
71DDC0
7FDDC0
7FDDC0
71DDC0
7FDDC0
7FDDC0
71C1C0
77CFC0
77C7C0
73C7C0
ENDCHAR
STARTCHAR 4FDF
ENCODING 20447
SWIDTH 990 0
DWIDTH 22 0
BBX 19 21 1 -1
BITMAP
1CE000
38E0C0
38E0E0
39FFE0
31FFE0
71FFE0
710000
79C000
F9FFE0
39FFE0
39FFC0
39CE00
380E00
39FFE0
39FFE0
3BFFE0
387B80
387380
38E1C0
39C0E0
39C0E0
ENDCHAR
STARTCHAR 4FE1
ENCODING 20449
SWIDTH 1035 0
DWIDTH 23 0
BBX 19 20 2 -1
BITMAP
1C1C00
39FFE0
3BFFE0
3BFFC0
71FFC0
71FFC0
79FFC0
F80000
39FFC0
39FFC0
39FFC0
380000
39FFC0
39FFC0
39FFC0
39C1C0
39C1C0
39FFC0
39DFC0
39DFC0
ENDCHAR
STARTCHAR 4FE3
ENCODING 20451
SWIDTH 1035 0
DWIDTH 23 0
BBX 19 20 2 -2
BITMAP
1DFFC0
39FFC0
39FFC0
39C1C0
71FFC0
71FFC0
F1FFC0
F9FFC0
39FFC0
39FFC0
381C00
381C00
39FFE0
3BFFC0
3BFFC0
387F00
387700
38E380
39C1C0
3BC1E0
ENDCHAR
STARTCHAR 4FE6
ENCODING 20454
SWIDTH 1035 0
DWIDTH 23 0
BBX 20 21 1 -1
BITMAP
1C1C00
39FFF0
39FFF0
3BFFE0
383800
71FFE0
71FFE0
79FFE0
F87000
39FFF0
3BFFF0
3BFFE0
38C1C0
38FFF0
39FFF0
39FFE0
39C1C0
39A1C0
3BBFC0
3BBBC0
3BBBC0
ENDCHAR
STARTCHAR 4FE8
ENCODING 20456
SWIDTH 990 0
DWIDTH 22 0
BBX 18 20 2 -2
BITMAP
37FFC0
77FFC0
77FFC0
64EF00
E7EFC0
E7EFC0
F0EE00
F7FFC0
77FFC0
77FF80
770000
770000
770000
770000
770000
770000
770000
770000
770000
770000
ENDCHAR
STARTCHAR 4FE9
ENCODING 20457
SWIDTH 1035 0
DWIDTH 23 0
BBX 20 21 1 -2
BITMAP
1C0000
19FFF0
3BFFF0
3BFFF0
387700
73FFF0
73FFF0
7BFFF0
FBB670
3BB670
3BBF70
3BFF70
3BFF70
3BFFF0
3BEFF0
3BEDF0
3BEDF0
3B8070
3B83F0
3B81F0
3B81F0
ENDCHAR
STARTCHAR 4FEA
ENCODING 20458
SWIDTH 1035 0
DWIDTH 23 0
BBX 19 21 2 -1
BITMAP
300000
7FFFE0
7FFFE0
6FFFE0
6FFFE0
EFFFE0
EFFFE0
FE7EE0
FE7EE0
7EFFE0
7EFFE0
7EFFE0
7EFFE0
7EFFE0
7EFFE0
7EFFE0
7E7EE0
7E7EE0
7EFFE0
7E7EE0
7E7EE0
ENDCHAR
STARTCHAR 4FED
ENCODING 20461
SWIDTH 990 0
DWIDTH 22 0
BBX 19 21 1 -2
BITMAP
1CFF80
1CFF80
39FFC0
39C1C0
39C1C0
73C0E0
700000
79FFC0
F9FFC0
39FFC0
380000
391100
39DDC0
39DDC0
39DDC0
39DDC0
39DDC0
380000
39FFE0
3BFFE0
3BFFC0
ENDCHAR
STARTCHAR 4FEE
ENCODING 20462
SWIDTH 1035 0
DWIDTH 23 0
BBX 19 21 2 -3
BITMAP
386000
307FC0
30FFC0
70FFC0
7CE1C0
6EFFC0
EEFFC0
FE7FC0
FEFFE0
7EF3E0
7EC7E0
7E7FC0
7E7FC0
7E7000
7E1FC0
7EFFC0
7EFE00
7E0040
707FC0
70FFC0
70F000
ENDCHAR
STARTCHAR 4FEF
ENCODING 20463
SWIDTH 1035 0
DWIDTH 23 0
BBX 19 20 2 -1
BITMAP
37FFE0
77FFE0
77FFE0
770000
6771C0
E771C0
F771C0
F76FE0
776FE0
77FFE0
7771C0
7777C0
7777C0
7777C0
7777C0
7777C0
7771C0
7773C0
7771C0
7771C0
ENDCHAR
STARTCHAR 4FF1
ENCODING 20465
SWIDTH 990 0
DWIDTH 22 0
BBX 19 21 1 -2
BITMAP
1DFFC0
39FFC0
39FFC0
39C1C0
31FFC0
71FFC0
71FFC0
79FFC0
F9FFC0
39FFC0
39FFC0
39FFC0
39FFC0
39C1C0
3BFFE0
3BFFE0
3BFFE0
38C180
39C1C0
39C1C0
3B80E0
ENDCHAR
STARTCHAR 4FF3
ENCODING 20467
SWIDTH 990 0
DWIDTH 22 0
BBX 19 21 1 -2
BITMAP
1C7700
387700
387700
3BF7E0
33F7E0
73F7C0
707700
787700
FBF7E0
3BF7E0
3BF7E0
387700
387700
387700
3BF7E0
3BF7E0
3BF7E0
387700
387700
387700
387700
ENDCHAR
STARTCHAR 4FF8
ENCODING 20472
SWIDTH 990 0
DWIDTH 22 0
BBX 19 21 1 -2
BITMAP
1C1C00
39FFE0
39FFC0
3BFFC0
31FFC0
71FFC0
71FFC0
79FFE0
FBFFE0
3BFFC0
3981C0
3B9CC0
39FFC0
39FFC0
39FFC0
381C00
3BFFE0
3BFFE0
3BFFC0
381C00
381C00
ENDCHAR
STARTCHAR 4FFA
ENCODING 20474
SWIDTH 990 0
DWIDTH 22 0
BBX 20 21 1 -1
BITMAP
187000
3BFFF0
3BFFE0
3BFFE0
31C1C0
7380E0
739CE0
781C00
FBFFE0
3BFFE0
3BFFE0
3BFFE0
3BFFE0
3B9CE0
3BFFE0
3BFFE0
3BFFE0
381C00
381FE0
381FE0
381FF0
ENDCHAR
STARTCHAR 4FFE
ENCODING 20478
SWIDTH 990 0
DWIDTH 22 0
BBX 19 21 1 -2
BITMAP
183C00
3BFFE0
3BFFE0
3BFFE0
739CE0
73FFE0
73FFE0
FBFFE0
FB9CE0
3BFFE0
3BFFE0
3BFFE0
39C700
39C700
3B8700
3BFFE0
3BFFE0
3BFFE0
380700
380700
380700
ENDCHAR
STARTCHAR 500C
ENCODING 20492
SWIDTH 990 0
DWIDTH 22 0
BBX 19 20 1 -1
BITMAP
1BFFE0
3BFFE0
3BFFE0
3380E0
71FFC0
71FFC0
79FFC0
F9C1C0
39C1C0
39FFC0
39FFC0
39FFC0
39C000
39FFE0
39FFE0
39FFE0
39C0E0
39FFE0
39FFE0
39FFE0
ENDCHAR
STARTCHAR 500D
ENCODING 20493
SWIDTH 990 0
DWIDTH 22 0
BBX 20 20 1 -1
BITMAP
1FFFE0
3BFFE0
3BFFE0
380000
70C300
70E380
78E380
FBFFF0
3BFFE0
3FFFE0
380000
3BFFC0
3BFFC0
3BFFC0
3B81C0
3B81C0
3B81C0
3BBFC0
3BBFC0
3BBFC0
ENDCHAR
STARTCHAR 500F
ENCODING 20495
SWIDTH 990 0
DWIDTH 22 0
BBX 19 21 2 -2
BITMAP
307000
30FFC0
70FFC0
70FFC0
6CE1C0
EEFBC0
EEFFC0
FE7F80
FEFFE0
7EF1E0
7ECE60
7E0EC0
7E0EC0
7EFFE0
7EFFC0
7EFFC0
7E3F00
7E7B80
7073C0
70E1C0
70E0E0
ENDCHAR
STARTCHAR 5012
ENCODING 20498
SWIDTH 1035 0
DWIDTH 23 0
BBX 19 21 2 -2
BITMAP
3800E0
77F8E0
77F8E0
77FCE0
7386E0
673EE0
E73EE0
F7FEE0
F7FEE0
77FEE0
7006E0
71C6E0
77FEE0
77FEE0
77FEE0
71C6E0
71C0E0
71C0E0
77FBE0
77FBE0
7FF9E0
ENDCHAR
STARTCHAR 5014
ENCODING 20500
SWIDTH 990 0
DWIDTH 22 0
BBX 19 20 2 -2
BITMAP
37FFC0
77FFC0
77FFC0
777FC0
E77FC0
E77FC0
F70000
F70E00
776EC0
776EC0
777FC0
777FC0
777FC0
770E00
770E00
776EE0
776EE0
777FE0
777FE0
777FE0
ENDCHAR
STARTCHAR 5018
ENCODING 20504
SWIDTH 990 0
DWIDTH 22 0
BBX 20 21 1 -1
BITMAP
1C1C00
399CC0
39DCE0
39DCE0
31DCE0
73FFF0
73FFF0
7BFFF0
FB8070
3BBF70
3BBF70
3BBF70
3BBF70
3BBF70
3BBF70
3BBF70
3BBF70
3BBF70
3B8070
3B80F0
3B80F0
ENDCHAR
STARTCHAR 5019
ENCODING 20505
SWIDTH 1035 0
DWIDTH 23 0
BBX 19 21 2 -2
BITMAP
380000
387FC0
30FFC0
70FFC0
7CFFE0
6EFFE0
EEFFE0
FEE000
FEFFE0
7EFFC0
7EFFC0
7EEE00
7E0E00
7EFFE0
7EFFE0
7EFFE0
7E1F00
7E3B80
7073C0
7071C0
70E0E0
ENDCHAR
STARTCHAR 501A
ENCODING 20506
SWIDTH 990 0
DWIDTH 22 0
BBX 18 21 2 -1
BITMAP
383000
7BFFC0
73FFC0
73FF80
70C700
E1C380
E38380
F3FFC0
F7FFC0
77FFC0
700380
73FB80
73FB80
73FB80
73BB80
73BB80
73BB80
73FB80
73FF80
73FB80
700380
ENDCHAR
STARTCHAR 501C
ENCODING 20508
SWIDTH 990 0
DWIDTH 22 0
BBX 19 21 1 -2
BITMAP
180000
3BFFE0
3BFFE0
3BFFE0
33BFE0
73BFE0
73BFE0
7B9CE0
FBBFE0
3BBFE0
3BBFE0
3BBFE0
3BBFE0
3BBFE0
3BB7E0
3BBFE0
3BBFE0
3BB7E0
3B83E0
3B83E0
3B81E0
ENDCHAR
STARTCHAR 501F
ENCODING 20511
SWIDTH 990 0
DWIDTH 22 0
BBX 20 21 1 -2
BITMAP
1C7380
1C7380
39FFE0
39FFE0
39FFE0
707380
707380
79FFF0
FBFFF0
3BFFE0
380000
39FFC0
39FFC0
39FFC0
39FFC0
39FFC0
39FFC0
39C1C0
39DFC0
39DFC0
39CFC0
ENDCHAR
STARTCHAR 5021
ENCODING 20513
SWIDTH 990 0
DWIDTH 22 0
BBX 19 21 1 -1
BITMAP
180000
39FFE0
39FFE0
39FFE0
31FFE0
71FFE0
71FFE0
79FFE0
F9DFE0
39DFE0
380000
3BFFE0
3BFFE0
3BFFE0
3BFFE0
3BFFE0
3BFFE0
3B80E0
3BBFE0
3BBFE0
3BBFE0
ENDCHAR
STARTCHAR 5025
ENCODING 20517
SWIDTH 990 0
DWIDTH 22 0
BBX 19 20 1 -1
BITMAP
1BFFE0
3BFFE0
3BFFE0
3380E0
700000
70C1C0
79C1C0
F980E0
380000
39FFE0
39FFE0
39FFE0
381C00
381C00
381C00
381C00
381C00
3BFFE0
3BFFE0
3BFFE0
ENDCHAR
STARTCHAR 5026
ENCODING 20518
SWIDTH 990 0
DWIDTH 22 0
BBX 19 21 2 -1
BITMAP
321D00
33B9C0
73B9C0
77FFC0
67FFC0
E7FFC0
E0E000
F7FFE0
F7FFC0
7FFFC0
738380
73FFC0
77FFC0
7FFFE0
71C380
71DF80
71CF80
71CF80
71FFC0
71FFC0
71FFC0
ENDCHAR
STARTCHAR 5028
ENCODING 20520
SWIDTH 990 0
DWIDTH 22 0
BBX 20 20 1 -2
BITMAP
1DFFE0
39FFE0
39FFE0
39FFE0
71DFE0
71DFE0
79C000
F9C300
39FFF0
39FFF0
39FFF0
39C300
39C300
39DFE0
39DFE0
39DFE0
39DCE0
39DFE0
39DFE0
39DFE0
ENDCHAR
STARTCHAR 5029
ENCODING 20521
SWIDTH 990 0
DWIDTH 22 0
BBX 20 21 1 -2
BITMAP
1C1C00
39FFF0
39FFE0
3BFFE0
31FFE0
71FFE0
701C00
79FFF0
FBFFE0
3BFFE0
39FFE0
39FFE0
39FFE0
39FFE0
39FFE0
39C0E0
39FFE0
39FFE0
39C7E0
39C7E0
39C3E0
ENDCHAR
STARTCHAR 502A
ENCODING 20522
SWIDTH 990 0
DWIDTH 22 0
BBX 20 21 1 -1
BITMAP
1C0000
39F3E0
39F7E0
39F7E0
31C0E0
71F7E0
71F7E0
79F7E0
F9C0E0
39FFE0
39FFE0
39FFE0
387380
38E380
38E380
38E380
38E380
39C380
39C3E0
39C3E0
39C3F0
ENDCHAR
STARTCHAR 502C
ENCODING 20524
SWIDTH 1035 0
DWIDTH 23 0
BBX 19 21 2 -1
BITMAP
1C1C00
381FE0
381FC0
381FC0
71FFC0
71FFC0
61FFC0
F9C1C0
F9FFC0
39FFC0
39C1C0
39FFC0
39FFC0
39FFC0
381C00
39FFE0
3BFFE0
3BFFC0
381C00
381C00
381C00
ENDCHAR
STARTCHAR 502D
ENCODING 20525
SWIDTH 990 0
DWIDTH 22 0
BBX 20 20 1 -2
BITMAP
1CFFE0
3CFFC0
39FFE0
39FFE0
71FFE0
701C00
78DCC0
F9DCE0
39DC60
380000
39FFF0
39FFE0
3BFFE0
38E1C0
38E1C0
38F7C0
387F80
383F00
387F80
39F3E0
ENDCHAR
STARTCHAR 502E
ENCODING 20526
SWIDTH 990 0
DWIDTH 22 0
BBX 20 20 1 -2
BITMAP
1DFFE0
39FFE0
39FFE0
39FFE0
71FFE0
71FFE0
79FFE0
F9FFE0
39FFE0
381C00
39FFF0
3BFFE0
3BFFE0
381C00
39DDE0
39DCE0
39DCE0
3BDCE0
3B9CE0
3B9C70
ENDCHAR
STARTCHAR 503A
ENCODING 20538
SWIDTH 990 0
DWIDTH 22 0
BBX 19 21 1 -1
BITMAP
1C1C00
39FFE0
39FFE0
39FFC0
31FFC0
71FFC0
71FFC0
79FFE0
FBFFE0
3FFFC0
39FFC0
39FFC0
39FFC0
39C1C0
39DDC0
39DDC0
39DDC0
383C00
387F00
38F380
39C1C0
ENDCHAR
STARTCHAR 503C
ENCODING 20540
SWIDTH 990 0
DWIDTH 22 0
BBX 19 21 1 -2
BITMAP
1C1C00
39FFE0
39FFE0
39FFE0
701C00
70FFC0
70FFC0
78FFC0
F8E1C0
38FFC0
38FFC0
38FFC0
38FFC0
38FFC0
38E1C0
38FFC0
38FFC0
38FFC0
39FFE0
3BFFE0
3BFFE0
ENDCHAR
STARTCHAR 503E
ENCODING 20542
SWIDTH 1035 0
DWIDTH 23 0
BBX 19 21 2 -2
BITMAP
373FE0
773FE0
773FE0
770700
673FE0
E73FE0
E7FFE0
F7B060
F7B760
773760
773760
773760
773760
773760
773760
770F80
770FC0
771DC0
779CE0
779CE0
77B8E0
ENDCHAR
STARTCHAR 5043
ENCODING 20547
SWIDTH 990 0
DWIDTH 22 0
BBX 19 21 1 -2
BITMAP
1C0000
3BFFE0
3BFFE0
3BFFE0
33BFE0
73BFE0
73BFE0
7BB8E0
FBBFE0
3BBBE0
3BBFE0
3BBFE0
3BBFE0
3B9DC0
3B9FC0
3BBFE0
3BBDE0
3BA020
3BFFE0
3BFFE0
3BFFE0
ENDCHAR
STARTCHAR 5047
ENCODING 20551
SWIDTH 990 0
DWIDTH 22 0
BBX 18 20 2 -2
BITMAP
3FFFC0
77FFC0
77FFC0
7771C0
E771C0
E7FFC0
F7FFC0
F77FC0
770FC0
77FFC0
77EFC0
77C1C0
770FC0
770FC0
77EFC0
77E780
77C300
770780
770FC0
770FC0
ENDCHAR
STARTCHAR 5048
ENCODING 20552
SWIDTH 1035 0
DWIDTH 23 0
BBX 19 21 2 -2
BITMAP
19FFC0
39FFC0
39FFC0
39FFC0
71FFC0
71C1C0
71FFC0
F9DFC0
F9DFC0
3BFFE0
3BFFE0
3BFFE0
3B9CE0
3B9CE0
3BBEE0
3BBEE0
3BBFE0
3B80E0
3BF8E0
3BFDE0
3BFDE0
ENDCHAR
STARTCHAR 504C
ENCODING 20556
SWIDTH 990 0
DWIDTH 22 0
BBX 19 21 1 -2
BITMAP
1CE380
3DFFE0
3BFFE0
3BFFC0
38E380
70E380
700000
786000
F9FFE0
3BFFE0
3BFFC0
38C000
39FFC0
39FFC0
3BFFC0
3BE1C0
38E1C0
38E1C0
38FFC0
38FFC0
38FFC0
ENDCHAR
STARTCHAR 504E
ENCODING 20558
SWIDTH 990 0
DWIDTH 22 0
BBX 19 20 1 -2
BITMAP
1DFFC0
39FFC0
39FFC0
39FFC0
71FFC0
71DDC0
79FFC0
F9FFC0
39FFC0
380000
3BFFE0
3BFFE0
3BFFC0
39CEE0
39C7C0
39C7C0
39C380
39FB80
39F9C0
39FDC0
ENDCHAR
STARTCHAR 504F
ENCODING 20559
SWIDTH 1035 0
DWIDTH 23 0
BBX 19 21 2 -2
BITMAP
383000
77FFE0
77FFE0
77FFE0
7701E0
E7FFE0
E7FFE0
F7FFE0
F70000
77FFE0
77FFE0
77FFE0
77FEE0
77FEE0
77FFE0
77FFE0
77FFE0
77FEE0
77FFE0
77FEE0
77FEE0
ENDCHAR
STARTCHAR 5055
ENCODING 20565
SWIDTH 990 0
DWIDTH 22 0
BBX 19 21 1 -2
BITMAP
1B8700
3BF7E0
3BF7E0
3BF7E0
338700
738700
73F7C0
7BF7E0
FBF7E0
383800
3BFFC0
3BFFC0
3BFFC0
3B81C0
3BFFC0
3BFFC0
3BFFC0
3B81C0
3BFFC0
3BBFC0
3BBFC0
ENDCHAR
STARTCHAR 505A
ENCODING 20570
SWIDTH 990 0
DWIDTH 22 0
BBX 19 21 1 -1
BITMAP
39CC00
39CE00
79CFE0
71CFE0
77FFE0
77FEE0
EFFEE0
E1CEE0
F1CEE0
71CEE0
77FEE0
77F7E0
7777C0
7777C0
777380
777380
7773C0
7777C0
77F7C0
77F6E0
77FEE0
ENDCHAR
STARTCHAR 505C
ENCODING 20572
SWIDTH 990 0
DWIDTH 22 0
BBX 20 21 1 -1
BITMAP
1C1C00
39FFF0
3BFFE0
3BFFE0
700000
71FFE0
71FFE0
79FFE0
F9FFE0
380000
3BFFF0
3BFFF0
3BFFF0
39FFE0
39FFE0
39FFE0
381C00
381C00
387C00
383C00
383C00
ENDCHAR
STARTCHAR 5065
ENCODING 20581
SWIDTH 1035 0
DWIDTH 23 0
BBX 20 21 2 -2
BITMAP
380700
3FBFE0
77BFE0
778760
73BFF0
63BFE0
E33FE0
F70760
F7FFE0
77FFE0
77FFE0
71FFE0
71FFE0
758700
77BFE0
77BFE0
77BFC0
73C700
73FFE0
77FFE0
777FE0
ENDCHAR
STARTCHAR 506C
ENCODING 20588
SWIDTH 1035 0
DWIDTH 23 0
BBX 20 21 1 -1
BITMAP
1D8000
39FFF0
3BFFF0
3BFFF0
3380F0
7000F0
70CCF0
7BFFF0
FBFFF0
3BFEF0
399DF0
3999F0
39B9F0
387600
3B7760
3BF770
3BF770
3BF770
3BFF70
3BFF70
3BFF70
ENDCHAR
STARTCHAR 5076
ENCODING 20598
SWIDTH 990 0
DWIDTH 22 0
BBX 19 20 1 -2
BITMAP
1FFFE0
3BFFE0
3BFFE0
3BFFE0
73FFE0
739CE0
7BFFE0
FBFFE0
3BBFE0
381C00
3BFFE0
3BFFE0
3BFFE0
3B9DE0
3BFFE0
3BFFE0
3BFFE0
3B81E0
3B81E0
3B80E0
ENDCHAR
STARTCHAR 5077
ENCODING 20599
SWIDTH 990 0
DWIDTH 22 0
BBX 19 20 1 -2
BITMAP
1DFFC0
19FFC0
3BFFC0
3B80E0
73FFE0
73FFE0
7BFFC0
FBF8E0
3BFAE0
3BFBE0
3BBBE0
3BFBE0
3BFBE0
3BBBE0
3BFBE0
3BFBE0
3BB8E0
3BF9E0
3BF8E0
3BB8E0
ENDCHAR
STARTCHAR 507B
ENCODING 20603
SWIDTH 990 0
DWIDTH 22 0
BBX 19 21 1 -2
BITMAP
199D80
19DDC0
39DDC0
3BFFE0
33FFE0
73FFE0
701C00
79DDC0
F9DCC0
3BDCE0
380000
3BFFE0
3BFFE0
3BFFE0
38E1C0
38E1C0
38F7C0
387F00
383E00
38FF80
3BE3E0
ENDCHAR
STARTCHAR 507E
ENCODING 20606
SWIDTH 990 0
DWIDTH 22 0
BBX 20 21 1 -2
BITMAP
1C1C00
39FFE0
39FFE0
3BFFE0
301C00
70E1C0
71FFF0
7BFFE0
FBFFE0
38E1C0
39FFE0
39FFE0
39FFE0
39DCE0
39DCE0
39DCE0
39DCE0
383C00
387F80
38F3C0
39E0E0
ENDCHAR
STARTCHAR 507F
ENCODING 20607
SWIDTH 990 0
DWIDTH 22 0
BBX 19 21 1 -1
BITMAP
191D80
39DDC0
39DDC0
3BFFE0
73FFE0
73FFE0
7380E0
780000
F9FFC0
39FFC0
39FFC0
380000
380000
39FFE0
3BFFE0
3BFFC0
38E000
39E1C0
39FFC0
39FFC0
39FFC0
ENDCHAR
STARTCHAR 5080
ENCODING 20608
SWIDTH 990 0
DWIDTH 22 0
BBX 19 21 1 -1
BITMAP
181800
3BFFC0
3BFFC0
3BFFC0
739DC0
739DC0
73FFC0
7BFFC0
FBFFC0
3B9DC0
3BFFC0
3BFFC0
3BFFC0
387D80
387D80
38FDA0
38DDE0
39DFE0
39DFC0
3B9FE0
3B9FE0
ENDCHAR
STARTCHAR 5085
ENCODING 20613
SWIDTH 990 0
DWIDTH 22 0
BBX 19 21 2 -2
BITMAP
181DC0
3BFFC0
3BFFC0
3BFFC0
33FFC0
73FFC0
73FFC0
7BFFC0
FBFFC0
3B9DC0
3BFFC0
3BFFC0
3B9DC0
380380
3BFFE0
3BFFC0
3BFFC0
380380
38EF80
38E780
38E780
ENDCHAR
STARTCHAR 5088
ENCODING 20616
SWIDTH 990 0
DWIDTH 22 0
BBX 20 20 1 -2
BITMAP
1BFFE0
3BFFE0
3BFFE0
33FFE0
73FFE0
73FFE0
7BB6E0
FBB6E0
3BFFE0
3BFFE0
381C00
3BFFE0
3BFFE0
3BFFE0
381C00
39DDC0
3B9CE0
3B9CE0
3B9CE0
3B9CF0
ENDCHAR
STARTCHAR 508D
ENCODING 20621
SWIDTH 990 0
DWIDTH 22 0
BBX 19 20 1 -1
BITMAP
19FFE0
39FFC0
3BFFC0
304200
707380
73FFE0
7BFFE0
FBFFE0
3B90E0
381C00
39FFE0
3BFFE0
3BFFC0
38FFC0
38FFC0
38FFC0
39C1C0
39C7C0
39C3C0
39C3C0
ENDCHAR
STARTCHAR 5091
ENCODING 20625
SWIDTH 990 0
DWIDTH 22 0
BBX 20 21 1 -1
BITMAP
1B01C0
3BF7F0
3BF7E0
3BF7E0
73F1C0
73F1C0
71F7C0
7BF7E0
FBE7E0
38C7E0
39DDC0
3BFFE0
3BFFE0
3BFFE0
381C00
39DDC0
39DDC0
399CE0
3B9CE0
3B9CE0
3B9CE0
ENDCHAR
STARTCHAR 50A3
ENCODING 20643
SWIDTH 990 0
DWIDTH 22 0
BBX 19 21 1 -2
BITMAP
1C3800
3BFFC0
3BFFC0
3BFFC0
33FFC0
73FFC0
73FFC0
78E000
FBFFE0
3BFFE0
3BFFC0
3B81C0
3B9CC0
3A1C00
3B9DC0
3B9DC0
381C00
3B9DC0
3BBDC0
3BBDC0
3A1C40
ENDCHAR
STARTCHAR 50A5
ENCODING 20645
SWIDTH 990 0
DWIDTH 22 0
BBX 19 21 1 -2
BITMAP
1D1C80
19DCE0
39DCE0
3BFFE0
33FFE0
73FFE0
7380E0
79FFE0
F9FFE0
39FFE0
39C0E0
39C0E0
39FFE0
39FFE0
39FFE0
38E380
38E380
38C380
39C3E0
39C3E0
39C3E0
ENDCHAR
STARTCHAR 50A7
ENCODING 20647
SWIDTH 990 0
DWIDTH 22 0
BBX 19 20 1 -1
BITMAP
1BFFE0
3BFFE0
3BFFE0
3380E0
71FFE0
71FFC0
79FFC0
F9C000
39C000
39FFE0
39FFC0
39FFC0
39C380
3BFFE0
3BFFE0
3BFFE0
380000
38C1C0
39C1C0
39C1C0
ENDCHAR
STARTCHAR 50A8
ENCODING 20648
SWIDTH 990 0
DWIDTH 22 0
BBX 19 21 2 -1
BITMAP
740E00
770E00
777FC0
777FC0
607FC0
E70EC0
EF7FE0
FF7FC0
F77FC0
773800
773FC0
777FC0
777FC0
7779C0
77FFC0
773FC0
773FC0
7739C0
77BFC0
77BFC0
77BFC0
ENDCHAR
STARTCHAR 50A9
ENCODING 20649
SWIDTH 1035 0
DWIDTH 23 0
BBX 19 21 2 -2
BITMAP
300D00
37DDC0
7FDFE0
7FDFE0
6FDFE0
6FDDC0
EFD9C0
FFFFE0
FFDFE0
7FDFE0
7FDDC0
7FDDC0
779FE0
779FE0
739FE0
739DC0
779DC0
779DC0
77DFE0
7FDFE0
7EDFE0
ENDCHAR
STARTCHAR 50AC
ENCODING 20652
SWIDTH 1035 0
DWIDTH 23 0
BBX 20 21 1 -2
BITMAP
1C1C00
3B9CE0
3B9CE0
3B9CE0
73FFE0
73FFE0
73FFE0
F9C700
3BBFF0
3BBFF0
3BBFF0
3B0700
3FBFE0
3BBFE0
3BBFE0
3BBFE0
3BBFE0
3B8700
3BBFF0
3BBFF0
3BBFF0
ENDCHAR
STARTCHAR 50B2
ENCODING 20658
SWIDTH 1035 0
DWIDTH 23 0
BBX 19 21 2 -1
BITMAP
39CC00
77EE00
77EFE0
77EFE0
71CFE0
E7EEE0
E7EEE0
F7EEE0
F1CEE0
77EEE0
77EEE0
7FEEE0
77E7C0
77E7C0
77E3C0
77E380
77E3C0
77E7C0
76E7C0
76EEE0
76EEE0
ENDCHAR
STARTCHAR 50BA
ENCODING 20666
SWIDTH 990 0
DWIDTH 22 0
BBX 19 21 2 -1
BITMAP
3B0E00
73EFE0
77E7E0
77E7C0
76C740
E7C3C0
E7C3C0
F7FF80
F7FFC0
777FC0
700000
700000
77FFE0
77FFC0
7FFFC0
7339C0
7739C0
7739C0
7779C0
7778E0
7738E0
ENDCHAR
STARTCHAR 50BB
ENCODING 20667
SWIDTH 1035 0
DWIDTH 23 0
BBX 19 21 2 -3
BITMAP
1C1C00
1FFFE0
3BFFE0
3BFFE0
3BB6E0
739CE0
73B6E0
7BFFE0
FBFFE0
FBBFE0
39C1C0
3BC1E0
39FFC0
39FFC0
3BFFC0
3801C0
39E7C0
39FFC0
39FFC0
3BE3E0
3B0060
ENDCHAR
STARTCHAR 50CF
ENCODING 20687
SWIDTH 990 0
DWIDTH 22 0
BBX 19 21 1 -3
BITMAP
1DC000
39FFC0
39FF80
3BFF80
33FFE0
73FFE0
739CE0
7B9CE0
FBFFE0
3BFFE0
387C00
39FEE0
3BFEE0
3B8EC0
387EC0
3BFEC0
3BEEC0
3A1EE0
39FEE0
3BFE60
3B0E60
ENDCHAR
STARTCHAR 50D6
ENCODING 20694
SWIDTH 990 0
DWIDTH 22 0
BBX 20 21 1 -1
BITMAP
381C00
3BFFF0
3BFFE0
33FFE0
73FFE0
73FFE0
700000
FBFFE0
FBFFE0
3B80E0
3BFFE0
3BBFE0
388200
3BFFF0
3BFFE0
3BFFE0
3BFFE0
3BFFE0
3B80E0
3BBFE0
3BBFE0
ENDCHAR
STARTCHAR 50DA
ENCODING 20698
SWIDTH 990 0
DWIDTH 22 0
BBX 19 21 1 -2
BITMAP
1C3800
1DFFE0
1DFFE0
3BFFC0
3BE7E0
7BE3E0
73FFE0
7BFFC0
FBFFE0
39C1C0
39FFC0
39FFC0
39C1C0
39FFC0
39FFC0
39FFC0
39DCC0
399CC0
3BBCE0
3BBCE0
3B9CE0
ENDCHAR
STARTCHAR 50E6
ENCODING 20710
SWIDTH 1035 0
DWIDTH 23 0
BBX 19 20 2 -1
BITMAP
37FBE0
7FF3E0
7FF3E0
7007E0
E7FFE0
E7FFE0
F7F300
777300
7773C0
77F3C0
77F7C0
71C7C0
71C7C0
77F7C0
77F7C0
77F7C0
77F7C0
77F7E0
77F7E0
77FFE0
ENDCHAR
STARTCHAR 50E7
ENCODING 20711
SWIDTH 990 0
DWIDTH 22 0
BBX 19 20 1 -1
BITMAP
1C7300
3BFFE0
3BFFE0
3BCEE0
73EFE0
73EFE0
7B8CE0
FBFFE0
3BFFE0
3BFFE0
39FFE0
39FFE0
39FFE0
39C0E0
39FFE0
39FFE0
39C0E0
39FFE0
39FFE0
39DFE0
ENDCHAR
STARTCHAR 50EC
ENCODING 20716
SWIDTH 990 0
DWIDTH 22 0
BBX 20 20 1 -1
BITMAP
19FFE0
39FFE0
3BBFE0
3B8700
73BFE0
73BFE0
7BBFE0
FB8700
3BBFE0
3BBFE0
3BBFE0
3B8700
3BBFE0
3BBFE0
3BBFE0
3A2440
3BBF70
3BBF70
3BBF70
3BBF70
ENDCHAR
STARTCHAR 50ED
ENCODING 20717
SWIDTH 990 0
DWIDTH 22 0
BBX 20 21 1 -2
BITMAP
1C0000
3BF7F0
3BF7E0
3BF7E0
33F7F0
73F7E0
73F7E0
7BE7C0
FBF7E0
3BFFF0
380000
3BFFE0
3BFFE0
3BFFE0
3B80E0
3BFFE0
3BFFE0
3BFFE0
3BFFE0
3BBFE0
3B9FE0
ENDCHAR
STARTCHAR 50EE
ENCODING 20718
SWIDTH 990 0
DWIDTH 22 0
BBX 20 21 1 -2
BITMAP
1C1800
1DFFE0
39FFE0
39FFE0
38E380
71FFF0
73FFE0
73FFE0
F9FFE0
39FFE0
39FFE0
39FFE0
39DCE0
39FFE0
39FFE0
39FFE0
39FFE0
39FFE0
39FFF0
3BFFF0
3BFFE0
ENDCHAR
STARTCHAR 50F3
ENCODING 20723
SWIDTH 990 0
DWIDTH 22 0
BBX 19 20 1 -2
BITMAP
19FFE0
3BFFE0
3BFFC0
33FFE0
73FFE0
73FFE0
7BFFE0
FBFFE0
3BBFE0
399D80
39DDC0
39DDC0
381C00
39FFE0
3BFFE0
3BFFC0
39DDC0
399CC0
3B9CE0
3B9CE0
ENDCHAR
STARTCHAR 50F5
ENCODING 20725
SWIDTH 990 0
DWIDTH 22 0
BBX 20 21 1 -2
BITMAP
1DFFE0
39FFE0
3BFFE0
39FFE0
71FFE0
71FFE0
71DCE0
79FFE0
F9FFE0
39FFF0
3BFFE0
3BFFE0
39FFE0
39FFE0
39DCE0
39FFE0
39FFE0
39FFE0
39FFF0
3BFFE0
3BFFE0
ENDCHAR
STARTCHAR 50FB
ENCODING 20731
SWIDTH 1035 0
DWIDTH 23 0
BBX 19 20 2 -1
BITMAP
3FF380
77F7E0
77F7E0
7777E0
677000
E776C0
F7F6C0
F7F7E0
77F7E0
77F380
77F380
77F380
77F7E0
77F7E0
77F7E0
77F380
77F380
77F380
77F380
77F380
ENDCHAR
STARTCHAR 5104
ENCODING 20740
SWIDTH 990 0
DWIDTH 22 0
BBX 20 21 1 -2
BITMAP
1C1800
19FFE0
39FFE0
39FFE0
33FFF0
73FFF0
73FFE0
79FFE0
F9FFE0
39FFE0
39FFE0
39FFE0
39FFE0
39FFE0
39FFE0
380400
3A3F40
3BBF70
3BBF70
3BBF70
3BBF70
ENDCHAR
STARTCHAR 5106
ENCODING 20742
SWIDTH 1035 0
DWIDTH 23 0
BBX 20 20 2 -1
BITMAP
77E700
7FFFF0
7FF7F0
7FF7F0
67E7E0
E7E7E0
EE07E0
FFFFE0
FFFFE0
7FFFE0
7E3FE0
7FBFE0
7FBBC0
7FBBC0
7DB980
7DBBC0
7DBBC0
7FFBE0
7FBFE0
7DBFE0
ENDCHAR
STARTCHAR 5107
ENCODING 20743
SWIDTH 990 0
DWIDTH 22 0
BBX 19 21 1 -2
BITMAP
1DFFC0
39FFC0
39FFC0
39FFC0
71FFC0
71FFC0
71FFE0
7BFFE0
FBFFC0
39FFC0
39FFC0
39FFC0
39FFC0
39FFC0
39FFC0
39C7E0
39E3C0
3BE3C0
38F380
38F980
38FDC0
ENDCHAR
STARTCHAR 510B
ENCODING 20747
SWIDTH 990 0
DWIDTH 22 0
BBX 19 21 1 -2
BITMAP
1DC000
3BFFC0
3BFFC0
3BFF80
33FFE0
73FFE0
73FFE0
7BB8E0
FBFE60
3BFFE0
3BFFE0
3BFFE0
3BBFE0
3BBFE0
3BBFE0
3BBFE0
3B8000
3BBFE0
3BBFE0
3BBFE0
3BBFE0
ENDCHAR
STARTCHAR 5112
ENCODING 20754
SWIDTH 990 0
DWIDTH 22 0
BBX 19 20 1 -2
BITMAP
19FFE0
3BFFE0
3BFFE0
33FFE0
73FFE0
73DDE0
7B9CE0
FBDDE0
3B9CE0
3BFFE0
3BFFE0
3BFFE0
383C00
3BFFE0
3BFFE0
3BFFE0
3BB6E0
3BB6E0
3BB6E0
3BB6E0
ENDCHAR
STARTCHAR 5121
ENCODING 20769
SWIDTH 990 0
DWIDTH 22 0
BBX 20 20 1 -2
BITMAP
1DFFE0
39FFE0
39FFE0
39FFE0
71FFE0
71FFE0
79FFE0
F9FFE0
39FFE0
380000
3BF7F0
3BF7F0
3BF7F0
3B76B0
3BF7F0
3BF7F0
3B76B0
3BF7F0
3BF7F0
3B76F0
ENDCHAR
STARTCHAR 513F
ENCODING 20799
SWIDTH 990 0
DWIDTH 22 0
BBX 18 20 2 -2
BITMAP
1C1C00
1C1C00
1C1C00
1C1C00
3C1C00
381C00
381C00
381C00
381C00
381C00
381C00
381C00
701C00
701C00
701C00
701C00
701C00
701F80
701FC0
E01FC0
ENDCHAR
STARTCHAR 5140
ENCODING 20800
SWIDTH 1035 0
DWIDTH 23 0
BBX 18 20 2 -2
BITMAP
7FFFC0
7FFFC0
FFFF80
0E1C00
0E1C00
0C1C00
1C1C00
1C1C00
1C1C00
1C1C00
1C1C00
1C1C00
381C00
381C00
381C00
381C00
381C00
381FC0
381FC0
701FC0
ENDCHAR
STARTCHAR 5141
ENCODING 20801
SWIDTH 990 0
DWIDTH 22 0
BBX 17 20 2 -1
BITMAP
3C0000
380000
380600
380700
700700
700700
7FFF00
FFFF00
FFFF00
1C3800
1C3800
3C3800
383800
383800
383800
783800
703800
703F80
703F80
E03F80
ENDCHAR
STARTCHAR 5143
ENCODING 20803
SWIDTH 990 0
DWIDTH 22 0
BBX 18 20 2 -2
BITMAP
3FFF00
3FFF00
3FFF00
000000
000000
000000
000000
7FFFC0
7FFF80
FFFF80
0E1C00
0E1C00
1C1C00
1C1C00
1C1C00
381C00
381C00
381F80
381F80
701FC0
ENDCHAR
STARTCHAR 5144
ENCODING 20804
SWIDTH 990 0
DWIDTH 22 0
BBX 17 20 2 -2
BITMAP
7FFF00
7FFF00
7FFF00
700700
700700
700700
700700
7FFF00
77FF00
77FF00
1C1C00
1C1C00
1C1C00
381C00
381C00
381C00
701C00
701F80
601F80
E01F80
ENDCHAR
STARTCHAR 5145
ENCODING 20805
SWIDTH 990 0
DWIDTH 22 0
BBX 19 21 2 -1
BITMAP
00E000
00E000
7FFFC0
7FFFC0
FFFF80
0E0000
1C0200
1C0380
3C0380
3FFF80
3FFF80
7FFF80
0E1C00
0E1C00
1C1C00
1C1C00
381C00
381C00
381FC0
701FC0
701FE0
ENDCHAR
STARTCHAR 5146
ENCODING 20806
SWIDTH 990 0
DWIDTH 22 0
BBX 18 20 2 -2
BITMAP
0E7000
0E7000
CE7180
EE7380
EE7380
EE7380
EE7380
0E7000
EE7380
EE7380
EE7380
EE7380
EE7380
FE7380
DC7180
1C7000
387000
387F80
707F80
707FC0
ENDCHAR
STARTCHAR 5148
ENCODING 20808
SWIDTH 990 0
DWIDTH 22 0
BBX 18 21 2 -2
BITMAP
00E000
60E000
70E000
7FFF80
7FFF80
7FFF00
70E000
70E000
70E000
00E000
FFFFC0
FFFFC0
FFFF80
0E1C00
1E1C00
1C1C00
1C1C00
381C00
381F80
701FC0
701FC0
ENDCHAR
STARTCHAR 5149
ENCODING 20809
SWIDTH 1035 0
DWIDTH 23 0
BBX 19 21 2 -2
BITMAP
00E000
20E200
38E380
38E380
38E380
38E380
38E380
00E000
7FFFE0
7FFFC0
FFFFC0
0E1C00
1E1C00
1C1C00
1C1C00
1C1C00
381C00
381C00
381FC0
701FC0
701FE0
ENDCHAR
STARTCHAR 514B
ENCODING 20811
SWIDTH 1035 0
DWIDTH 23 0
BBX 19 21 2 -1
BITMAP
00E000
00E000
7FFFE0
7FFFC0
FFFFC0
00E000
3FFF80
3FFF80
3FFF80
380380
380380
3FFF80
3BFF80
3BFF80
000000
0E1C00
0E1C00
1C1C00
1C1FC0
381FC0
381FC0
ENDCHAR
STARTCHAR 514D
ENCODING 20813
SWIDTH 990 0
DWIDTH 22 0
BBX 18 21 2 -1
BITMAP
380000
3FFF00
3FFE00
7FFE00
700E00
001C00
7FFF80
7FFF80
7FFF80
71C380
71C380
7FFF80
7FFF80
7FFF80
078000
0F3800
0E3800
1C3800
383F80
783FC0
F03FC0
ENDCHAR
STARTCHAR 5150
ENCODING 20816
SWIDTH 990 0
DWIDTH 22 0
BBX 17 20 3 -2
BITMAP
E7FF00
E7FF00
E7FF00
E70700
E7FF00
E7FF00
E7FF00
E70700
E7FF00
E7FF00
E77F00
000000
387000
387000
387000
707000
707000
E07F00
E07F00
E07F80
ENDCHAR
STARTCHAR 5151
ENCODING 20817
SWIDTH 990 0
DWIDTH 22 0
BBX 17 21 2 -1
BITMAP
0C3000
0E3800
0E3800
7FFF00
7FFF00
7FFF00
700700
700700
700700
700700
7FFF00
7FFF00
7FFF00
000000
1C1C00
1C1C00
381C00
381C00
701F80
701F80
E01F80
ENDCHAR
STARTCHAR 5152
ENCODING 20818
SWIDTH 1035 0
DWIDTH 23 0
BBX 17 20 3 -2
BITMAP
FE7F00
FE7F00
FE7F00
E00700
FE7F00
FE7F00
FE7F00
E00700
E00700
FFFF00
FFFF00
FFFF00
1C3800
383800
383800
783800
703800
703F00
E03F80
E03F80
ENDCHAR
STARTCHAR 5154
ENCODING 20820
SWIDTH 990 0
DWIDTH 22 0
BBX 19 21 2 -1
BITMAP
380000
3FFE00
7FFE00
7FFE00
701E00
001C00
7FFF80
7FFF80
7FFF80
70E380
70E380
7FFF80
7FFF80
7FFF80
038200
077380
0E7380
1C7000
387FC0
787FC0
F07FE0
ENDCHAR
STARTCHAR 5155
ENCODING 20821
SWIDTH 1035 0
DWIDTH 23 0
BBX 17 20 3 -2
BITMAP
FE7F00
FE7F00
FE7F00
EE7700
EFF700
EFF700
EFF700
E00700
E00700
FFFF00
FFFF00
EFFF00
1C3800
183800
383800
383800
703800
703F00
F03F00
E03F80
ENDCHAR
STARTCHAR 5156
ENCODING 20822
SWIDTH 990 0
DWIDTH 22 0
BBX 19 21 2 -2
BITMAP
008000
00E000
7FFFE0
7FFFC0
FFFFC0
000000
3BC380
3B8380
739B80
771DC0
E7FDC0
0FFC00
0FFC00
0E1C00
0E1C00
1E1C00
1C1C00
1C1C00
381FC0
381FC0
701FE0
ENDCHAR
STARTCHAR 515A
ENCODING 20826
SWIDTH 1035 0
DWIDTH 23 0
BBX 18 21 2 -2
BITMAP
01C000
39C700
39C700
FFFFC0
FFFFC0
FFFFC0
E001C0
3FFF00
3FFF00
3FFF00
380700
380700
3FFF00
3FFF00
3FFF00
0C3800
1C3800
1C3800
383F80
383FC0
303FC0
ENDCHAR
STARTCHAR 515C
ENCODING 20828
SWIDTH 1035 0
DWIDTH 23 0
BBX 19 21 2 -2
BITMAP
00C000
FFFBC0
F7FBC0
F7FFC0
E739C0
E739C0
E739C0
E7F9C0
E7F9C0
E7F9C0
E739C0
F7FBC0
F7FBC0
F7FFC0
000000
1C1C00
3C1C00
381C00
781FC0
701FC0
701FE0
ENDCHAR
STARTCHAR 5162
ENCODING 20834
SWIDTH 1035 0
DWIDTH 23 0
BBX 19 21 2 -2
BITMAP
1C0700
FFBFE0
FFBFE0
FF3FC0
1C0700
1C0700
FFBFE0
FFBFE0
FFBFE0
E3B8E0
FFBFE0
FFBFE0
FFBFE0
000000
7E1F80
7E1F80
6E1B80
EE3B80
EFBBE0
EFBBE0
EFBBE0
ENDCHAR
STARTCHAR 5165
ENCODING 20837
SWIDTH 990 0
DWIDTH 22 0
BBX 18 21 2 -2
BITMAP
038000
01C000
01C000
01E000
00E000
00F000
01F000
03F800
03B800
07B800
071C00
0F1C00
0E0E00
1E0E00
1C0F00
3C0700
380780
780380
700380
F001C0
E001C0
ENDCHAR
STARTCHAR 5168
ENCODING 20840
SWIDTH 945 0
DWIDTH 21 0
BBX 17 20 2 -2
BITMAP
3FFE00
3FFE00
7FFF00
700700
700700
6FFB00
EFFB80
EFFB80
01C000
01C000
01C000
7FFF00
7FFF00
7FFF00
01C000
01C000
01C000
FFFF80
FFFF80
FFFF80
ENDCHAR
STARTCHAR 516B
ENCODING 20843
SWIDTH 990 0
DWIDTH 22 0
BBX 18 20 2 -2
BITMAP
0E1C00
0E1C00
0E0E00
1C0E00
1C0E00
1C0E00
1C0E00
1C0700
380700
380700
380700
380700
380380
700380
700380
700380
7001C0
E001C0
E001C0
E001C0
ENDCHAR
STARTCHAR 516C
ENCODING 20844
SWIDTH 990 0
DWIDTH 22 0
BBX 18 20 2 -2
BITMAP
0E0E00
1C0E00
1C0F00
3C0700
380700
380380
700380
7383C0
F781C0
E701C0
070000
0F0000
0E0400
0E0700
1E0700
1C0700
1C0700
3FFF00
3FFF00
3FFF00
ENDCHAR
STARTCHAR 516D
ENCODING 20845
SWIDTH 1035 0
DWIDTH 23 0
BBX 19 21 2 -1
BITMAP
00C000
00E000
00E000
00E000
000000
000000
7FFFE0
7FFFC0
FFFFC0
000000
0E0E00
1C0E00
1C0700
1C0700
180700
380380
380380
380380
7001C0
7001C0
7001C0
ENDCHAR
STARTCHAR 516E
ENCODING 20846
SWIDTH 990 0
DWIDTH 22 0
BBX 18 20 2 -2
BITMAP
1C0E00
380F00
380700
700380
F00380
000000
7FFFC0
FFFF80
FFFF80
1C0000
1C0000
1FFF00
1FFF00
1FFF00
000700
000700
000700
007F00
003F00
003F00
ENDCHAR
STARTCHAR 5170
ENCODING 20848
SWIDTH 990 0
DWIDTH 22 0
BBX 18 20 2 -1
BITMAP
0C1800
0E1C00
0E1C00
7FFFC0
7FFF80
FFFF80
000000
000000
000000
000000
3FFF00
3FFF00
3FFF00
000000
000000
000000
000000
FFFFC0
FFFFC0
FFFFC0
ENDCHAR
STARTCHAR 5171
ENCODING 20849
SWIDTH 1035 0
DWIDTH 23 0
BBX 19 21 2 -2
BITMAP
0E0E00
0E0E00
0E0E00
0E0E00
7FFFC0
7FFFC0
7FFFC0
0E0E00
0E0E00
0E0E00
0E0E00
0E0E00
7FFFE0
FFFFC0
FFFFC0
0E0E00
1C0700
1C0700
380380
380380
7001C0
ENDCHAR
STARTCHAR 5172
ENCODING 20850
SWIDTH 1035 0
DWIDTH 23 0
BBX 19 20 2 -2
BITMAP
3FFFC0
7FFFC0
7FFF80
00E000
00E000
3FFF80
3FFF80
3FFF80
00E000
00E000
7FFFE0
7FFFC0
FFFFC0
000000
1C0F00
1C0700
380380
380380
7001C0
F001E0
ENDCHAR
STARTCHAR 5173
ENCODING 20851
SWIDTH 990 0
DWIDTH 22 0
BBX 18 21 2 -1
BITMAP
0C1800
0E1C00
7FFF80
7FFF80
7FFF80
00E000
00E000
00E000
00E000
00E000
7FFFC0
FFFF80
FFFF80
078000
0F1C00
0E1C00
1E0E00
3C0F00
380700
780380
F003C0
ENDCHAR
STARTCHAR 5174
ENCODING 20852
SWIDTH 1035 0
DWIDTH 23 0
BBX 19 21 2 -1
BITMAP
208200
38E380
38E380
38E380
38E380
38E380
38E380
38E380
000000
7FFFE0
7FFFC0
FFFFC0
000000
1E0E00
1C0700
1C0700
380380
380380
7803C0
7001C0
F001C0
ENDCHAR
STARTCHAR 5175
ENCODING 20853
SWIDTH 990 0
DWIDTH 22 0
BBX 19 20 1 -2
BITMAP
1FFF80
1FFF80
1FFF80
1C0000
1C0000
1FFFC0
1FFFC0
1FFF80
1C0E00
1C0E00
1C0E00
1C0E00
7FFFE0
FFFFE0
FFFFE0
000000
1C0700
180380
380380
7001C0
ENDCHAR
STARTCHAR 5176
ENCODING 20854
SWIDTH 1035 0
DWIDTH 23 0
BBX 19 21 2 -2
BITMAP
1C0700
1C0700
7FFFC0
7FFFC0
7FFFC0
1C0700
1FFF00
1FFF00
1FFF00
1C0700
1FFF00
1FFF00
1FFF00
1C0700
7FFFE0
FFFFE0
FFFFC0
1C0700
380380
380380
7001C0
ENDCHAR
STARTCHAR 5177
ENCODING 20855
SWIDTH 990 0
DWIDTH 22 0
BBX 19 20 1 -2
BITMAP
1FFF80
1FFF80
1FFF80
1C0380
1FFF80
1FFF80
1C0380
1FFF80
1FFF80
1C0380
1FFF80
1FFF80
1C0380
7FFFE0
7FFFE0
FFFFC0
0E0700
1C0380
1C0380
3801C0
ENDCHAR
STARTCHAR 5178
ENCODING 20856
SWIDTH 990 0
DWIDTH 22 0
BBX 19 21 1 -2
BITMAP
03B800
03B800
3FFFC0
3FFFC0
3FFFC0
3BB9C0
3BB9C0
3BB9C0
3FFFC0
3FFFC0
3FFFC0
3BB9C0
3BB9C0
3BB9C0
7FFFE0
7FFFE0
FFFFE0
1C0700
1C0380
3803C0
3801C0
ENDCHAR
STARTCHAR 5179
ENCODING 20857
SWIDTH 1035 0
DWIDTH 23 0
BBX 19 20 2 -1
BITMAP
071C00
071C00
7FFFE0
7FFFC0
FFFF80
1C0E00
381C00
381C00
381C00
7FBFC0
7FBF80
7F3F80
1C1E00
381C00
3A1D00
3B9DC0
7BB9C0
7FBFC0
7FBFC0
7FFFC0
ENDCHAR
STARTCHAR 517B
ENCODING 20859
SWIDTH 1035 0
DWIDTH 23 0
BBX 19 21 2 -2
BITMAP
081000
0E1C00
7FFFC0
7FFFC0
7FFFC0
038000
3FFF80
3FFF80
3FFF80
7FFFE0
FFFFE0
FFFFC0
380780
7003C0
7E1DC0
EE1DE0
0E1C00
0C1C00
1C1C00
1C1C00
1C1C00
ENDCHAR
STARTCHAR 517C
ENCODING 20860
SWIDTH 990 0
DWIDTH 22 0
BBX 20 21 1 -2
BITMAP
040800
070E00
7FFFE0
7FFFE0
7FFFC0
1FFFC0
3FFFC0
3FFFC0
039DC0
7FFFF0
7FFFE0
FFFFE0
1FFFC0
3FFFC0
3FFFC0
039C00
3B9DC0
3B9DC0
739DC0
739CE0
739CE0
ENDCHAR
STARTCHAR 517D
ENCODING 20861
SWIDTH 1035 0
DWIDTH 23 0
BBX 19 21 2 -1
BITMAP
071C00
3FFF80
3FFF80
3FFF80
3FFF80
3FFF80
3FFF80
38E380
3FFF80
3BFF80
3BFF80
7FFFE0
FFFFE0
FFFFC0
3FFF80
3FFF80
3FFF80
380380
3FFF80
3BFF80
3BFF80
ENDCHAR
STARTCHAR 5180
ENCODING 20864
SWIDTH 945 0
DWIDTH 21 0
BBX 19 21 1 -2
BITMAP
039C00
7F9FC0
7F9FC0
7F9FC0
7F9FC0
3FFF80
3FFF80
3FFF80
387380
3FFF80
3FFF80
3FFF80
3FFF80
070E00
7FFFC0
7FFFC0
7FFFE0
7FFFE0
FFFFC0
1C0380
380180
ENDCHAR
STARTCHAR 5181
ENCODING 20865
SWIDTH 990 0
DWIDTH 22 0
BBX 19 20 2 -1
BITMAP
7E7FE0
FF7FE0
FF7FE0
DB7FE0
FF77E0
FF77E0
FF76C0
DB7FE0
DB7FE0
FF7FE0
FF76C0
FF7FE0
387FE0
FF7FE0
FF7FE0
FF7EE0
387EE0
387FE0
387FE0
387F60
ENDCHAR
STARTCHAR 5182
ENCODING 20866
SWIDTH 990 0
DWIDTH 22 0
BBX 18 20 2 -2
BITMAP
FFFFC0
FFFFC0
FFFFC0
E001C0
E001C0
E001C0
E001C0
E001C0
E001C0
E001C0
E001C0
E001C0
E001C0
E001C0
E001C0
E001C0
E001C0
E00FC0
E00FC0
E007C0
ENDCHAR
STARTCHAR 5185
ENCODING 20869
SWIDTH 1035 0
DWIDTH 23 0
BBX 17 21 3 -1
BITMAP
01C000
01C000
01C000
FFFF80
FFFF80
FFFF80
E38380
E3E380
E3E380
E77380
E77380
E77380
EE3380
EE3B80
EE3B80
FC1B80
E00380
E00380
E00F80
E00F80
E00F80
ENDCHAR
STARTCHAR 5188
ENCODING 20872
SWIDTH 990 0
DWIDTH 22 0
BBX 18 20 2 -2
BITMAP
FFFFC0
FFFFC0
FFFFC0
E001C0
E001C0
EE1DC0
E739C0
E7F1C0
E3F1C0
E1E1C0
E1E1C0
E1E1C0
E3F1C0
E779C0
E739C0
EE1DC0
E001C0
E00FC0
E00FC0
E007C0
ENDCHAR
STARTCHAR 5189
ENCODING 20873
SWIDTH 990 0
DWIDTH 22 0
BBX 19 21 1 -2
BITMAP
00E000
00E000
00E000
3FFF80
3FFF80
3FFF80
38E380
38E380
3FFF80
3FFF80
3FFF80
38E380
38E380
7FFFE0
FFFFE0
FFFFE0
380380
380380
380F80
380F80
380780
ENDCHAR
STARTCHAR 518C
ENCODING 20876
SWIDTH 990 0
DWIDTH 22 0
BBX 20 20 1 -2
BITMAP
3FDFC0
3FDFC0
3FDFC0
39DDC0
39DDC0
39DDC0
39DDC0
39DDC0
7FFFF0
7FFFE0
FFFFE0
39DDC0
39DDC0
39DDC0
39DDC0
39DDC0
39DDC0
3BDFC0
3BDDC0
39DDC0
ENDCHAR
STARTCHAR 518D
ENCODING 20877
SWIDTH 1035 0
DWIDTH 23 0
BBX 19 20 2 -2
BITMAP
7FFFC0
7FFFC0
FFFFC0
3FFF80
3FFF80
3FFF80
38E380
38E380
3FFF80
3FFF80
3FFF80
38E380
38E380
FFFFE0
FFFFE0
FFFFE0
380380
381F80
380F80
380780
ENDCHAR
STARTCHAR 5192
ENCODING 20882
SWIDTH 990 0
DWIDTH 22 0
BBX 18 20 2 -2
BITMAP
FFFFC0
FFFFC0
FFFFC0
EFFDC0
EFFDC0
EFFDC0
EFFDC0
000000
7FFF80
7FFF80
7FFF80
700380
7FFF80
7FFF80
700380
7FFF80
7FFF80
7FFF80
77FF80
77FF80
ENDCHAR
STARTCHAR 5195
ENCODING 20885
SWIDTH 990 0
DWIDTH 22 0
BBX 18 20 2 -2
BITMAP
FFFF80
FFFF80
FFFF80
E00380
EFFB80
000000
3FFE00
7FFE00
7FFE00
E00C00
7FFF00
7FFF00
7FFF00
71C700
7FFF00
7FFF00
0F7000
1C7F80
387FC0
F07FC0
ENDCHAR
STARTCHAR 5196
ENCODING 20886
SWIDTH 990 0
DWIDTH 22 0
BBX 18 7 2 12
BITMAP
FFFFC0
FFFFC0
FFFFC0
E001C0
E001C0
E001C0
E001C0
ENDCHAR
STARTCHAR 5197
ENCODING 20887
SWIDTH 990 0
DWIDTH 22 0
BBX 18 20 2 -2
BITMAP
FFFFC0
FFFFC0
FFFFC0
E001C0
E001C0
000000
1FFE00
1FFE00
1FFE00
1C0E00
1C0E00
1C0E00
1C0E00
1C0E00
380E00
380E00
380E00
700FC0
700FC0
700FC0
ENDCHAR
STARTCHAR 5199
ENCODING 20889
SWIDTH 990 0
DWIDTH 22 0
BBX 17 20 3 -2
BITMAP
FFFF80
FFFF80
FFFF80
E00380
380000
3FFF00
3FFF00
3FFE00
380000
380000
3FFF00
3FFF00
3FFF00
000700
7FF700
FFF700
FFE700
001F00
001F00
000F00
ENDCHAR
STARTCHAR 519B
ENCODING 20891
SWIDTH 1035 0
DWIDTH 23 0
BBX 18 20 2 -2
BITMAP
7FFFC0
7FFFC0
7FFFC0
7781C0
7701C0
3FFFC0
7FFFC0
7FFF80
0E7000
1C7000
1FFF80
1FFF00
3FFF00
007000
007000
7FFFC0
7FFFC0
FFFFC0
007000
007000
ENDCHAR
STARTCHAR 519C
ENCODING 20892
SWIDTH 990 0
DWIDTH 22 0
BBX 18 21 2 -2
BITMAP
01C000
01C000
FFFFC0
FFFFC0
FFFFC0
E381C0
E701C0
EE01C0
0E7000
1C7000
383800
3C3FC0
7C1FC0
FC1F80
FC0E00
1C0E00
1C0700
1C0700
1F0380
1F8380
1F81C0
ENDCHAR
STARTCHAR 51A0
ENCODING 20896
SWIDTH 1035 0
DWIDTH 23 0
BBX 19 20 2 -2
BITMAP
FFFFE0
FFFFE0
FFFFE0
E000E0
000380
FF0380
FF3FE0
FF7FE0
007FC0
FFA380
FFBB80
FF3B80
773B80
F70380
F70F80
F70F80
E70780
E7FFC0
E7FFE0
E7FFE0
ENDCHAR
STARTCHAR 51A2
ENCODING 20898
SWIDTH 990 0
DWIDTH 22 0
BBX 18 21 2 -3
BITMAP
FFFFC0
FFFFC0
FFFFC0
E001C0
000000
7FFFC0
FFFF80
FFFF80
1FC380
FEC380
F8E780
DFE700
1FEF00
FEE700
FDE700
8FE700
3FE380
FEE380
F0E3C0
C0E1C0
008000
ENDCHAR
STARTCHAR 51A4
ENCODING 20900
SWIDTH 990 0
DWIDTH 22 0
BBX 18 20 2 -2
BITMAP
FFFF80
FFFF80
FFFF80
F00380
7FFE00
7FFE00
E01C00
7FFF00
7FFF00
7FFF00
71C700
71C700
7FFF00
7FFF00
0F0000
1E7700
1C7700
387F80
787FC0
F07FC0
ENDCHAR
STARTCHAR 51A5
ENCODING 20901
SWIDTH 990 0
DWIDTH 22 0
BBX 18 20 2 -2
BITMAP
FFFFC0
FFFFC0
FFFFC0
FFFFC0
FFFFC0
3FFF00
3FFF00
3FFF00
380700
3FFF00
3BFF00
3BFF00
01C000
FFFFC0
FFFFC0
FFFF80
380700
380700
700380
700380
ENDCHAR
STARTCHAR 51AB
ENCODING 20907
SWIDTH 990 0
DWIDTH 22 0
BBX 3 19 1 -1
BITMAP
C0
E0
E0
E0
E0
E0
E0
00
00
00
C0
E0
E0
E0
E0
E0
E0
E0
E0
ENDCHAR
STARTCHAR 51AC
ENCODING 20908
SWIDTH 990 0
DWIDTH 22 0
BBX 19 20 2 -1
BITMAP
380000
3FFF00
3FFF00
7FFF00
700700
3C0F00
3FFF00
1FFC00
3FFE00
FF7FE0
F807E0
C000E0
1FE000
1FFF00
03FF00
000300
7C0000
7FFC00
7FFFC0
007FC0
ENDCHAR
STARTCHAR 51AF
ENCODING 20911
SWIDTH 990 0
DWIDTH 22 0
BBX 18 20 2 -1
BITMAP
87FF80
E7FF80
EFFF80
E70380
E70380
E70380
E70380
070380
07FFC0
07FFC0
C7FFC0
E001C0
E001C0
E7FDC0
EFFDC0
EFFDC0
E001C0
E01FC0
E01FC0
E00FC0
ENDCHAR
STARTCHAR 51B0
ENCODING 20912
SWIDTH 1035 0
DWIDTH 23 0
BBX 19 21 2 -2
BITMAP
003800
C03800
E03800
E03E00
E03F00
E7BF00
EFBFE0
EFBFC0
03BFC0
03BB80
033B80
873B80
E73B80
E73B80
E739C0
E739C0
E639C0
EE39C0
EEF9C0
EE78C0
EE78E0
ENDCHAR
STARTCHAR 51B1
ENCODING 20913
SWIDTH 1035 0
DWIDTH 23 0
BBX 19 20 2 -1
BITMAP
CFFFE0
EFFFC0
FFFFC0
E70000
E70000
E7FF80
E7FF80
07FF80
070380
070380
070380
870380
E7FF80
E7FF80
E7FF80
E00380
E00380
EFFFE0
EFFFE0
FFFFC0
ENDCHAR
STARTCHAR 51B2
ENCODING 20914
SWIDTH 990 0
DWIDTH 22 0
BBX 18 21 2 -2
BITMAP
003800
803800
E03800
E03800
EFFFC0
EFFFC0
EFFFC0
EE39C0
0E39C0
0E39C0
8E39C0
CE39C0
EFFFC0
EFFFC0
EFFFC0
E03800
E03800
E03800
E03800
003800
003800
ENDCHAR
STARTCHAR 51B3
ENCODING 20915
SWIDTH 990 0
DWIDTH 22 0
BBX 18 21 2 -1
BITMAP
007000
C07000
E3FF80
E7FF80
E7FF80
E07380
E07380
E07380
007380
007380
0FFFC0
8FFFC0
EFFFC0
E0E000
E1DE00
E1CE00
E3C700
E38700
E78380
E70380
EF01C0
ENDCHAR
STARTCHAR 51B5
ENCODING 20917
SWIDTH 1035 0
DWIDTH 23 0
BBX 18 20 2 -1
BITMAP
C7FF80
E7FF80
E7FF80
E70380
E70380
E70380
E70380
070380
07FF80
07FF80
87FF80
E18E00
E38E00
E38E00
E38E00
E30E00
E70E00
E70FC0
E70FC0
EE0FC0
ENDCHAR
STARTCHAR 51B6
ENCODING 20918
SWIDTH 990 0
DWIDTH 22 0
BBX 18 21 2 -2
BITMAP
038000
C38000
E30000
E70180
E701C0
E701C0
E7FFC0
E7FFC0
07FFC0
000000
000000
C7FF80
E7FF80
E7FF80
E70380
E70380
E70380
E70380
E7FF80
E77F80
E77F80
ENDCHAR
STARTCHAR 51B7
ENCODING 20919
SWIDTH 990 0
DWIDTH 22 0
BBX 18 20 2 -1
BITMAP
87FF00
E7FF00
E7FF80
E70380
EE4380
EE7380
EE73C0
0E71C0
007000
07FF80
87FF80
EFFF80
E00380
E00700
E00700
E00E00
E00E00
E7FF80
E7FF80
E7FF00
ENDCHAR
STARTCHAR 51BB
ENCODING 20923
SWIDTH 1035 0
DWIDTH 23 0
BBX 18 21 2 -2
BITMAP
01C000
C1C000
EFFFC0
EFFFC0
EFFFC0
E38000
E73800
E73800
073800
07FFC0
07FF80
CFFF80
E03800
E73980
E73980
E739C0
E639C0
EE39C0
EEF9C0
EE78C0
EE78C0
ENDCHAR
STARTCHAR 51BC
ENCODING 20924
SWIDTH 990 0
DWIDTH 22 0
BBX 18 21 2 -1
BITMAP
003800
C63800
E73800
E7FF80
E7FF80
E7FF80
E73800
E73800
003800
07FFC0
0FFF80
CFFF80
E1CE00
E18E00
E38E00
E38E00
E38E00
E30E00
E70F80
E70FC0
E70FC0
ENDCHAR
STARTCHAR 51BD
ENCODING 20925
SWIDTH 1035 0
DWIDTH 23 0
BBX 19 21 2 -1
BITMAP
0000E0
CFF0E0
EFF0E0
EFE0E0
E708E0
E7EEE0
E7EEE0
0FEEE0
0EEEE0
0EEEE0
0CEEE0
C7EEE0
EFEEE0
EFEEE0
E1CEE0
E1CEE0
E1C0E0
E380E0
E383E0
E703E0
E701E0
ENDCHAR
STARTCHAR 51C0
ENCODING 20928
SWIDTH 990 0
DWIDTH 22 0
BBX 18 21 2 -1
BITMAP
870000
C7FF00
EFFF00
EFFE00
EE0E00
E7FFC0
EFFFC0
EFFFC0
0071C0
1FFFC0
1FFFC0
DFFFC0
E071C0
E7FFC0
EFFFC0
EFFFC0
E07000
E07000
E3F000
E1F000
E1F000
ENDCHAR
STARTCHAR 51C4
ENCODING 20932
SWIDTH 1035 0
DWIDTH 23 0
BBX 19 21 2 -1
BITMAP
003800
C7FFC0
E7FFC0
EFFF80
E3FF80
E7FF80
E03B80
0FFFE0
0FFFE0
0FFFE0
03FF80
C7FF80
E38000
E7FFE0
EFFFC0
EFFF80
E38700
E3FF00
E0FC00
E1FF00
E7E7C0
ENDCHAR
STARTCHAR 51C6
ENCODING 20934
SWIDTH 1035 0
DWIDTH 23 0
BBX 19 21 2 -2
BITMAP
078800
870E00
E70E00
EE7FC0
EEFFC0
EEFFC0
EC0E00
FE0E00
1E7FC0
0E7FC0
0E7FC0
CE0E00
EE0E00
EE7FC0
EE7FC0
EE7FC0
EE0E00
EE0E00
EE7FE0
EEFFC0
EEFFC0
ENDCHAR
STARTCHAR 51C7
ENCODING 20935
SWIDTH 990 0
DWIDTH 22 0
BBX 19 21 1 -2
BITMAP
038EC0
C38EC0
E38EE0
EFEEE0
EFECE0
FFCCE0
E38CE0
FBFCE0
1BFCE0
1BE000
1BE600
9BEE00
FBEE00
FBEE80
FBEEE0
FBEEE0
FBEEE0
FBEEE0
FBEFE0
FBFFE0
FBFFE0
ENDCHAR
STARTCHAR 51C9
ENCODING 20937
SWIDTH 990 0
DWIDTH 22 0
BBX 18 21 2 -2
BITMAP
002000
803800
E7FFC0
EFFFC0
EFFF80
E7FF80
E7FF80
E7FF80
070380
070380
07FF80
C7FF80
E7FF80
E03800
E73B80
E73B80
E63B80
E63B80
EE7980
EE79C0
EE39C0
ENDCHAR
STARTCHAR 51CB
ENCODING 20939
SWIDTH 990 0
DWIDTH 22 0
BBX 18 20 2 -1
BITMAP
8FFFC0
EFFFC0
EFFFC0
EEFDC0
EEFDC0
EEFDC0
EE71C0
0EFDC0
0FFDC0
0FFDC0
CEFDC0
EEFDC0
EEFDC0
EEDDC0
EEFDC0
EEFDC0
EEFDC0
EE0FC0
EE07C0
EE07C0
ENDCHAR
STARTCHAR 51CC
ENCODING 20940
SWIDTH 990 0
DWIDTH 22 0
BBX 18 21 2 -1
BITMAP
007000
C7FF80
E7FF80
E7FF80
E7FFC0
EFFFC0
EFFFC0
E00000
070380
070380
0E01C0
87FF80
E7FF80
E7FF80
E60380
E70380
E78F80
E3FF00
E0FC00
E1FE00
E7CFC0
ENDCHAR
STARTCHAR 51CF
ENCODING 20943
SWIDTH 1035 0
DWIDTH 23 0
BBX 19 21 2 -2
BITMAP
000740
800760
C00760
FFFFE0
FFFFE0
FFFFC0
FC0780
FDFB80
1DFB80
1DFB80
9C03C0
DC03C0
FDFFC0
FDFF80
FDFF80
FD9B80
FD9B80
FDFB80
FDF9C0
FDB9E0
FC01E0
ENDCHAR
STARTCHAR 51D1
ENCODING 20945
SWIDTH 990 0
DWIDTH 22 0
BBX 18 21 2 -1
BITMAP
807000
C7FFC0
EFFFC0
EFFF80
E1C000
E7FF80
E7FF80
038000
0FFFC0
0FFFC0
9FFFC0
E7FF80
EFFF80
E3FF00
E0E000
EFFFC0
EFFF80
EFFF80
E38700
E70300
E70380
ENDCHAR
STARTCHAR 51DB
ENCODING 20955
SWIDTH 990 0
DWIDTH 22 0
BBX 18 21 2 -2
BITMAP
007000
CFFFC0
EFFF80
EFFF80
EFFF80
EFFF80
EEFF80
EECF80
0EFF80
0EFF80
8EFF80
C00000
EFFF80
EFFF80
EFFF80
EFFFC0
EFFF80
FFFF80
EEF380
EEF380
EC71C0
ENDCHAR
STARTCHAR 51DD
ENCODING 20957
SWIDTH 1035 0
DWIDTH 23 0
BBX 19 21 2 -1
BITMAP
1C0000
DFCFE0
FFDFE0
FFDFC0
FFCEC0
FFCEC0
FFCEC0
E01FE0
1C1FE0
1FFFE0
1FC3E0
9FC3E0
DB9B80
FFDBE0
FFDBE0
FFDBC0
E71F80
EF9F80
EFDFE0
EEDFE0
FCDBE0
ENDCHAR
STARTCHAR 51E0
ENCODING 20960
SWIDTH 1035 0
DWIDTH 23 0
BBX 19 20 2 -2
BITMAP
3FFF00
3FFF00
3FFF00
380700
380700
380700
380700
380700
380700
380700
380700
300700
700700
700700
700700
700700
600700
E007C0
E007C0
E007E0
ENDCHAR
STARTCHAR 51E1
ENCODING 20961
SWIDTH 990 0
DWIDTH 22 0
BBX 18 20 2 -2
BITMAP
3FFF00
3FFF00
3FFF00
380700
380700
380700
390700
39C700
39C700
39C700
39C700
31C700
71C700
700700
700700
700700
700700
E007C0
E007C0
E007C0
ENDCHAR
STARTCHAR 51E4
ENCODING 20964
SWIDTH 990 0
DWIDTH 22 0
BBX 19 20 2 -2
BITMAP
7FFF80
7FFF80
7FFF80
700380
77FB80
77FB80
77FB80
703B80
773B80
773B80
773B80
773B80
73FB80
73F380
71E380
E1E380
E3F380
E3F3C0
E73BC0
E73FE0
ENDCHAR
STARTCHAR 51EB
ENCODING 20971
SWIDTH 990 0
DWIDTH 22 0
BBX 18 21 2 -1
BITMAP
038000
7FFF00
7FFF00
7FFF00
720700
739F00
739F00
738F00
7FFF80
7FFF80
7FFF80
000380
7FFB80
7FFF80
7FFB80
703B80
703800
703800
E03F80
E03F80
E03FC0
ENDCHAR
STARTCHAR 51ED
ENCODING 20973
SWIDTH 1035 0
DWIDTH 23 0
BBX 19 21 2 -1
BITMAP
1C0000
39FFC0
31FFC0
71FFC0
7BFFE0
FBFFE0
3BFFE0
381C00
381C00
3BFFC0
3BFFC0
3BFFC0
1FFF80
1FFF80
1FFF80
1C0380
1C0380
380380
3803C0
7003E0
7003E0
ENDCHAR
STARTCHAR 51EF
ENCODING 20975
SWIDTH 1035 0
DWIDTH 23 0
BBX 19 21 2 -2
BITMAP
1C0000
1C3FC0
DDBFC0
DDBFC0
DDB9C0
FFB9C0
FFB9C0
FFB9C0
0039C0
FFB9C0
FFB9C0
FFB9C0
03B9C0
FFB9C0
FFB9C0
FFB9C0
E039C0
E039C0
FF39E0
FFB9E0
FFB9E0
ENDCHAR
STARTCHAR 51F0
ENCODING 20976
SWIDTH 990 0
DWIDTH 22 0
BBX 19 20 2 -2
BITMAP
7FFF80
7FFF80
7FFF80
71C380
77FF80
77FF80
77FF80
77FF80
771F80
77FF80
777F80
77FF80
77FF80
7FFB80
70E380
E7FB80
E7FB80
E7FFC0
EFFFC0
EFFFE0
ENDCHAR
STARTCHAR 51F3
ENCODING 20979
SWIDTH 990 0
DWIDTH 22 0
BBX 19 21 1 -3
BITMAP
3F9CE0
7F0FE0
0E0780
7FFFE0
7BFFE0
3801C0
7FFFE0
1FFF80
1C0380
1FFF80
1FFF80
0E0700
7FFFE0
7FFFE0
FFFFE0
0FFF80
0FFF80
0FFF80
1C03C0
3803E0
3803E0
ENDCHAR
STARTCHAR 51F5
ENCODING 20981
SWIDTH 945 0
DWIDTH 21 0
BBX 17 20 2 -2
BITMAP
E00380
E00380
E00380
E00380
E00380
E00380
E00380
E00380
E00380
E00380
E00380
E00380
E00380
E00380
E00380
E00380
E00380
FFFF80
FFFF80
FFFF80
ENDCHAR
STARTCHAR 51F6
ENCODING 20982
SWIDTH 990 0
DWIDTH 22 0
BBX 18 21 2 -2
BITMAP
0E1C00
0E1C00
073800
E739C0
E3F1C0
E3F1C0
E1E1C0
E1E1C0
E1E1C0
E1E1C0
E3F1C0
E3F1C0
E739C0
E739C0
EE1DC0
EE1DC0
E001C0
E001C0
FFFFC0
FFFFC0
FFFFC0
ENDCHAR
STARTCHAR 51F8
ENCODING 20984
SWIDTH 990 0
DWIDTH 22 0
BBX 18 20 2 -2
BITMAP
0FFC00
0FFC00
0FFC00
0E1C00
0E1C00
0E1C00
FE1FC0
FE1FC0
FE1FC0
E001C0
E001C0
E001C0
E001C0
E001C0
E001C0
E001C0
E001C0
FFFFC0
EFFFC0
EFFFC0
ENDCHAR
STARTCHAR 51F9
ENCODING 20985
SWIDTH 990 0
DWIDTH 22 0
BBX 18 20 2 -2
BITMAP
FF3FC0
FF3FC0
FF3FC0
E739C0
E739C0
E739C0
E739C0
E739C0
E7F9C0
E7F9C0
E7F9C0
E001C0
E001C0
E001C0
E001C0
E001C0
E001C0
FFFFC0
EFFFC0
EFFFC0
ENDCHAR
STARTCHAR 51FA
ENCODING 20986
SWIDTH 990 0
DWIDTH 22 0
BBX 16 21 3 -2
BITMAP
01C0
E1C7
E1C7
E1C7
E1C7
E1C7
E1C7
FFFF
FFFF
FFFF
01C0
01C0
E1C7
E1C7
E1C7
E1C7
E1C7
E1C7
FFFF
FFFF
FFFF
ENDCHAR
STARTCHAR 51FB
ENCODING 20987
SWIDTH 990 0
DWIDTH 22 0
BBX 19 21 1 -2
BITMAP
00E000
00E000
00E000
3FFF80
3FFF80
3FFF80
00E000
00E000
00E000
7FFFE0
7FFFC0
FFFFC0
00E000
38E380
38E380
38E380
38E380
38E380
3FFF80
3FFF80
3FFF80
ENDCHAR
STARTCHAR 51FC
ENCODING 20988
SWIDTH 990 0
DWIDTH 22 0
BBX 18 21 2 -2
BITMAP
00E000
00E000
00E000
EFF9C0
EEF9C0
FEFFC0
E6FFC0
E6EDC0
EEEDC0
EEEDC0
EEEDC0
ECEDC0
ECEDC0
ECEDC0
ECEDC0
EDEDC0
FDEDC0
E0E1C0
FFFFC0
FFFFC0
FFFFC0
ENDCHAR
STARTCHAR 51FD
ENCODING 20989
SWIDTH 990 0
DWIDTH 22 0
BBX 18 20 2 -2
BITMAP
3FFF00
7FFF00
7FFF00
003E00
00F800
ECF7C0
EEEFC0
EEEFC0
EEEFC0
E0E1C0
EEEFC0
EEEFC0
EEEFC0
EEEFC0
E3E1C0
E1E1C0
E1E1C0
FFFFC0
FFFFC0
FFFFC0
ENDCHAR
STARTCHAR 51FF
ENCODING 20991
SWIDTH 945 0
DWIDTH 21 0
BBX 19 21 1 -2
BITMAP
039C00
739D80
739DC0
739DC0
039C00
7FFFE0
FFFFC0
FFFFC0
033000
77FFC0
77FDC0
7FFDC0
70E1C0
77FDC0
77FDC0
77FDC0
70E1C0
70E1C0
7FFFC0
7FFFC0
7FFFC0
ENDCHAR
STARTCHAR 5200
ENCODING 20992
SWIDTH 990 0
DWIDTH 22 0
BBX 17 20 3 -2
BITMAP
7FFF80
FFFF80
FFFF80
0E0380
0E0380
1E0380
1C0380
1C0380
1C0380
3C0380
380380
380380
380380
780380
700380
700380
700380
F03F80
E01F80
E01F80
ENDCHAR
STARTCHAR 5201
ENCODING 20993
SWIDTH 990 0
DWIDTH 22 0
BBX 16 20 3 -2
BITMAP
7FFF
FFFF
FFFF
0007
0007
0007
0027
00E7
01E7
07C7
1F07
7E07
F807
E007
8007
0007
0007
007F
007F
003F
ENDCHAR
STARTCHAR 5202
ENCODING 20994
SWIDTH 990 0
DWIDTH 22 0
BBX 7 21 14 -2
BITMAP
0E
0E
0E
0E
CE
EE
EE
EE
EE
EE
EE
EE
EE
EE
EE
0E
0E
0E
7E
3E
3E
ENDCHAR
STARTCHAR 5203
ENCODING 20995
SWIDTH 990 0
DWIDTH 22 0
BBX 16 20 3 -2
BITMAP
3FFF
7FFF
7FFF
0387
0387
8307
E707
E707
E707
E707
E607
EE07
EE07
EE07
0E07
0C07
1C07
1C7F
1C7F
1C3F
ENDCHAR
STARTCHAR 5206
ENCODING 20998
SWIDTH 990 0
DWIDTH 22 0
BBX 17 20 2 -2
BITMAP
1E1C00
1C1E00
380E00
380F00
700700
F00380
E00380
000000
7FFF00
7FFF00
FFFF00
1E0700
1C0700
1C0700
3C0700
380700
380700
783F00
703F00
701F00
ENDCHAR
STARTCHAR 5207
ENCODING 20999
SWIDTH 990 0
DWIDTH 22 0
BBX 20 21 1 -2
BITMAP
1C0000
1C3FF0
1C7FF0
1C7FF0
1C1C70
1C1C70
7FB870
7F3870
FF3870
1C3870
1C3870
1C3870
1C3870
1C3870
1C3870
1C7070
1C7070
1C7070
1F73F0
1F73F0
1F71F0
ENDCHAR
STARTCHAR 5208
ENCODING 21000
SWIDTH 990 0
DWIDTH 22 0
BBX 19 21 1 -2
BITMAP
0000E0
70E0E0
71E8E0
39CCE0
39CEE0
3FCEE0
1F8EE0
1F8EE0
0F0EE0
0F0EE0
0F0EE0
0F0EE0
0F0EE0
1F8EE0
1F8EE0
3F8EE0
39C0E0
39C0E0
71E7E0
70E7E0
F0E3E0
ENDCHAR
STARTCHAR 520A
ENCODING 21002
SWIDTH 990 0
DWIDTH 22 0
BBX 19 21 1 -2
BITMAP
0000E0
7FE0E0
7FE8E0
7FEEE0
0E0EE0
0E0EE0
0E0EE0
0E0EE0
0E0EE0
7FEEE0
7FEEE0
FFEEE0
0E0EE0
0E0EE0
0E0EE0
0E00E0
0E00E0
0E00E0
0E07E0
0E03E0
0E03E0
ENDCHAR
STARTCHAR 520D
ENCODING 21005
SWIDTH 990 0
DWIDTH 22 0
BBX 17 21 3 -1
BITMAP
380000
7FFF00
7FFF00
7FFE00
E00E00
E00E00
001C00
FFFF80
FFFF80
FFFF80
000380
000380
FFFF80
FFFF80
FFFF80
000380
000380
000380
FFFF80
FFFF80
FFFF80
ENDCHAR
STARTCHAR 520E
ENCODING 21006
SWIDTH 990 0
DWIDTH 22 0
BBX 19 20 2 -1
BITMAP
C000E0
FFF0E0
FFF0E0
FFF6E0
E077E0
E077E0
0077E0
7777E0
7777E0
7777E0
7777E0
7777E0
7677E0
7E77E0
6E70E0
EE70E0
EE70E0
EFF7E0
EEF3E0
EEF3E0
ENDCHAR
STARTCHAR 5211
ENCODING 21009
SWIDTH 990 0
DWIDTH 22 0
BBX 20 21 1 -2
BITMAP
000070
7FF070
7FF070
7FF070
39C670
39C770
39C770
39C770
39C770
7FF770
7FF770
FFF770
39C770
39C770
39C770
31C070
71C070
71C070
71C3F0
71C3F0
71C1F0
ENDCHAR
STARTCHAR 5212
ENCODING 21010
SWIDTH 990 0
DWIDTH 22 0
BBX 18 20 2 -2
BITMAP
3A01C0
3B81C0
3B81C0
3B91C0
181DC0
FFDDC0
FFDDC0
FFDDC0
1C1DC0
0C1DC0
0E5DC0
1FDDC0
FFDDC0
FE1DC0
8701C0
0701C0
0701C0
07CFC0
07EFC0
07E7C0
ENDCHAR
STARTCHAR 5216
ENCODING 21014
SWIDTH 990 0
DWIDTH 22 0
BBX 18 21 2 -2
BITMAP
0001C0
FFC1C0
FFC1C0
FFC1C0
E1D9C0
E1DDC0
FFDDC0
FFDDC0
FFDDC0
E1DDC0
E1DDC0
E1DDC0
FFDDC0
FFDDC0
FFDDC0
E1C1C0
E1C1C0
E1C1C0
EFCFC0
E7C7C0
E7C7C0
ENDCHAR
STARTCHAR 5217
ENCODING 21015
SWIDTH 1035 0
DWIDTH 23 0
BBX 19 21 2 -2
BITMAP
0000E0
7FE0E0
7FE0E0
FFC0E0
3818E0
381CE0
3FDCE0
3FDCE0
7FDCE0
71DCE0
61DCE0
01DCE0
7FDCE0
7FDCE0
7F9CE0
0700E0
0F00E0
0E00E0
1E0FE0
1C07E0
3807E0
ENDCHAR
STARTCHAR 5218
ENCODING 21016
SWIDTH 1035 0
DWIDTH 23 0
BBX 19 21 2 -2
BITMAP
0C00E0
0E00E0
FFF0E0
FFF8E0
FFFEE0
71CEE0
71CEE0
71CEE0
71CEE0
71CEE0
71CEE0
3BCEE0
3B8EE0
1F0EE0
0F0EE0
0E00E0
1F00E0
3F80E0
3B8FE0
71C7E0
E1E7E0
ENDCHAR
STARTCHAR 5219
ENCODING 21017
SWIDTH 1035 0
DWIDTH 23 0
BBX 19 21 2 -2
BITMAP
0000E0
FFE0E0
FFE0E0
FFE0E0
E0E8E0
EEEEE0
EEEEE0
EEEEE0
EEEEE0
EEEEE0
EEEEE0
EEEEE0
EEEEE0
EEEEE0
EEEEE0
1E00E0
1F80E0
3B80E0
79CFE0
71C7E0
E0E3E0
ENDCHAR
STARTCHAR 521A
ENCODING 21018
SWIDTH 1035 0
DWIDTH 23 0
BBX 19 21 2 -2
BITMAP
0000E0
FFF0E0
FFF0E0
FFF0E0
E07CE0
FFFEE0
EF7EE0
EF7EE0
EF7EE0
EE7EE0
E67EE0
E67EE0
EE7EE0
EF7EE0
EF7EE0
FF70E0
FFF0E0
E070E0
E3FFE0
E1F7E0
E0F7E0
ENDCHAR
STARTCHAR 521B
ENCODING 21019
SWIDTH 1035 0
DWIDTH 23 0
BBX 19 21 2 -2
BITMAP
0000E0
3FE0E0
7FE0E0
7FE0E0
70E8E0
70EEE0
F06EE0
E07EE0
7FEEE0
7FEEE0
7FEEE0
70EEE0
70EEE0
70EEE0
77EEE0
73E0E0
73E0E0
7000E0
7FEFE0
7FF7E0
7FF7E0
ENDCHAR
STARTCHAR 521D
ENCODING 21021
SWIDTH 990 0
DWIDTH 22 0
BBX 20 21 1 -1
BITMAP
180000
1C7FF0
7F7FF0
7FFFF0
FF1C70
0F1C70
0E3C70
1C3870
1E3870
3F3870
3F3870
7C3870
7F3870
1F3870
1F7070
1C7070
1C7070
1C7070
1C73F0
1C73F0
1C71F0
ENDCHAR
STARTCHAR 5220
ENCODING 21024
SWIDTH 990 0
DWIDTH 22 0
BBX 20 21 1 -2
BITMAP
000070
7FF870
7FF870
7FF870
7FFA70
7FFB70
7FFB70
7FFB70
7FFF70
FFFF70
FFFB70
7FFB70
7FFB70
7FFB70
7FFB70
7FF870
7FF870
7FF870
7FFBF0
7FF9F0
7FF9F0
ENDCHAR
STARTCHAR 5224
ENCODING 21028
SWIDTH 990 0
DWIDTH 22 0
BBX 19 21 1 -2
BITMAP
0E00E0
6EC0E0
7EE0E0
7EE0E0
7EECE0
0E0EE0
7FEEE0
7FEEE0
7FEEE0
0E0EE0
0E0EE0
0E0EE0
7FEEE0
7FEEE0
FFEEE0
0C00E0
0C00E0
1C00E0
1C07E0
1803E0
3803E0
ENDCHAR
STARTCHAR 5228
ENCODING 21032
SWIDTH 1035 0
DWIDTH 23 0
BBX 19 20 2 -1
BITMAP
C000E0
FFE0E0
FFE0E0
FFECE0
E0EEE0
00EEE0
FFEEE0
FFEEE0
FFEEE0
E7EEE0
E7EEE0
E7EEE0
FFEEE0
FFEEE0
EFE0E0
E000E0
E000E0
FFE7E0
FFE7E0
FFF3E0
ENDCHAR
STARTCHAR 5229
ENCODING 21033
SWIDTH 990 0
DWIDTH 22 0
BBX 18 20 2 -2
BITMAP
7FC1C0
7F81C0
FF91C0
0E1DC0
FFDDC0
FFDDC0
FFDDC0
0E1DC0
EFDDC0
EFDDC0
EFDDC0
EFDDC0
EFDDC0
EFDDC0
EFDDC0
EFC1C0
EFC1C0
EFCFC0
EFCFC0
EFC7C0
ENDCHAR
STARTCHAR 522B
ENCODING 21035
SWIDTH 990 0
DWIDTH 22 0
BBX 19 21 2 -2
BITMAP
0000E0
7FC0E0
7FC0E0
7FC8E0
71CEE0
71CEE0
7FCEE0
7FCEE0
77CEE0
000EE0
1C0EE0
FFEEE0
FFEEE0
FFEEE0
38EEE0
38E0E0
70E0E0
70E0E0
77E7E0
73E7E0
E3E3E0
ENDCHAR
STARTCHAR 522D
ENCODING 21037
SWIDTH 1035 0
DWIDTH 23 0
BBX 19 21 2 -2
BITMAP
0000E0
3FC0E0
7FC0E0
7FCCE0
078EE0
0F0EE0
1F8EE0
3FCEE0
79CEE0
70EEE0
7FEEE0
7FEEE0
7FEEE0
0E0EE0
0E0EE0
0E0EE0
0E00E0
0E00E0
7FF7E0
FFE7E0
FFE3E0
ENDCHAR
STARTCHAR 522E
ENCODING 21038
SWIDTH 1035 0
DWIDTH 23 0
BBX 19 21 2 -2
BITMAP
0000E0
7FE0E0
7FE0E0
FFCCE0
0E0EE0
0E0EE0
FFEEE0
FFEEE0
FFEEE0
0E0EE0
0E0EE0
0E0EE0
FFEEE0
FFEEE0
FFEEE0
E0EEE0
E0E0E0
E0E0E0
FFE7E0
EFE7E0
EFE3E0
ENDCHAR
STARTCHAR 5230
ENCODING 21040
SWIDTH 1035 0
DWIDTH 23 0
BBX 19 20 2 -2
BITMAP
7FE0E0
7FE0E0
7FECE0
380EE0
38CEE0
38EEE0
7FEEE0
7FEEE0
7FEEE0
000EE0
0E0EE0
0E0EE0
7FEEE0
7FEEE0
7FEEE0
0E00E0
0E00E0
7FE7E0
7FE7E0
FFE3E0
ENDCHAR
STARTCHAR 5233
ENCODING 21043
SWIDTH 990 0
DWIDTH 22 0
BBX 20 21 1 -1
BITMAP
0E0070
7FF070
7FF070
FFF470
38E770
707770
FFF770
3FE770
3FE770
7FF770
7FF770
FFF770
380770
3FE770
3FE770
3FE070
00E070
00E070
03E7F0
03E3F0
01E3F0
ENDCHAR
STARTCHAR 5236
ENCODING 21046
SWIDTH 990 0
DWIDTH 22 0
BBX 19 21 1 -2
BITMAP
4700E0
7700E0
7FF4E0
7FE7E0
7FE7E0
7707E0
0707E0
7FF7E0
7FF7E0
FFF7E0
0707E0
7FF7E0
7FF7E0
7FF7E0
7777E0
7770E0
7770E0
77F0E0
7777E0
7773E0
0703E0
ENDCHAR
STARTCHAR 5237
ENCODING 21047
SWIDTH 990 0
DWIDTH 22 0
BBX 18 21 2 -2
BITMAP
0001C0
FFF1C0
FFF1C0
FFFDC0
E07FC0
FFFFC0
EFFFC0
E7FFC0
E38FC0
E38FC0
FFFFC0
FFFFC0
FFFFC0
FFBFC0
FFBFC0
FFBFC0
FFB1C0
FFF1C0
FFF7C0
FFB3C0
E383C0
ENDCHAR
STARTCHAR 5238
ENCODING 21048
SWIDTH 990 0
DWIDTH 22 0
BBX 19 21 1 -2
BITMAP
187300
1CE380
1DE380
3FFFE0
3FFFC0
7FFFC0
070000
070000
7FFFE0
7FFFE0
FFFFC0
3801C0
7FFFC0
7FFFE0
3FFF80
0F0380
0E0380
0E0380
1C1F80
1C0F80
380F80
ENDCHAR
STARTCHAR 5239
ENCODING 21049
SWIDTH 1035 0
DWIDTH 23 0
BBX 19 21 2 -2
BITMAP
4040E0
60C0E0
7BC8E0
7FCCE0
1F0EE0
7FCEE0
FBEEE0
E0EEE0
8E2EE0
0E0EE0
7FEEE0
FFEEE0
FFCEE0
0E0EE0
6ECEE0
EEC0E0
EEE0E0
EEE0E0
FEEFE0
CEE7E0
CE67E0
ENDCHAR
STARTCHAR 523A
ENCODING 21050
SWIDTH 990 0
DWIDTH 22 0
BBX 19 21 1 -2
BITMAP
0700E0
0700E0
7FF8E0
7FF4E0
FFF7E0
0707E0
7FF7E0
7FF7E0
7FF7E0
7777E0
7777E0
77F7E0
7777E0
7777E0
3767E0
7777E0
7770E0
7770E0
7777E0
7773E0
E733E0
ENDCHAR
STARTCHAR 523B
ENCODING 21051
SWIDTH 990 0
DWIDTH 22 0
BBX 19 21 1 -1
BITMAP
0600E0
0700E0
7FF8E0
7FF6E0
FFF7E0
3807E0
3B77E0
3777E0
76E7E0
7EE7E0
7EE7E0
FDC7E0
1DC7E0
1DC7E0
3BE7E0
3BE7E0
3BF0E0
7770E0
7737E0
773BE0
EE39E0
ENDCHAR
STARTCHAR 523D
ENCODING 21053
SWIDTH 990 0
DWIDTH 22 0
BBX 19 21 1 -2
BITMAP
0000E0
3FE0E0
3FE0E0
7FF6E0
7077E0
7077E0
7077E0
7FF7E0
7FF7E0
7FF7E0
0007E0
7FF7E0
7FF7E0
FFF7E0
3C07E0
3807E0
3860E0
3870E0
7FF7E0
7FF3E0
7FF3E0
ENDCHAR
STARTCHAR 523F
ENCODING 21055
SWIDTH 1035 0
DWIDTH 23 0
BBX 19 21 2 -1
BITMAP
0E00E0
EEE0E0
EEE8E0
EEECE0
FFEEE0
FFEEE0
FFEEE0
000EE0
E00EE0
FFEEE0
FFEEE0
FFEEE0
E0EEE0
00EEE0
40EEE0
70EEE0
71E0E0
73C0E0
0F07E0
1E07E0
7803E0
ENDCHAR
STARTCHAR 5240
ENCODING 21056
SWIDTH 990 0
DWIDTH 22 0
BBX 18 21 2 -2
BITMAP
0E01C0
EEE1C0
EEE9C0
EEEDC0
EEEFC0
FFEFC0
FFEFC0
FFEFC0
000FC0
FFEFC0
FFEFC0
FFEFC0
00EFC0
FFEFC0
FFEFC0
FFEFC0
E001C0
E001C0
FFEFC0
FFE7C0
FFF7C0
ENDCHAR
STARTCHAR 5241
ENCODING 21057
SWIDTH 990 0
DWIDTH 22 0
BBX 19 21 2 -2
BITMAP
0000E0
7FE0E0
7FE0E0
7FE4E0
70E7E0
70E7E0
70F7E0
70F7E0
77F7E0
0707E0
7FF7E0
FFF7E0
FFE7E0
0707E0
77E7E0
67E0E0
67E0E0
6760E0
E767E0
E773E0
E773E0
ENDCHAR
STARTCHAR 5242
ENCODING 21058
SWIDTH 990 0
DWIDTH 22 0
BBX 18 20 2 -1
BITMAP
0E01C0
FFE1C0
FFE1C0
FFEDC0
71CFC0
71CFC0
7BCFC0
3F8FC0
1F0FC0
1F0FC0
3FCFC0
FBEFC0
000FC0
71CFC0
71CFC0
71C1C0
71C1C0
71CFC0
71C7C0
E1C7C0
ENDCHAR
STARTCHAR 5243
ENCODING 21059
SWIDTH 990 0
DWIDTH 22 0
BBX 19 20 2 -1
BITMAP
3B80E0
FFE0E0
FFE0E0
FFECE0
0EEEE0
0EEEE0
FFEEE0
FFEEE0
FFEEE0
EE0EE0
FFFEE0
FFFEE0
FFFEE0
0E7EE0
EE7EE0
EE70E0
EEF0E0
EEF7E0
EEF7E0
CE07E0
ENDCHAR
STARTCHAR 524A
ENCODING 21066
SWIDTH 990 0
DWIDTH 22 0
BBX 18 20 2 -2
BITMAP
8E81C0
EEE1C0
EEF9C0
0E1DC0
FFFDC0
FFFDC0
FFFDC0
E0FDC0
FFFDC0
FFFDC0
FFFDC0
E0FDC0
E0FDC0
FFFDC0
FFE1C0
FFE1C0
E0E1C0
E3FFC0
E3EFC0
E1E7C0
ENDCHAR
STARTCHAR 524B
ENCODING 21067
SWIDTH 990 0
DWIDTH 22 0
BBX 19 21 1 -1
BITMAP
0E00E0
7FE8E0
7FEEE0
FFEEE0
0E0EE0
7FEEE0
7FEEE0
7FEEE0
70EEE0
70EEE0
7FEEE0
7FEEE0
7FEEE0
39C0E0
39C0E0
39C7E0
31C3E0
71C1E0
71FFE0
71FFE0
71FFE0
ENDCHAR
STARTCHAR 524C
ENCODING 21068
SWIDTH 945 0
DWIDTH 21 0
BBX 19 21 1 -2
BITMAP
0700E0
7FF8E0
7FF8E0
FFF6E0
0707E0
7FF7E0
7FF7E0
7FF7E0
7777E0
7777E0
7FF7E0
7FF7E0
7FF7E0
0707E0
7777E0
7770E0
7770E0
7770E0
7777E0
7773E0
7773E0
ENDCHAR
STARTCHAR 524D
ENCODING 21069
SWIDTH 1035 0
DWIDTH 23 0
BBX 19 21 2 -1
BITMAP
0C0C00
0E0E00
7FFFE0
7FFFC0
FFFFC0
000000
7FC1C0
7FC1C0
7FDDC0
71DDC0
7FDDC0
7FDDC0
7FDDC0
71DDC0
7FDDC0
7FDDC0
7FDDC0
71C1C0
77CFC0
73C7C0
73C7C0
ENDCHAR
STARTCHAR 5250
ENCODING 21072
SWIDTH 945 0
DWIDTH 21 0
BBX 19 21 1 -2
BITMAP
0000E0
7FF0E0
7FF0E0
7FF4E0
7077E0
7FF7E0
7FF7E0
7FF7E0
0707E0
FFF7E0
FFF7E0
FFF7E0
EE77E0
EFF7E0
FDF7E0
FDF0E0
FDF0E0
E070E0
E1F7E0
E0F3E0
E0F3E0
ENDCHAR
STARTCHAR 5251
ENCODING 21073
SWIDTH 990 0
DWIDTH 22 0
BBX 19 20 2 -2
BITMAP
7FE0E0
7FE0E0
7FE8E0
F0EEE0
F0FEE0
E07EE0
7FFEE0
7FEEE0
FFEEE0
000EE0
4CCEE0
7EEEE0
7EEEE0
7EEEE0
7EEEE0
7EE0E0
0000E0
FFF7E0
FFF7E0
FFF3E0
ENDCHAR
STARTCHAR 5254
ENCODING 21076
SWIDTH 990 0
DWIDTH 22 0
BBX 19 21 2 -2
BITMAP
0000E0
FFE0E0
FFE0E0
FFECE0
FFEEE0
FFEEE0
FFEEE0
EFEEE0
EFEEE0
E00EE0
FFEEE0
FFEEE0
FFEEE0
00EEE0
76EEE0
66EEE0
EEE0E0
EEE0E0
EFEFE0
CCE7E0
CCE3E0
ENDCHAR
STARTCHAR 5256
ENCODING 21078
SWIDTH 990 0
DWIDTH 22 0
BBX 19 20 1 -1
BITMAP
0700E0
7FE0E0
7FE4E0
7FE7E0
0007E0
39C7E0
39C7E0
7FF7E0
FFF7E0
FFE7E0
0007E0
7FE7E0
7FE7E0
7FE7E0
70E7E0
70E0E0
70E0E0
7FE7E0
77E3E0
77E3E0
ENDCHAR
STARTCHAR 525C
ENCODING 21084
SWIDTH 1035 0
DWIDTH 23 0
BBX 19 21 2 -1
BITMAP
0C00E0
FFF0E0
FFF0E0
FFF8E0
E07EE0
000EE0
C00EE0
FFFEE0
FFFEE0
FFFEE0
DFBEE0
DFBEE0
1FBEE0
7FBEE0
FFFEE0
FFFEE0
3BB0E0
7B80E0
73F7E0
73F7E0
E3F3E0
ENDCHAR
STARTCHAR 525E
ENCODING 21086
SWIDTH 990 0
DWIDTH 22 0
BBX 20 21 1 -2
BITMAP
0F0070
7FF870
7FF070
7FF770
38E770
387770
707770
7FFF70
FFFF70
FFF770
007770
7F7770
7F7770
7F7770
777770
777770
777070
7F7070
7FF7F0
77F3F0
0071F0
ENDCHAR
STARTCHAR 5261
ENCODING 21089
SWIDTH 1035 0
DWIDTH 23 0
BBX 19 21 2 -2
BITMAP
0E00E0
CEC0E0
EEE8E0
EEEEE0
EEEEE0
1E0EE0
3F0EE0
3B8EE0
71CEE0
F0EEE0
000EE0
0E0EE0
CEEEE0
EEEEE0
EEEEE0
EEEEE0
1E00E0
3F80E0
3B8FE0
71C7E0
E0E7E0
ENDCHAR
STARTCHAR 5265
ENCODING 21093
SWIDTH 990 0
DWIDTH 22 0
BBX 20 21 1 -2
BITMAP
000070
3FE070
3FE070
7FE670
7FE770
7FE770
7FE770
00E770
7FFF70
7FF770
FFF770
471770
777770
777770
777770
070770
777070
777070
7F77F0
7773F0
4713F0
ENDCHAR
STARTCHAR 5267
ENCODING 21095
SWIDTH 1035 0
DWIDTH 23 0
BBX 19 21 2 -1
BITMAP
0000E0
FFF0E0
FFF0E0
FFF4E0
FFF7E0
EFF7E0
EFF7E0
E007E0
E1C7E0
FFF7E0
FFF7E0
FFF7E0
E1C7E0
E1C7E0
EFF7E0
EFF7E0
EE70E0
EE70E0
EFF7E0
EFF3E0
EEF3E0
ENDCHAR
STARTCHAR 5269
ENCODING 21097
SWIDTH 990 0
DWIDTH 22 0
BBX 20 20 1 -2
BITMAP
3FF870
7FF070
7FF470
7FFF70
7FFF70
FFFF70
3F7770
FF7770
FF7F70
FF7F70
7F7770
FF7F70
FF7F70
070770
377770
773070
773070
773FF0
673BF0
E719F0
ENDCHAR
STARTCHAR 526A
ENCODING 21098
SWIDTH 990 0
DWIDTH 22 0
BBX 19 21 1 -1
BITMAP
0E0E00
7FFFE0
7FFFE0
FFFFC0
000000
7FD1C0
7FDDC0
7FDDC0
7FDDC0
7FDDC0
7FC1C0
73C7C0
73C7C0
000000
7FFFC0
7FFFC0
FFFFC0
1C01C0
380FC0
3807C0
7007C0
ENDCHAR
STARTCHAR 526F
ENCODING 21103
SWIDTH 990 0
DWIDTH 22 0
BBX 19 21 2 -2
BITMAP
0000E0
7FF0E0
FFF0E0
FFECE0
7FEEE0
7FEEE0
7FEEE0
7FEEE0
7FEEE0
7FEEE0
000EE0
FFFEE0
FFFEE0
FFFEE0
EE7EE0
FFFEE0
FFF0E0
FFF0E0
FFFFE0
FFF7E0
EFF3E0
ENDCHAR
STARTCHAR 5272
ENCODING 21106
SWIDTH 1035 0
DWIDTH 23 0
BBX 19 21 2 -2
BITMAP
0C00E0
FFF0E0
FFF0E0
FFF8E0
E07CE0
7FEEE0
7FEEE0
FFEEE0
7FEEE0
7FEEE0
7FEEE0
FFFEE0
FFFEE0
FFEEE0
0E0EE0
FFEEE0
FFE0E0
FFE0E0
FFEFE0
FFE7E0
EFE7E0
ENDCHAR
STARTCHAR 527D
ENCODING 21117
SWIDTH 990 0
DWIDTH 22 0
BBX 20 21 1 -2
BITMAP
000070
7FF070
7FF070
FFF070
7FF770
7FF770
7FF770
7DF770
7FF770
7FF770
000770
7FE770
7FE770
7FE770
7FF770
7FF770
7FF070
070070
7F77F0
6F73F0
6733F0
ENDCHAR
STARTCHAR 527F
ENCODING 21119
SWIDTH 990 0
DWIDTH 22 0
BBX 20 21 1 -2
BITMAP
777070
777070
E66470
777770
777770
000770
7FF770
7FF770
7FF770
7FF770
7FF770
7FF770
7FF770
7FF770
7FFF70
7FF770
FFF070
376070
7777F0
7773F0
7773F0
ENDCHAR
STARTCHAR 5281
ENCODING 21121
SWIDTH 990 0
DWIDTH 22 0
BBX 20 20 1 -1
BITMAP
39C070
77F870
77FE70
77FF70
77FF70
77FF70
F7FF70
71C770
77FF70
77FF70
77FF70
71C770
77FF70
77FF70
77FF70
492070
7FF870
7FFBF0
7FFBF0
7FF9F0
ENDCHAR
STARTCHAR 5282
ENCODING 21122
SWIDTH 945 0
DWIDTH 21 0
BBX 19 20 1 -2
BITMAP
FFFCE0
FFFCE0
FFF8E0
EF63E0
EF63E0
FFFBE0
FFFBE0
FFFBE0
F6EBE0
F6F3E0
F6F3E0
F6E3E0
FFFBE0
FFFBE0
FFFBE0
EE78E0
EE78E0
EC5BE0
ECD9E0
ECCDE0
ENDCHAR
STARTCHAR 5288
ENCODING 21128
SWIDTH 990 0
DWIDTH 22 0
BBX 19 20 2 -1
BITMAP
FF7FC0
FF7FC0
FF7FC0
FF3B80
FF7FE0
FF7FC0
FFFFC0
FF7FC0
FB7FC0
FF7FC0
FF0E00
000000
7FFFC0
FFFFC0
FFFFC0
1801C0
3801C0
300FC0
700FC0
6007C0
ENDCHAR
STARTCHAR 5290
ENCODING 21136
SWIDTH 1035 0
DWIDTH 23 0
BBX 19 21 2 -3
BITMAP
39C0E0
7FF8E0
7FF0E0
FFF4E0
7387E0
6FF7E0
EFF7E0
FFF7E0
7387E0
7FF7E0
7FF7E0
7FF7E0
7FF7E0
7FF7E0
FFF7E0
0077E0
7070E0
7FF0E0
FFFBE0
F9FBE0
C019E0
ENDCHAR
STARTCHAR 5293
ENCODING 21139
SWIDTH 990 0
DWIDTH 22 0
BBX 19 21 1 -2
BITMAP
0700E0
7FF0E0
7FF0E0
7FF6E0
7077E0
7FF7E0
7077E0
7FF7E0
77F7E0
7FF7E0
7FF7E0
7FF7E0
7777E0
7FF7E0
7FF7E0
7FF8E0
7FF0E0
FFF0E0
38E7E0
38E3E0
70E3E0
ENDCHAR
STARTCHAR 529B
ENCODING 21147
SWIDTH 990 0
DWIDTH 22 0
BBX 17 21 3 -2
BITMAP
078000
070000
070000
070000
7FFF80
FFFF80
FFFF80
0E0380
1E0380
1C0380
1C0380
1C0380
380380
380380
380380
380380
700380
700380
703F80
F01F80
E01F80
ENDCHAR
STARTCHAR 529D
ENCODING 21149
SWIDTH 990 0
DWIDTH 22 0
BBX 19 21 2 -1
BITMAP
000C00
7F1C00
FF1C00
FF7FE0
077FE0
E77FE0
E71CE0
E71CE0
E718E0
E738E0
E738E0
FF38E0
7E38E0
7E38E0
3C38E0
3C38E0
3C38E0
7E30E0
7E73E0
E771E0
E771E0
ENDCHAR
STARTCHAR 529E
ENCODING 21150
SWIDTH 990 0
DWIDTH 22 0
BBX 20 21 1 -1
BITMAP
01C000
01C000
01C000
1FFF00
3FFF00
3FFF00
038700
038700
3F07E0
3707E0
770760
770760
770760
7E0770
6E0770
EE0770
0E0700
0C0700
1C3F00
1C3F00
1C1F00
ENDCHAR
STARTCHAR 529F
ENCODING 21151
SWIDTH 990 0
DWIDTH 22 0
BBX 19 21 2 -2
BITMAP
001C00
001C00
FF1C00
FF1C00
FF7FE0
1CFFE0
1CFFE0
1C38E0
1C38E0
1C38E0
1C38E0
1C38E0
1C38E0
1C70E0
1C70E0
1C70E0
7F70E0
FF70E0
FF73E0
0073E0
00E1E0
ENDCHAR
STARTCHAR 52A0
ENCODING 21152
SWIDTH 990 0
DWIDTH 22 0
BBX 19 21 1 -1
BITMAP
180000
380000
381FE0
7FDFE0
7FDFE0
FFDCE0
39DCE0
39DCE0
39DCE0
39DCE0
39DCE0
31DCE0
71DCE0
71DCE0
71DCE0
71DCE0
71DCE0
71DCE0
77DFE0
77DDE0
77DDE0
ENDCHAR
STARTCHAR 52A1
ENCODING 21153
SWIDTH 990 0
DWIDTH 22 0
BBX 18 21 2 -1
BITMAP
380000
3FFF80
3FFF80
3FFF80
700380
380380
3E1F80
3FFF80
0FFC00
7FFF80
FE1FC0
F383C0
070040
3FFF80
7FFF80
FFFF80
1E0380
1C0380
3C1F80
381F80
380F80
ENDCHAR
STARTCHAR 52A2
ENCODING 21154
SWIDTH 990 0
DWIDTH 22 0
BBX 19 21 2 -1
BITMAP
000E00
FFCE00
FF8C00
383FE0
303FE0
707FE0
701CE0
7F9CE0
7F9CE0
7F9CE0
739CE0
739CE0
7398E0
73B8E0
63B8E0
E3B8E0
E3B8E0
E3B8E0
EFB9E0
E7B9E0
E7B8E0
ENDCHAR
STARTCHAR 52A3
ENCODING 21155
SWIDTH 990 0
DWIDTH 22 0
BBX 18 21 2 -2
BITMAP
00E000
1CE700
38E380
38E380
38E1C0
70E040
703FC0
1FFFC0
FFF800
F80000
070000
3FFFC0
7FFFC0
7FFFC0
1E01C0
1C01C0
1C01C0
3801C0
381FC0
380FC0
700FC0
ENDCHAR
STARTCHAR 52A8
ENCODING 21160
SWIDTH 990 0
DWIDTH 22 0
BBX 19 21 1 -2
BITMAP
000600
7F8E00
7F8E00
7F8E00
003FE0
003FE0
007FE0
000CE0
7FDCE0
7F9CE0
FF9CE0
381CE0
381CE0
301CE0
731CE0
7398E0
73B8E0
73B8E0
7FBBE0
7FB9E0
7FB9E0
ENDCHAR
STARTCHAR 52A9
ENCODING 21161
SWIDTH 990 0
DWIDTH 22 0
BBX 19 21 2 -1
BITMAP
000E00
7F8E00
7F8E00
7F8E00
73BFE0
73BFE0
7F8CE0
7F9CE0
7F9CE0
739CE0
739CE0
739CE0
7F9CE0
7F9CE0
7F9CE0
739CE0
7398E0
73B8E0
FFFBE0
FFF9E0
FFF9E0
ENDCHAR
STARTCHAR 52AA
ENCODING 21162
SWIDTH 990 0
DWIDTH 22 0
BBX 19 20 2 -2
BITMAP
FFBFC0
FFBFC0
FFBFC0
73B9C0
73B9C0
77BFC0
7F1F80
3E0F00
3E0F80
7F1FC0
F7BDE0
7FFFC0
7FFFC0
FFFFC0
1C01C0
1C01C0
3801C0
380FC0
7007C0
7007C0
ENDCHAR
STARTCHAR 52AB
ENCODING 21163
SWIDTH 990 0
DWIDTH 22 0
BBX 20 21 1 -2
BITMAP
0E0700
0E0700
0E0E00
7FCE00
7FDFF0
7FDFF0
0E3FF0
0E0E70
0E0E70
7FEE70
7FCE70
FFCE70
381E70
381C70
399C70
39DC70
79DC70
71DC70
7FDDF0
7FDCF0
7FDCF0
ENDCHAR
STARTCHAR 52AC
ENCODING 21164
SWIDTH 945 0
DWIDTH 21 0
BBX 19 20 1 -1
BITMAP
E00600
FFCE00
FFDFE0
FFDFE0
E1DFE0
01CEE0
FDCEE0
FDCEE0
FDCCE0
FDCCE0
FDCCE0
FDDCE0
FDDCE0
FDDCE0
FDDCE0
FDDCE0
FDDCE0
0FDFE0
0FDDE0
07D9E0
ENDCHAR
STARTCHAR 52AD
ENCODING 21165
SWIDTH 1035 0
DWIDTH 23 0
BBX 19 21 2 -2
BITMAP
000E00
FF8E00
FF8E00
FF8E00
73BFE0
73BFE0
73BFE0
739CE0
EF9CE0
E79CE0
E79CE0
FF9CE0
FF9CE0
FF9CE0
E3BCE0
E3B8E0
E3B8E0
E3B8E0
FFBBE0
EFB9E0
EFB9E0
ENDCHAR
STARTCHAR 52B1
ENCODING 21169
SWIDTH 945 0
DWIDTH 21 0
BBX 19 21 1 -2
BITMAP
000700
FFF700
FFE700
FFE700
EFEFE0
EFEFE0
FFFFE0
E606E0
E60EE0
EFEEE0
EFEEE0
EFEEE0
EEEEE0
EEEEE0
EEEEE0
EEEEE0
EEECE0
ECECE0
EDEDE0
FDECE0
FCFCE0
ENDCHAR
STARTCHAR 52B2
ENCODING 21170
SWIDTH 990 0
DWIDTH 22 0
BBX 19 21 1 -2
BITMAP
000700
3F8600
7F8E00
7F8E00
079FE0
0F1FE0
1FBFE0
3F8EE0
39CEE0
70EEE0
000EE0
7FCCE0
7FDCE0
7FDCE0
0E1CE0
0E1CE0
0E1CE0
0E1CE0
7FDFE0
7FDDE0
FFD9E0
ENDCHAR
STARTCHAR 52B3
ENCODING 21171
SWIDTH 1035 0
DWIDTH 23 0
BBX 17 21 3 -2
BITMAP
1C1C00
FFFF80
FFFF80
FFFF80
1C1C00
000000
FFFF80
FFFF80
FFFF80
E00380
EF0380
0E0000
7FFF80
FFFF80
FFFF80
3C0380
380380
380380
783F80
701F80
700F80
ENDCHAR
STARTCHAR 52BE
ENCODING 21182
SWIDTH 990 0
DWIDTH 22 0
BBX 19 20 2 -1
BITMAP
0E0600
FFEE00
FFEE00
FFDFE0
381FE0
301FE0
76CEE0
7FCEE0
EDCEE0
FD8EE0
FF8EE0
3B8CE0
3B0CE0
3F9CE0
77DCE0
77DCE0
7FDCE0
EEDFE0
ECDDE0
DCDDE0
ENDCHAR
STARTCHAR 52BF
ENCODING 21183
SWIDTH 990 0
DWIDTH 22 0
BBX 19 21 1 -1
BITMAP
1C1C00
7F7FC0
FF7FC0
FF7FC0
1C39C0
7F7DC0
FFFDC0
FFFDC0
7C71E0
7C71E0
3C71E0
070000
7FFFC0
7FFFC0
FFFFC0
1C01C0
1C01C0
3801C0
380FC0
7807C0
7007C0
ENDCHAR
STARTCHAR 52C3
ENCODING 21187
SWIDTH 990 0
DWIDTH 22 0
BBX 19 21 2 -2
BITMAP
0E0E00
7FCE00
7F8E00
FF8E00
0E1FE0
FFDFE0
FFFFE0
FFCEE0
E1CEE0
3F9EE0
7F9CE0
7F1CE0
071CE0
FFDCE0
FFDCE0
FFDCE0
0E1CE0
0E1CE0
3E3BE0
1E39E0
1E39E0
ENDCHAR
STARTCHAR 52C7
ENCODING 21191
SWIDTH 990 0
DWIDTH 22 0
BBX 18 21 2 -2
BITMAP
3FFF80
7FFF80
7FFF80
0E0700
7FFFC0
7FFFC0
7FFFC0
7FFFC0
7FFFC0
70E1C0
7FFFC0
7FFFC0
70E1C0
0E0000
7FFFC0
7FFFC0
FFFFC0
3801C0
380FC0
3007C0
7007C0
ENDCHAR
STARTCHAR 52C9
ENCODING 21193
SWIDTH 1035 0
DWIDTH 23 0
BBX 19 21 2 -1
BITMAP
700E00
7F8E00
7F8E00
FF9FE0
E39FE0
FFFFE0
FFCCE0
FFCCE0
FDDCE0
FDDCE0
FDDCE0
FFDCE0
FFDCE0
FFDCE0
3B9CE0
3B9FE0
7B99E0
7399E0
73FFE0
E3FFE0
E3FFE0
ENDCHAR
STARTCHAR 52CB
ENCODING 21195
SWIDTH 1035 0
DWIDTH 23 0
BBX 19 21 2 -2
BITMAP
000700
FFCE00
FFCE00
FFCE00
FFDFE0
EFDFE0
EFFFE0
000EE0
FFCEE0
FFCEE0
FFCEE0
FFCCE0
FFDCE0
FFDCE0
FFDCE0
FFDCE0
3F1CE0
3F9CE0
7B9FE0
739DE0
E1DDE0
ENDCHAR
STARTCHAR 52D0
ENCODING 21200
SWIDTH 990 0
DWIDTH 22 0
BBX 20 21 1 -2
BITMAP
000380
1FC380
3FC380
3F8300
030FF0
7FEFF0
7FEFF0
FFC770
060770
060770
060770
000770
7FE770
7FE770
7FE670
76EE70
76EE70
76EE70
FFFEF0
FFFEF0
FFEE70
ENDCHAR
STARTCHAR 52D2
ENCODING 21202
SWIDTH 990 0
DWIDTH 22 0
BBX 20 21 1 -2
BITMAP
39C380
7FF380
7FE300
FFE700
39CFF0
3FCFF0
3FDFF0
7FE770
7FE770
7FE770
76E770
76E770
7FEE70
7FEE70
7FEE70
7FFE70
7FEE70
FFEE70
0E0FF0
0E0EF0
0E0EF0
ENDCHAR
STARTCHAR 52D6
ENCODING 21206
SWIDTH 945 0
DWIDTH 21 0
BBX 19 21 1 -2
BITMAP
000700
FFE700
FFE700
FFE700
FEEFE0
FEFFE0
FEE6E0
FEE6E0
000EE0
FFCEE0
FFCEE0
FFCEE0
FFCEE0
FFCEE0
FFCEE0
FFCEE0
FFCCE0
FFCCE0
FFCDE0
EFCDE0
EFDCE0
ENDCHAR
STARTCHAR 52D8
ENCODING 21208
SWIDTH 990 0
DWIDTH 22 0
BBX 19 21 2 -1
BITMAP
71C700
71C700
FFE700
FFE600
FFFFE0
71DFE0
7FDFE0
7FCEE0
71CEE0
7FCEE0
7FCEE0
71CEE0
7FEEE0
FFEEE0
FFECE0
789CE0
7EFCE0
7EFCE0
7FFFE0
7FFDE0
7FDDE0
ENDCHAR
STARTCHAR 52DF
ENCODING 21215
SWIDTH 1035 0
DWIDTH 23 0
BBX 19 21 2 -2
BITMAP
0E0E00
7FFFE0
7FFFC0
FFFFC0
3FFF80
3FFF80
3FFF80
3FFF80
3FFF80
3FFF80
3FFF80
7FFFE0
FFFFE0
FFFFC0
7381C0
7FFFC0
3FFF80
7FFF80
1C1F80
1C1F80
380F80
ENDCHAR
STARTCHAR 52E4
ENCODING 21220
SWIDTH 945 0
DWIDTH 21 0
BBX 19 21 1 -2
BITMAP
3B8700
7FE600
FFE600
FFC600
3F9FE0
3F9FE0
0E1FE0
7FCEE0
7FCEE0
7FCEE0
7FCEE0
7FCEE0
7FEEE0
7FCCE0
7FCCE0
0E1CE0
7FDCE0
7FDCE0
0E1FE0
FFFDE0
FFDDE0
ENDCHAR
STARTCHAR 52F0
ENCODING 21232
SWIDTH 990 0
DWIDTH 22 0
BBX 20 21 1 -2
BITMAP
1C0000
7FFFF0
7FFFF0
7FFFF0
39FFF0
39FFF0
79FFF0
77FB70
73FFF0
73FFF0
003FF0
738000
7BCF00
FFEFA0
FFFFB0
7BFFB0
5BFFB0
5BFE30
DAFFB0
DEFFB0
DEFFB0
ENDCHAR
STARTCHAR 52F9
ENCODING 21241
SWIDTH 945 0
DWIDTH 21 0
BBX 17 20 2 -1
BITMAP
C00000
E00000
FFFF80
FFFF80
FFFF80
E00380
000380
000380
000380
000380
000380
000380
000380
000380
000380
000380
000380
001F80
001F80
000F80
ENDCHAR
STARTCHAR 52FA
ENCODING 21242
SWIDTH 945 0
DWIDTH 21 0
BBX 17 21 2 -1
BITMAP
800000
E00000
FFFF80
FFFF80
FFFF80
E00380
E00380
000380
040380
070380
070380
070380
070380
070380
070380
070380
000380
000380
001F80
001F80
000F80
ENDCHAR
STARTCHAR 52FE
ENCODING 21246
SWIDTH 990 0
DWIDTH 22 0
BBX 18 21 2 -1
BITMAP
800000
E00000
FFFFC0
FFFFC0
FFFFC0
E001C0
E001C0
0E01C0
1E01C0
1C01C0
1C01C0
1C61C0
3871C0
3871C0
3FF1C0
7FF1C0
7FF1C0
0001C0
001FC0
001FC0
000FC0
ENDCHAR
STARTCHAR 52FF
ENCODING 21247
SWIDTH 990 0
DWIDTH 22 0
BBX 18 21 2 -1
BITMAP
C00000
E00000
FFFFC0
FFFFC0
FFFFC0
E739C0
E739C0
EE39C0
0E39C0
0E71C0
0E71C0
1C71C0
1C71C0
1CE1C0
1CE1C0
1CE1C0
38E1C0
38E1C0
39CFC0
39CFC0
71C7C0
ENDCHAR
STARTCHAR 5300
ENCODING 21248
SWIDTH 945 0
DWIDTH 21 0
BBX 17 20 2 -1
BITMAP
C00000
E00000
FFFF80
FFFF80
FFFF80
E00380
000380
3FE380
3FE380
3FE380
000380
000380
003380
03F380
7FF380
7F8380
780380
001F80
000F80
000F80
ENDCHAR
STARTCHAR 5305
ENCODING 21253
SWIDTH 1035 0
DWIDTH 23 0
BBX 19 21 2 -2
BITMAP
800000
E00000
FFFF80
FFFF80
FFFF80
E00380
000380
7FE380
7FE380
7FE380
70E380
70E380
7FE380
7FE380
77EF80
700780
700780
700000
7FFFC0
7FFFC0
7FFFE0
ENDCHAR
STARTCHAR 5306
ENCODING 21254
SWIDTH 945 0
DWIDTH 21 0
BBX 17 21 2 -1
BITMAP
800000
E00000
FFFF80
FFFF80
FFFF80
EE7380
EE7380
0E7380
0C6380
1CE380
7FFF80
FFFB80
FFFB80
39C380
39C380
39C380
31C380
718380
739F80
738F80
638F80
ENDCHAR
STARTCHAR 5308
ENCODING 21256
SWIDTH 990 0
DWIDTH 22 0
BBX 18 21 2 -1
BITMAP
800000
E00000
FFFFC0
FFFFC0
FFFFC0
E001C0
0001C0
1CE1C0
1CE1C0
0FC1C0
E7DDC0
E79DC0
E79DC0
E79DC0
EFDDC0
FCFDC0
FCFDC0
E01DC0
FFFFC0
FFFFC0
FFFDC0
ENDCHAR
STARTCHAR 530D
ENCODING 21261
SWIDTH 990 0
DWIDTH 22 0
BBX 18 20 2 -1
BITMAP
E00000
FFFFC0
FFFFC0
FFFFC0
E761C0
0771C0
FFFDC0
FFF9C0
FFF9C0
FFF9C0
FFF9C0
FFF9C0
FFF9C0
FFF9C0
E739C0
FFF9C0
FFF9C0
E7FFC0
E77BC0
E77BC0
ENDCHAR
STARTCHAR 530F
ENCODING 21263
SWIDTH 1035 0
DWIDTH 23 0
BBX 19 21 2 -2
BITMAP
386000
FFF000
FFFFE0
FF7FE0
E67FE0
E770E0
FF00E0
7E7EE0
7E7EE0
007EE0
FF76E0
FF76E0
FF76E0
707FE0
7F7EE0
7F76E0
7F7000
077000
1F7FE0
0F7FE0
0F7FE0
ENDCHAR
STARTCHAR 5310
ENCODING 21264
SWIDTH 990 0
DWIDTH 22 0
BBX 18 21 2 -1
BITMAP
C00000
FFFFC0
FFFFC0
FFFFC0
E001C0
7FFDC0
7FFDC0
FFFDC0
7FF9C0
7FF9C0
7039C0
7FF9C0
7FF9C0
7FFDC0
7FFDC0
7FFDC0
739DC0
7FFDC0
7FFFC0
7FFDC0
7FFDC0
ENDCHAR
STARTCHAR 5315
ENCODING 21269
SWIDTH 990 0
DWIDTH 22 0
BBX 16 20 3 -2
BITMAP
E000
E000
E000
E006
E03E
E0FE
E7F8
EFC0
EF00
E800
E000
E000
E000
E000
E000
E000
E000
FFFE
FFFF
FFFF
ENDCHAR
STARTCHAR 5316
ENCODING 21270
SWIDTH 990 0
DWIDTH 22 0
BBX 19 21 2 -1
BITMAP
187000
187000
387000
307040
7071C0
7077C0
607FC0
F8FF00
FBF800
3FF000
3FF000
3C7000
387000
387000
387000
387000
387000
387000
387FC0
387FC0
387FE0
ENDCHAR
STARTCHAR 5317
ENCODING 21271
SWIDTH 990 0
DWIDTH 22 0
BBX 18 21 2 -2
BITMAP
0E3800
0E3800
0E3800
0E3800
0E3880
FE3F80
FE3F80
FE3F00
0E3800
0E3800
0E3800
0E3800
0E3800
0E3800
0E3800
0E3800
FE3800
FE3800
0E3F80
0E3F80
0E3FC0
ENDCHAR
STARTCHAR 5319
ENCODING 21273
SWIDTH 990 0
DWIDTH 22 0
BBX 19 20 1 -2
BITMAP
7FDC00
7FDC00
7FDC00
7FDC60
7FDFE0
7FDFE0
7FDE00
77DC00
001C00
7FFC00
7FDC00
FFDC00
771C00
77DFE0
77DFE0
67DFE0
7F0000
FFFFE0
FFFFE0
EFFFC0
ENDCHAR
STARTCHAR 531A
ENCODING 21274
SWIDTH 990 0
DWIDTH 22 0
BBX 18 20 2 -2
BITMAP
FFFFC0
FFFFC0
FFFFC0
E00000
E00000
E00000
E00000
E00000
E00000
E00000
E00000
E00000
E00000
E00000
E00000
E00000
E00000
FFFFC0
FFFFC0
FFFFC0
ENDCHAR
STARTCHAR 531D
ENCODING 21277
SWIDTH 990 0
DWIDTH 22 0
BBX 18 20 2 -2
BITMAP
FFFFC0
FFFFC0
FFFFC0
E07000
E07000
EFFF80
EFFF80
EFFF80
EE7380
EE7380
EE7380
EE7380
EE7780
EE7780
EE7780
E07000
E00000
FFFFC0
FFFFC0
FFFFC0
ENDCHAR
STARTCHAR 5320
ENCODING 21280
SWIDTH 990 0
DWIDTH 22 0
BBX 18 20 2 -2
BITMAP
FFFFC0
FFFFC0
FFFFC0
E00000
E7FF80
E7FF00
E7FF00
E70000
E70000
E7FFC0
E7FF80
E7FF80
E70E00
E70E00
E70E00
E70E00
E70E00
FFFFC0
FFFFC0
FFFFC0
ENDCHAR
STARTCHAR 5321
ENCODING 21281
SWIDTH 990 0
DWIDTH 22 0
BBX 18 20 2 -2
BITMAP
FFFFC0
FFFFC0
FFFFC0
E7FF80
EFFF80
EFFF00
E07000
E07000
E7FF00
E7FF00
E7FF00
E07000
E07000
E7FF80
EFFF80
EFFF80
E00000
FFFFC0
FFFFC0
FFFFC0
ENDCHAR
STARTCHAR 5323
ENCODING 21283
SWIDTH 990 0
DWIDTH 22 0
BBX 18 20 2 -2
BITMAP
FFFFC0
FFFFC0
FFFFC0
EFFF80
EFFF80
EFFF80
EE7380
EFFF80
EFFF80
EFFF80
EFFF80
EFFF80
EEFF80
E07000
E07000
E07000
E07000
FFFFC0
FFFFC0
FFFFC0
ENDCHAR
STARTCHAR 5326
ENCODING 21286
SWIDTH 990 0
DWIDTH 22 0
BBX 18 20 2 -2
BITMAP
FFFFC0
FFFFC0
FFFFC0
E70E00
FFCE00
FFDFC0
FFFFC0
EC3FC0
EFDDC0
FFDDC0
FFDDC0
E39DC0
EFDDC0
FFD9C0
FFF9C0
E3B9C0
E3B9C0
FFFFC0
FFFFC0
FFFFC0
ENDCHAR
STARTCHAR 532A
ENCODING 21290
SWIDTH 990 0
DWIDTH 22 0
BBX 18 20 2 -2
BITMAP
FFFFC0
FFFFC0
FFFFC0
E1DC00
E7DF80
EFDF80
EFDF00
E1DC00
E7DF80
E7DF80
E7DF80
E1DC00
EFDFC0
EFDF80
FFDF80
E1DC00
E1DC00
FFFFC0
FFFFC0
FFFFC0
ENDCHAR
STARTCHAR 532E
ENCODING 21294
SWIDTH 990 0
DWIDTH 22 0
BBX 18 20 2 -2
BITMAP
FFFFC0
FFFFC0
FFFFC0
E7FF80
E7FF80
E7FF80
E7FF80
E07000
EFFFC0
EFFFC0
E7FF80
E7FF80
E77380
E77380
E7FF80
EFCFC0
EC00C0
FFFFC0
FFFFC0
FFFFC0
ENDCHAR
STARTCHAR 5339
ENCODING 21305
SWIDTH 990 0
DWIDTH 22 0
BBX 17 20 2 -2
BITMAP
FFFF80
FFFF80
FFFF80
E73800
E73800
E73800
E73800
E73800
E63800
EE3800
EE3800
EE3800
EE3F00
EE3F00
EE3F80
E00000
E00000
FFFF80
FFFF80
FFFF80
ENDCHAR
STARTCHAR 533A
ENCODING 21306
SWIDTH 1035 0
DWIDTH 23 0
BBX 17 20 3 -2
BITMAP
FFFF80
FFFF80
FFFF80
EF0E00
E79E00
E3BC00
E3F800
E1F800
E0F000
E0F000
E1F800
E1F800
E3BC00
E79E00
E70E00
EE0F00
E00000
FFFF80
FFFF80
FFFF80
ENDCHAR
STARTCHAR 533B
ENCODING 21307
SWIDTH 990 0
DWIDTH 22 0
BBX 17 20 2 -2
BITMAP
FFFF80
FFFF80
FFFF80
EC0000
EFFF00
EFFE00
EFFE00
EE7000
E07000
EFFF00
EFFF00
EFFF00
E3C000
E39C00
E78E00
E70E00
EE0700
FFFF80
FFFF80
FFFF80
ENDCHAR
STARTCHAR 533E
ENCODING 21310
SWIDTH 990 0
DWIDTH 22 0
BBX 18 20 2 -2
BITMAP
FFFFC0
FFFFC0
FFFFC0
E07000
EFFF80
EFFF80
EFFF80
EFFF80
EFFF80
EFFF80
EFFF80
EFFF80
EFB580
EFFF80
EFFF80
EFB580
EFB580
FFFFC0
FFFFC0
FFFFC0
ENDCHAR
STARTCHAR 533F
ENCODING 21311
SWIDTH 990 0
DWIDTH 22 0
BBX 18 20 2 -2
BITMAP
FFFFC0
FFFFC0
FFFFC0
EFFFC0
EFFF80
EFFF80
E1CE00
EFFFC0
EFFFC0
EFFF80
E70000
EFFF80
EFFF80
EFFF80
E7FF80
E7FF80
E77F80
FFFFC0
FFFFC0
FFFFC0
ENDCHAR
STARTCHAR 5341
ENCODING 21313
SWIDTH 1035 0
DWIDTH 23 0
BBX 19 21 2 -2
BITMAP
00E000
00E000
00E000
00E000
00E000
00E000
00E000
7FFFE0
7FFFC0
FFFF80
00E000
00E000
00E000
00E000
00E000
00E000
00E000
00E000
00E000
00E000
00E000
ENDCHAR
STARTCHAR 5343
ENCODING 21315
SWIDTH 1035 0
DWIDTH 23 0
BBX 19 20 2 -2
BITMAP
7FFFC0
7FFFC0
7FFFC0
00E000
00E000
00E000
00E000
00E000
7FFFE0
FFFFE0
FFFFC0
00E000
00E000
00E000
00E000
00E000
00E000
00E000
00E000
00E000
ENDCHAR
STARTCHAR 5345
ENCODING 21317
SWIDTH 990 0
DWIDTH 22 0
BBX 19 21 1 -2
BITMAP
1CE380
1CE380
1CE380
1CE380
1CE380
1CE380
1CE380
1CE380
7FFFE0
7FFFE0
FFFFC0
1CE380
18E380
38E380
38E380
38E380
38E380
38E380
38E380
38E380
30E380
ENDCHAR
STARTCHAR 5347
ENCODING 21319
SWIDTH 990 0
DWIDTH 22 0
BBX 18 21 2 -2
BITMAP
000E00
3FEE00
7FCE00
7FCE00
0E0E00
0E0E00
0E0E00
1C0E00
FFFFC0
FFFFC0
FFFFC0
1C0E00
1C0E00
1C0E00
1C0E00
380E00
380E00
380E00
380E00
380E00
380E00
ENDCHAR
STARTCHAR 5348
ENCODING 21320
SWIDTH 990 0
DWIDTH 22 0
BBX 19 21 2 -1
BITMAP
400000
700000
7FFFC0
7FFF80
7FFF80
70E000
70E000
00E000
00E000
00E000
7FFFE0
FFFFC0
FFFFC0
00E000
00E000
00E000
00E000
00E000
00E000
00E000
00E000
ENDCHAR
STARTCHAR 5349
ENCODING 21321
SWIDTH 1035 0
DWIDTH 23 0
BBX 19 21 2 -2
BITMAP
00E000
00E000
00E000
3FFFC0
7FFFC0
7FFF80
00E000
1CE700
1CE700
1C0700
1C0700
7FFFE0
7FFFE0
FFFFC0
180700
380700
380700
380700
380700
380700
380700
ENDCHAR
STARTCHAR 534A
ENCODING 21322
SWIDTH 1035 0
DWIDTH 23 0
BBX 19 21 2 -2
BITMAP
00E000
30E200
38E380
38E380
38E380
38E380
00E000
7FFFC0
7FFFC0
7FFFC0
00E000
00E000
FFFFE0
FFFFE0
FFFFE0
00E000
00E000
00E000
00E000
00E000
00E000
ENDCHAR
STARTCHAR 534D
ENCODING 21325
SWIDTH 1035 0
DWIDTH 23 0
BBX 19 20 2 -2
BITMAP
7FE1C0
7FE1C0
FFE1C0
00E1C0
00E1C0
00E1C0
00E1C0
00E1C0
7FFFC0
7FFFC0
7FFFC0
70E000
70E000
70E000
70E000
70E000
70E000
70FFC0
70FFC0
70FFE0
ENDCHAR
STARTCHAR 534E
ENCODING 21326
SWIDTH 990 0
DWIDTH 22 0
BBX 18 20 2 -1
BITMAP
3C3800
383800
7838C0
707FC0
7BFFC0
FBF800
383800
383F80
383FC0
383FC0
380000
00E000
00E000
7FFFC0
FFFFC0
FFFF80
00E000
00E000
00E000
00E000
ENDCHAR
STARTCHAR 534F
ENCODING 21327
SWIDTH 990 0
DWIDTH 22 0
BBX 20 21 1 -2
BITMAP
383800
383800
38FF00
38FF00
7FFF00
FC7700
FC7700
3BF770
3BF770
3BF770
3BF770
3BF770
3BF770
3BF770
3BF770
3BF770
3BF770
3BF770
387F00
387700
387700
ENDCHAR
STARTCHAR 5351
ENCODING 21329
SWIDTH 990 0
DWIDTH 22 0
BBX 20 21 1 -1
BITMAP
018000
3FFFC0
3FFFC0
3FFFC0
38E1C0
3FFFC0
3FFFC0
3FFFC0
38E1C0
3FFFC0
3FFFC0
3FFFC0
0E7000
1C7000
007000
7FFFF0
7FFFE0
FFFFE0
007000
007000
007000
ENDCHAR
STARTCHAR 5352
ENCODING 21330
SWIDTH 1035 0
DWIDTH 23 0
BBX 19 21 2 -2
BITMAP
008000
00E000
3FFFC0
7FFF80
7FFF80
1C0E00
1C0E00
1F1F00
3F1F80
3B3B80
73B980
000000
00E000
00E000
7FFFE0
FFFFC0
FFFFC0
00E000
00E000
00E000
00E000
ENDCHAR
STARTCHAR 5353
ENCODING 21331
SWIDTH 990 0
DWIDTH 22 0
BBX 19 21 1 -3
BITMAP
00E000
00FFE0
00FFC0
00FFC0
00E000
3FFF80
3FFF80
3FFF80
380380
3FFF80
3FFF80
380380
3FFF80
3BFF80
3BFF80
00E000
7FFFE0
7FFFC0
FFFFC0
00E000
00E000
ENDCHAR
STARTCHAR 5355
ENCODING 21333
SWIDTH 990 0
DWIDTH 22 0
BBX 19 21 1 -3
BITMAP
040800
070E00
3FFFC0
3FFFC0
3FFFC0
38E1C0
38E1C0
3FFFC0
3FFFC0
3FFFC0
38E1C0
3FFFC0
3BFFC0
3BFFC0
00E000
7FFFE0
7FFFE0
FFFFC0
00E000
00E000
00E000
ENDCHAR
STARTCHAR 5356
ENCODING 21334
SWIDTH 990 0
DWIDTH 22 0
BBX 18 21 2 -2
BITMAP
00E000
3FFFC0
3FFF80
7FFF80
00E000
7FFFC0
7FFFC0
7FFFC0
3EE1C0
3EE1C0
00E1C0
3EE1C0
3EE000
00E000
7FFFC0
FFFFC0
FFFFC0
0E1E00
1C0F00
380780
7003C0
ENDCHAR
STARTCHAR 5357
ENCODING 21335
SWIDTH 990 0
DWIDTH 22 0
BBX 19 21 1 -2
BITMAP
00E000
7FFFE0
7FFFE0
FFFFC0
00E000
00E000
7FFFC0
7FFFC0
7FFFC0
7331C0
73B9C0
77FDC0
77FDC0
7FFDC0
70E1C0
77FFC0
77FFC0
7FFDC0
70E3C0
70E3C0
70E1C0
ENDCHAR
STARTCHAR 535A
ENCODING 21338
SWIDTH 990 0
DWIDTH 22 0
BBX 19 21 1 -2
BITMAP
380FC0
39FFE0
39FFE0
39FFE0
FFFFE0
FFFFE0
FFFFE0
FDCEE0
39FFE0
39FFE0
39FFE0
39FFE0
39CEE0
380000
39FFE0
39FFE0
39FFE0
3801C0
3867C0
3877C0
3873C0
ENDCHAR
STARTCHAR 535C
ENCODING 21340
SWIDTH 990 0
DWIDTH 22 0
BBX 11 21 8 -2
BITMAP
E000
E000
E000
E000
E000
E700
E700
E700
E300
E380
E380
E180
E1C0
E1C0
E0C0
E0E0
E000
E000
E000
E000
E000
ENDCHAR
STARTCHAR 535E
ENCODING 21342
SWIDTH 990 0
DWIDTH 22 0
BBX 18 21 2 -2
BITMAP
010000
01C000
01C000
01C000
7FFFC0
FFFF80
FFFF80
000000
01C000
01C000
01DC00
01CE00
01CE00
01C700
01C700
01C300
01C380
01C380
01C000
01C000
01C000
ENDCHAR
STARTCHAR 535F
ENCODING 21343
SWIDTH 1035 0
DWIDTH 23 0
BBX 19 21 2 -2
BITMAP
003800
003800
FF3800
FF3800
FF3800
E73B80
E73B80
E73B80
E73980
E739C0
E739C0
E739C0
E739C0
E738E0
E738E0
E738E0
FF3800
EF3800
EF3800
003800
003800
ENDCHAR
STARTCHAR 5360
ENCODING 21344
SWIDTH 990 0
DWIDTH 22 0
BBX 17 21 2 -2
BITMAP
038000
038000
038000
03FF80
03FF80
03FF00
038000
038000
038000
038000
FFFF00
FFFF00
FFFF00
E00700
E00700
E00700
E00700
E00700
FFFF00
EFFF00
EFFF00
ENDCHAR
STARTCHAR 5361
ENCODING 21345
SWIDTH 990 0
DWIDTH 22 0
BBX 19 21 2 -1
BITMAP
01C000
01C000
01FFC0
01FF80
01FF80
01C000
01C000
7FFFE0
FFFFC0
FFFFC0
000000
01C000
01CE00
01CE00
01C700
01C700
01C380
01C380
01C380
01C000
01C000
ENDCHAR
STARTCHAR 5362
ENCODING 21346
SWIDTH 990 0
DWIDTH 22 0
BBX 18 21 2 -2
BITMAP
01C000
01FFC0
01FF80
01FF80
01C000
01C000
FFFF80
FFFF80
FFFF80
E00380
E00380
EFFF80
EFFF80
E7FF80
E00000
E00000
E00000
E00000
E00000
E00000
E00000
ENDCHAR
STARTCHAR 5363
ENCODING 21347
SWIDTH 990 0
DWIDTH 22 0
BBX 18 21 2 -2
BITMAP
01C000
01C000
01FFC0
01FF80
01FF80
01C000
FFFF80
FFFF80
FFFF80
E00380
FFFB80
FFFB80
FFFB80
E03B80
FFFB80
FFFB80
FFFB80
E00380
FFFF80
EFFF80
EFFF80
ENDCHAR
STARTCHAR 5364
ENCODING 21348
SWIDTH 990 0
DWIDTH 22 0
BBX 18 21 2 -2
BITMAP
01C000
01FFC0
01FF80
01FF80
01C000
01C000
FFFF80
FFFF80
FFFF80
EF3B80
E77380
E3F380
E1E380
E1E380
E3F380
E77380
EF3B80
E00380
FFFF80
EFFF80
EFFF80
ENDCHAR
STARTCHAR 5366
ENCODING 21350
SWIDTH 1035 0
DWIDTH 23 0
BBX 19 21 2 -2
BITMAP
0E0E00
0E0E00
7FCE00
7FCE00
7FCE00
0E0EC0
0E0EC0
7FEEC0
7FEEC0
FFCEE0
000EE0
0E0EE0
0E0EE0
7FCEE0
7FCEE0
7FCE60
0E0E00
0E0E00
7FEE00
7FEE00
FFCE00
ENDCHAR
STARTCHAR 5367
ENCODING 21351
SWIDTH 1035 0
DWIDTH 23 0
BBX 19 21 2 -2
BITMAP
000E00
FFEE00
FFEE00
FFEE00
E70E00
E70EC0
E70EC0
FFEEC0
FFEEE0
FFEEE0
E0EEE0
E0EEE0
FFEEE0
FFEE60
FFEE60
E70E60
E70E00
E70E00
FFEE00
FFEE00
FFEE00
ENDCHAR
STARTCHAR 5369
ENCODING 21353
SWIDTH 990 0
DWIDTH 22 0
BBX 8 20 13 -2
BITMAP
FF
FF
FF
E7
E7
E7
E7
E7
E7
E7
E7
E7
E7
EF
EF
EF
E0
E0
E0
E0
ENDCHAR
STARTCHAR 536B
ENCODING 21355
SWIDTH 990 0
DWIDTH 22 0
BBX 18 20 2 -2
BITMAP
7FFF80
7FFF80
7FFF80
01C380
01C380
01C380
01C380
01C380
01C380
01C380
01C380
01CF80
01CF80
01C780
01C000
01C000
01C000
7FFFC0
7FFFC0
FFFF80
ENDCHAR
STARTCHAR 536E
ENCODING 21358
SWIDTH 1035 0
DWIDTH 23 0
BBX 19 20 2 -2
BITMAP
FFFFC0
FFFFC0
FFFF80
E00000
FFFFC0
FFFFC0
FFFFC0
E00000
EFFF80
EFFF80
EFFF80
EE0380
EE0380
EE3F80
EE3F80
EE1F80
EE0000
EFFFC0
EFFFC0
EFFFE0
ENDCHAR
STARTCHAR 536F
ENCODING 21359
SWIDTH 990 0
DWIDTH 22 0
BBX 18 20 2 -2
BITMAP
FF7FC0
FF7FC0
FE7FC0
E071C0
E771C0
E771C0
E771C0
E771C0
E771C0
E771C0
E771C0
E771C0
FF77C0
FF77C0
FE73C0
1C7000
1C7000
387000
707000
707000
ENDCHAR
STARTCHAR 5370
ENCODING 21360
SWIDTH 990 0
DWIDTH 22 0
BBX 18 20 2 -2
BITMAP
FF7FC0
FF7FC0
FE7FC0
E071C0
E071C0
E071C0
E071C0
FF71C0
FF71C0
FE71C0
E071C0
E071C0
E071C0
E071C0
FE77C0
FF77C0
FF73C0
007000
007000
007000
ENDCHAR
STARTCHAR 5371
ENCODING 21361
SWIDTH 990 0
DWIDTH 22 0
BBX 18 21 2 -1
BITMAP
700000
7FFF00
7FFE00
FFFE00
E00E00
FFFFC0
FFFFC0
FFFF80
E00000
E7FF00
E7FF00
E7FF00
E70700
E70700
E73F00
E71F00
E71F00
E70000
E7FF80
E7FF80
E7FFC0
ENDCHAR
ENDFONT
